<?xml version="1.0" standalone="no"?>
<!DOCTYPE svg PUBLIC "-//W3C//DTD SVG 1.1//EN" "http://www.w3.org/Graphics/SVG/1.1/DTD/svg11.dtd" >
<svg xmlns="http://www.w3.org/2000/svg">
<metadata></metadata>
<defs>
<font id="serif72_betablack_italic" horiz-adv-x="1490" >
<font-face units-per-em="2048" ascent="1536" descent="-512" />
<missing-glyph horiz-adv-x="387" />
<glyph unicode="&#xfb01;" horiz-adv-x="1239" d="M-387 -375q11 45 51 76t94 31q24 0 39.5 -25.5t22.5 -56.5t22.5 -56.5t38.5 -25.5q60 0 154 420l201 954h-140l17 64l82 18h57l8 37q49 199 223 339t394 140q134 0 252.5 -51.5t127.5 -122.5q4 -71 -54 -127.5t-134 -58.5q-32 -2 -57.5 13t-40.5 45t-6.5 82t43.5 118 q-20 53 -152 53q-200 0 -264 -328l-29 -139h174l-22 -82h-170l-168 -807q-60 -288 -224 -462.5t-397 -174.5q-70 0 -113.5 39.5t-29.5 87.5zM700 141q0 63 21 140l166 647l-123 20l18 62l437 24l-197 -753q-34 -117 -31.5 -158t43.5 -41q42 0 86.5 45.5t85.5 124.5l41 -19 q-53 -111 -167 -183t-234 -60q-72 4 -109 46t-37 105z" />
<glyph unicode="&#xfb02;" horiz-adv-x="1257" d="M-422 -403q12 56 54.5 95.5t95.5 39.5q24 0 41.5 -17t27.5 -41t19.5 -48t25.5 -41t39 -17q60 0 154 420l201 954h-140l17 64l141 18l12 57q30 124 116.5 228.5t217.5 167.5t277 63q202 0 366 -82l100 8l-14 -57q0 -2 2 -2l-4 -2l-285 -1124q-22 -78 -27 -121.5t5.5 -60.5 t36.5 -17q40 0 85.5 46t86.5 124l41 -19q-54 -111 -167.5 -183t-234.5 -60q-52 3 -86 27.5t-47.5 65t-12.5 90.5t17 108l267 1067q12 59 -39 101t-131 42q-107 0 -160.5 -83.5t-100.5 -305.5l-16 -78h178l-22 -82h-172l-166 -807q-60 -288 -224 -462.5t-397 -174.5 q-81 0 -135 31t-43 68z" />
<glyph horiz-adv-x="2048" />
<glyph horiz-adv-x="2048" />
<glyph unicode="&#xd;" horiz-adv-x="2048" />
<glyph unicode=" "  horiz-adv-x="387" />
<glyph unicode="&#x09;" horiz-adv-x="387" />
<glyph unicode="&#xa0;" horiz-adv-x="387" />
<glyph unicode="!" horiz-adv-x="634" d="M111 96q11 51 57.5 84t107.5 33q60 0 95.5 -33t29.5 -84q-10 -50 -55 -78t-108 -28t-100 28.5t-27 77.5zM236 457l77 833q12 83 71 136t138 55q75 1 108 -51t13 -140l-254 -833q-5 -19 -44 -26.5t-75.5 0.5t-33.5 26z" />
<glyph unicode="&#x22;" horiz-adv-x="747" d="M248 971l49 413q10 62 71 88q57 23 101 -1q47 -25 33 -87l-111 -413h-143zM532 971l50 413q10 62 72 88q56 23 100 -1q46 -26 32 -87l-110 -413h-144z" />
<glyph unicode="#" horiz-adv-x="1067" d="M51 424l21 88h247l154 422h-283l23 88h291l162 440h88l-160 -440h205l159 440h91l-162 -440h237l-22 -88h-246l-154 -422h281l-20 -88h-293l-154 -424h-88l154 424h-205l-154 -424h-90l154 424h-236zM408 512h204l154 422h-205z" />
<glyph unicode="$" horiz-adv-x="1093" d="M94 2l88 410l47 2q11 -82 22 -134.5t30 -102t46 -77.5t68.5 -45.5t98.5 -21.5l157 553q-100 58 -112 67q-88 56 -147.5 103.5t-105 100.5t-60 109t0.5 117q24 94 86.5 172t144 126t171 74t172.5 26q33 0 100 -13l55 193h66l-59 -213q85 -34 131 -92l47 108h63l-86 -393 h-49q-3 103 -35 184.5t-90 126.5l-149 -528l6 -4q84 -57 144.5 -106.5t112 -107.5t71 -117.5t4.5 -117.5q-36 -144 -127 -240t-205.5 -137.5t-251.5 -43.5l-49 -181h-72l51 183q-99 8 -167 45.5t-109 115.5l-53 -141h-56zM488 1159q0 -21 4.5 -38.5t14 -35t20.5 -31.5 t28 -29.5t32.5 -27t36.5 -26t37.5 -25t39.5 -25t38 -24.5l148 518q-43 19 -90 19q-245 0 -303 -232q-6 -22 -6 -43zM565 35q107 9 183.5 72.5t103.5 175.5q21 86 -19.5 149t-123.5 117z" />
<glyph unicode="%" horiz-adv-x="1679" d="M293 0l1116 1462h88l-1116 -1462h-88zM309 1159q27 137 141 230.5t271 93.5q150 0 229.5 -94t55.5 -230q-29 -145 -143 -242.5t-271 -97.5q-151 0 -231 99t-52 241zM549 1159q-57 -293 51 -293q55 0 99 82.5t69 210.5q53 277 -57 277q-55 0 -96 -76.5t-66 -200.5z M793 319q29 139 140 231.5t269 92.5q150 0 231 -94t56 -230q-28 -145 -143 -242t-273 -97q-153 0 -231.5 98.5t-48.5 240.5zM1014.5 113q10.5 -86 68.5 -86q52 0 96 82t70 210q49 277 -55 277q-57 0 -97.5 -76.5t-64.5 -200.5q-28 -120 -17.5 -206z" />
<glyph unicode="&#x26;" horiz-adv-x="1396" d="M10 348q26 131 150 240.5t327 179.5l-36 72q-82 156 -41 340q25 127 147 211t289 84q85 0 151 -28.5t100.5 -88.5t18.5 -141q-9 -46 -34 -88t-54.5 -72.5t-76.5 -64.5t-81 -54t-88 -49l168 -334q63 -127 103 -188q41 53 67 104q-1 26 -19 70t-11 77q6 33 29 57.5t55 24.5 q42 0 49.5 -33t-11.5 -92q-45 -124 -135 -243q99 -146 197 -146q42 0 84 45l16 -12q-73 -98 -160.5 -165.5t-166.5 -67.5q-126 0 -213 116q-185 -118 -388 -118q-239 0 -355 93t-81 271zM358 371q-27 -128 41.5 -212.5t206.5 -84.5q103 0 205 63q-27 42 -53.5 94t-74 151.5 t-67.5 141.5l-96 183q-36 -35 -61 -68t-39 -55.5t-27 -65t-17.5 -63.5t-17.5 -84zM709 1212q-12 -69 2 -135t49 -145q114 99 145 264q22 123 4.5 178.5t-69.5 55.5q-38 0 -72.5 -55.5t-58.5 -162.5z" />
<glyph unicode="'" horiz-adv-x="374" d="M209 971l49 413q10 62 71 88q57 23 101 -1q47 -25 33 -87l-111 -413h-143z" />
<glyph unicode="(" horiz-adv-x="677" d="M107.5 345.5q4.5 131.5 29.5 262.5q38 201 134.5 400t248 367t326.5 251l10 -31q-83 -69 -158.5 -186.5t-130.5 -255.5t-94.5 -274.5t-64.5 -270.5q-30 -149 -45.5 -295.5t-16.5 -293t27 -267.5t84 -190l-17 -31q-87 50 -153.5 136t-106 192.5t-58.5 230.5t-14.5 255.5z " />
<glyph unicode=")" horiz-adv-x="677" d="M-139 -438q83 69 157.5 186.5t129.5 255.5t94.5 274.5t64.5 270.5q40 204 56 395.5t-6.5 375.5t-94.5 275l14 31q86 -50 151.5 -135.5t105 -192.5t58 -231t13.5 -255.5t-31 -262.5q-37 -201 -133 -400t-246.5 -367t-324.5 -251z" />
<glyph unicode="*" horiz-adv-x="974" d="M195 1153l55 109l266 -109l51 315h111l-70 -313l307 109l13 -111l-314 -86l140 -244l-105 -65l-117 250l-217 -250l-77 65l231 242z" />
<glyph unicode="+" horiz-adv-x="974" d="M76 559l18 109h377l70 356h106l-69 -356h370l-20 -109h-373l-70 -358h-106l70 358h-373z" />
<glyph unicode="," horiz-adv-x="425" d="M-55 -262q69 48 112.5 97.5t61.5 127.5q-44 7 -71 46t-19 83q9 50 47 80.5t90 30.5q47 0 73 -42.5t13 -109.5q-12 -63 -48 -126t-80 -108.5t-83 -77t-68 -46.5z" />
<glyph unicode="-" horiz-adv-x="1036" d="M221 565l37 150h692l-37 -150h-692z" />
<glyph unicode="." horiz-adv-x="374" d="M-16 92q29 111 184 111q73 0 104 -29.5t19 -81.5q-29 -115 -180 -115q-76 0 -107.5 31t-19.5 84z" />
<glyph unicode="/" horiz-adv-x="933" d="M-66 -221l1029 1718h90l-1030 -1718h-89z" />
<glyph unicode="0" horiz-adv-x="1339" d="M198 489.5q-3 112.5 21 241.5q41 214 144 383.5t259 269t339 99.5q130 0 229.5 -57.5t155 -158.5t73.5 -238.5t-16 -297.5q-42 -215 -144 -383t-257.5 -267t-339.5 -99q-104 0 -189.5 37t-143 104t-93 160.5t-38.5 206zM557 731q-148 -698 117 -698q233 0 391 698 q152 701 -115 701q-63 0 -121.5 -53t-107.5 -149.5t-89.5 -220.5t-74.5 -278z" />
<glyph unicode="1" horiz-adv-x="698" d="M6 -4l12 59l166 23l232 1175h-160l16 64q99 5 188 40.5t142 104.5l154 4l-273 -1384l156 -27l-12 -59l-308 4z" />
<glyph unicode="2" horiz-adv-x="1030" d="M-6 0l24 121q118 100 193.5 165.5t159 140t133.5 124.5t104 108.5t85 103t61.5 96.5t49 101.5t32.5 106.5q43 181 10 252.5t-146 71.5q-93 0 -153 -72q2 -9 8.5 -30t10.5 -34t8.5 -34t6.5 -37t1.5 -35.5t-4.5 -36.5q-19 -73 -75 -119.5t-143 -46.5q-58 0 -85 27.5 t-23.5 71t22.5 90.5t50 92q97 110 234 178t269 68q41 0 78 -3.5t77 -12t73 -23.5t63.5 -36t50.5 -52.5t31.5 -70.5t9.5 -91.5t-18 -114.5q-19 -73 -80.5 -155t-135 -151t-189 -156t-202 -146t-215.5 -144l-69 -45v-2h655l37 56l41 -2l-121 -324h-919z" />
<glyph unicode="3" horiz-adv-x="1163" d="M59 168q-13 73 7.5 142t63.5 111t93 42q64 0 88 -52t8 -122q-4 -24 -14.5 -49.5t-20 -41t-22.5 -35t-16 -24.5q8 -42 76 -71t129 -29q112 0 194.5 88t116.5 260q40 195 -44 272.5t-298 30.5l-21 78l-4 16q83 12 150.5 30.5t113.5 38.5t82 48.5t57 53t36.5 59.5t23 60.5 t14.5 62.5q11 69 6 131t-43.5 104.5t-103.5 42.5q-108 0 -192 -67q1 -12 5 -39.5t5.5 -43t0.5 -43t-7 -57.5q-13 -67 -62 -102t-116 -35q-48 0 -68 40t-9 97.5t46 108.5q52 73 140 121.5t168 66t155 17.5q66 0 128.5 -12.5t119 -40t95.5 -67t56.5 -99t3.5 -130.5 q-27 -130 -157 -225.5t-359 -140.5l2 -21q123 -1 214 -31.5t139 -81.5t65.5 -114.5t3.5 -134.5q-21 -104 -86.5 -183t-159.5 -125t-201 -68.5t-223 -22.5q-131 0 -242 57t-137 129z" />
<glyph unicode="4" horiz-adv-x="1155" d="M39 332l14 67h2q213 253 363 455t223.5 317t175.5 291l209 -2l-819 -1061h350l98 447h299l-98 -447h221l-14 -67h-221l-58 -264l148 -27l-8 -45l-242 4l-365 -4l9 45l159 22l58 269h-504z" />
<glyph unicode="5" horiz-adv-x="1107" d="M59 168q-23 99 28.5 182.5t129.5 83.5q64 0 89.5 -43t12.5 -102q-4 -24 -14.5 -49.5t-20 -41t-22.5 -35t-16 -24.5q6 -43 58 -71.5t106 -28.5q124 0 217 118t125 298q38 195 -9 280.5t-186 85.5q-145 0 -256 -94l-76 2l172 733h693l-50 -336h-65q-4 36 -28.5 56t-92.5 20 h-451l-86 -383q73 49 168.5 79t186.5 30q84 0 153.5 -18t115 -49.5t78.5 -74t46.5 -91.5t17 -101.5t-9.5 -104.5q-47 -234 -233.5 -370.5t-442.5 -136.5q-119 0 -217 57t-121 129z" />
<glyph unicode="6" horiz-adv-x="1236" d="M159.5 478.5q1.5 58.5 12.5 115.5q37 199 121.5 368.5t193 281t232 173.5t242.5 62q48 0 95 -9.5t92.5 -30.5t76 -54t44 -79t-2.5 -106q-16 -57 -54 -87t-75 -30q-51 0 -76.5 31.5t-28.5 79.5q-12 95 53 172q-24 26 -48 35.5t-60 9.5q-144 0 -257 -189.5t-194 -537.5 q63 106 156 160.5t178 54.5q217 0 319 -115t66 -299q-19 -92 -79 -182t-144.5 -159t-193 -111.5t-218.5 -42.5q-83 0 -152 20t-117.5 54.5t-85 81.5t-57 101t-30.5 113.5t-8.5 118zM475.5 283.5q2.5 -70.5 18.5 -118t54.5 -79t98.5 -31.5q186 0 264 381q39 173 12.5 277 t-120.5 104q-86 0 -167.5 -68t-135.5 -194q-13 -76 -20 -138.5t-4.5 -133z" />
<glyph unicode="7" horiz-adv-x="882" d="M164 1122l98 340h850l-18 -102q-496 -615 -527 -1202q-6 -77 -53.5 -123.5t-124.5 -46.5q-70 0 -101 46.5t-14 123.5q47 251 193.5 502t431.5 530l10 6h-657l-47 -76z" />
<glyph unicode="8" horiz-adv-x="1050" d="M27 334q26 123 129.5 215t263.5 143q-241 163 -199 395q30 163 180.5 276.5t354.5 113.5q131 0 229 -44.5t142.5 -119.5t27.5 -164q-21 -112 -115 -198t-231 -132q301 -182 256 -424q-33 -171 -194 -290t-384 -119q-228 0 -358 101.5t-102 246.5zM288 230 q5 -58 26 -100.5t68 -67.5t116 -25q102 0 168.5 82.5t93.5 214.5q33 179 -195 280q-11 4 -67 33q-80 -43 -130.5 -121t-70.5 -172q-14 -66 -9 -124zM526 1149q-9 -49 2 -92t37 -74.5t55.5 -54t65.5 -39.5q5 -3 28 -15t36 -18q98 88 137 272q14 84 9.5 150t-43 106.5 t-108.5 40.5q-82 0 -138 -77t-81 -199z" />
<glyph unicode="9" horiz-adv-x="1081" d="M72 197q-10 93 37 165t116 72q63 0 84.5 -38t3.5 -128q-9 -38 -48 -95t-79 -91q44 -33 111 -33q190 0 302.5 176.5t188.5 562.5q-54 -110 -132.5 -162.5t-149.5 -52.5q-200 0 -292.5 122t-53.5 319q18 87 73.5 171t133 149t178.5 105t203 40q89 0 159 -31t113.5 -85 t72 -123t37.5 -149t6 -159t-18 -156q-28 -146 -110 -291.5t-187 -253t-226 -174.5t-226 -67q-123 0 -203.5 61t-91.5 142zM443.5 739q25.5 -102 113.5 -102q69 0 138.5 75.5t117.5 215.5q75 485 -102 485q-180 0 -258 -412q-35 -160 -9.5 -262z" />
<glyph unicode=":" horiz-adv-x="454" d="M8 96q9 51 55.5 84t110.5 33q58 0 94 -33.5t27 -83.5q-10 -50 -55.5 -78t-108.5 -28q-64 0 -98.5 28t-24.5 78zM74 844q9 51 55.5 84t110.5 33q58 0 93.5 -33.5t26.5 -83.5q-10 -50 -55 -78.5t-108 -28.5t-98 28.5t-25 78.5z" />
<glyph unicode=";" horiz-adv-x="466" d="M-39 -262q69 48 112.5 97.5t61.5 127.5q-44 7 -71 46t-19 83q9 50 47 80.5t90 30.5q47 0 73 -42.5t13 -109.5q-12 -63 -48 -126t-79.5 -108.5t-82.5 -77t-68 -46.5zM43 844q9 51 55.5 84t110.5 33q58 0 94 -33.5t27 -83.5q-10 -50 -55.5 -78.5t-108.5 -28.5t-98 28.5 t-25 78.5z" />
<glyph unicode="&#x3c;" horiz-adv-x="851" d="M57 549l21 96l833 346l-18 -88l-717 -305l600 -295l-18 -98z" />
<glyph unicode="=" horiz-adv-x="1056" d="M70 416l20 108h893l-20 -108h-893zM133 750l25 108h893l-25 -108h-893z" />
<glyph unicode="&#x3e;" horiz-adv-x="851" d="M-8 205l18 88l713 305l-594 295l18 98l697 -344l-21 -96z" />
<glyph unicode="?" horiz-adv-x="987" d="M217.5 1149.5q9.5 59.5 42.5 110.5q87 101 210.5 163t248.5 62q183 0 282.5 -82.5t67.5 -245.5q-16 -81 -53 -147t-94.5 -119t-122.5 -93.5t-154 -82.5l-61 -316q-7 -34 -98 -43t-142 14q-25 12 -22 29l38 217q148 64 249 201t128 279q31 153 0 236t-116 83 q-55 0 -98.5 -10.5t-92.5 -44.5q27 -41 40 -92t3 -94q-13 -70 -61.5 -118t-122.5 -48q-43 0 -62 41t-9.5 100.5zM256 96q9 51 56.5 84t111.5 33q58 0 93 -33.5t26 -83.5q-10 -50 -54.5 -78t-109.5 -28q-62 0 -97.5 28.5t-25.5 77.5z" />
<glyph unicode="@" horiz-adv-x="1796" d="M100 209q-7 89 13 184q33 165 109 311t181 254.5t232 187t267 118.5t280 39q101 0 185.5 -18.5t146 -51t107.5 -78.5t73 -101t40 -118.5t11 -130.5t-16 -139q-19 -103 -81.5 -210t-148 -191t-192 -137.5t-205.5 -53.5q-49 0 -77 22.5t-35 73.5t18 133l14 51 q-28 -53 -64 -101.5t-81.5 -92.5t-101 -70.5t-111.5 -26.5q-107 0 -151 100.5t-1 246.5q30 109 83 200t111.5 149t122.5 98.5t117 57.5t94 17q54 0 86.5 -16t55.5 -58l35 60h126l-188 -613q-22 -71 -21.5 -107.5t15.5 -46.5t49 -10q75 0 159.5 78t147.5 195t84 231 q15 77 15.5 149t-13.5 138.5t-47.5 121.5t-83.5 96t-124.5 64t-166.5 23q-147 1 -292 -56.5t-268.5 -163t-216 -267.5t-130.5 -357q-19 -109 -15.5 -206t38 -177.5t91.5 -138.5t146 -90.5t201 -32.5q303 0 534 184l13 -24q-117 -104 -260.5 -163.5t-335.5 -59.5 q-104 0 -194 26t-156 73t-116.5 112.5t-75.5 144.5t-32 168zM672 430q-74 -258 90 -258q49 0 101 41t91.5 99t72 116.5t49.5 99.5l18 41l30 -151l-71 -2q-12 -31 -31 -62l53 174l45 144q31 98 4 149t-118 51q-87 0 -177 -107.5t-157 -334.5z" />
<glyph unicode="A" d="M-78 -4l8 39l150 26l887 1395h186l96 -1395l142 -26l-9 -39l-329 4l-310 -4l9 39l153 22l-16 392h-477l-248 -392l143 -22l-8 -39l-178 4zM465 532h420l-27 621z" />
<glyph unicode="B" horiz-adv-x="1484" d="M16 -4l9 39l155 22l283 1344l-152 18l13 43h594q284 0 434 -104q122 -85 122 -207q0 -28 -6 -57q-57 -281 -534 -344v-11q120 -10 211.5 -34.5t158.5 -66.5q66 -44 94 -110q16 -39 17 -85q0 -32 -8 -68q-35 -164 -221.5 -269.5t-485.5 -105.5h-376zM489 61l3 -2h204h6 q82 -1 150 27q70 28 116 77t74.5 103.5t40.5 114.5q12 50 12 94q-1 42 -15 85q-14 44 -44.5 75t-87.5 50q-52 17 -120 17h-15h-186zM641 770h96h15q70 0 129 16q65 18 109 49t77.5 74t51.5 86.5t28 91.5q7 46 8 91v5q1 42 -15 81q-16 41 -45 72q-29 32 -82 50 q-50 18 -117 17h-7l-113 -2z" />
<glyph unicode="C" horiz-adv-x="1341" d="M155 454q-7 44 -7 93q0 86 22 186q27 126 82 236.5t125.5 190.5t152 143t166.5 101t163.5 57.5t146.5 19.5q253 0 340 -146l55 129h61l-90 -415h-53q0 177 -79.5 274.5t-244.5 97.5q-150 0 -281 -187.5t-198 -498.5l-2 -4q-31 -155 -31 -279q0 -40 3 -76 q13 -150 75.5 -235.5t159.5 -85.5q105 0 191 24t153 72.5t116 101.5t103 130l49 -21q-63 -115 -167 -201.5t-224 -130.5t-240 -44q-88 0 -174.5 27.5t-167 84.5t-133 145.5t-72.5 210.5z" />
<glyph unicode="D" horiz-adv-x="1560" d="M16 -4l9 39l155 22l283 1344l-152 18l13 43h573q181 0 325 -58t230 -155t120 -227q18 -69 17 -141q0 -64 -14 -131q-37 -179 -130 -322.5t-223.5 -236.5t-290 -142t-335.5 -49h-272zM489 61l95 -2h11q110 0 206 39q101 41 172.5 108.5t129 160.5t92 185t56.5 191 q17 77 19 153v27q0 61 -9 123q-11 75 -42.5 139t-79 113.5t-123 77t-170.5 27.5l-70 -2z" />
<glyph unicode="E" horiz-adv-x="1298" d="M16 -4l9 39l155 22l283 1344l-152 18l13 43h1067l-78 -383h-70l12 64q7 34 7 64q0 87 -63 135q-82 62 -247 61h-10l-166 -2l-137 -637q236 7 272 168l9 41h65l-100 -475h-68l8 41q5 22 5 40q0 55 -40 85q-53 40 -163 43l-138 -646l234 -2h11q166 -1 275 61 q113 64 142 199l14 64h68l-82 -383h-887z" />
<glyph unicode="F" horiz-adv-x="1226" d="M16 -4l9 39l155 22l283 1344l-152 18l13 43h1126l-76 -383h-71l12 64q8 36 8 66q1 85 -63 133q-84 62 -249 61h-10l-225 -2l-137 -637h76h12q117 0 189 37q76 39 96 131l8 41h72l-103 -475h-69l8 41q4 21 4 40q0 61 -46 91q-57 37 -172 37h-12h-75l-138 -646l152 -16 l-10 -49l-307 4z" />
<glyph unicode="G" horiz-adv-x="1624" d="M160 454q-10 51 -10 108q0 80 20 171q32 151 110.5 278.5t177 212t213 144.5t220.5 86.5t199 26.5q147 0 260.5 -33.5t158.5 -71.5l43 88h64l-80 -374h-53q-9 160 -109 252t-293 92q-186 0 -341.5 -193t-223.5 -506l-2 -4q-27 -141 -27 -256q0 -58 7 -110 q20 -155 97.5 -243.5t194.5 -88.5q68 0 124 15.5t89.5 36.5t58 48.5t34.5 46.5t14 35l70 324l-150 39l10 45l310 -7l288 9l-8 -41l-141 -41l-78 -377q-93 -77 -275 -128.5t-358 -51.5q-97 0 -193.5 27.5t-186.5 84.5t-149.5 145.5t-84.5 210.5z" />
<glyph unicode="H" horiz-adv-x="1705" d="M16 -4l9 39l155 22l283 1344l-152 18l13 43l301 -4l309 4l-10 -43l-148 -18l-137 -645h623l137 645l-148 18l13 43l299 -4l305 4l-10 -43l-146 -18l-285 -1340l144 -26l-8 -39l-303 4l-304 -4l9 39l151 22l131 629h-624l-134 -625l142 -26l-8 -39l-299 4z" />
<glyph unicode="I" horiz-adv-x="765" d="M16 -4l9 39l155 22l283 1344l-152 18l13 43l301 -6l309 6l-10 -43l-148 -18l-287 -1340l142 -26l-8 -39l-299 4z" />
<glyph unicode="J" horiz-adv-x="944" d="M-47 106q11 54 52.5 95t92.5 41q38 0 60.5 -19t31 -46t16.5 -54.5t26 -46.5t51 -19q118 0 202 359l209 985l-147 18l12 43l303 -6l305 6l-10 -43l-156 -22l-174 -834q-57 -262 -233 -418.5t-444 -156.5q-98 0 -154 28q-46 23 -46 67q0 11 3 23z" />
<glyph unicode="K" horiz-adv-x="1587" d="M16 -4l9 39l155 22l283 1344l-152 18l13 43l301 -6l309 6l-10 -43l-148 -18l-166 -778l723 739l2 33l-133 8l17 59l239 -4l211 4l-12 -57l-162 -19l-539 -516l424 -796l113 -25l-12 -43l-291 -2l-340 -2l10 41l148 25l4 22l-287 557l-139 -133l-97 -453l142 -26l-8 -39 l-299 4z" />
<glyph unicode="L" horiz-adv-x="1312" d="M16 -4l9 39l155 22l283 1344l-152 18l13 43l301 -6l309 6l-10 -43l-148 -18l-287 -1340h271h8q80 -1 148 19q72 20 132 63t103.5 114.5t65.5 168.5l14 63h63l-104 -489h-866z" />
<glyph unicode="M" horiz-adv-x="1970" d="M14 -4l9 39l165 22l256 1219q4 21 4.5 38t-3.5 30t-10 23.5t-16.5 18t-21 13t-26 9.5t-29 6t-31.5 5l13 43h290l-75 -186l-2 -10l77 196l367 -1110l737 1110h414l-10 -43l-146 -18l-284 -1340l141 -26l-8 -39l-295 4l-309 -4l8 39l153 22l234 1119l-770 -1176h-53 l-312 1010l-205 -949l164 -26l-8 -39l-199 4z" />
<glyph unicode="N" horiz-adv-x="1529" d="M16 -4l9 39l165 22l256 1219q4 21 4.5 38t-4 30t-10.5 23.5t-17 18t-21.5 13t-26 9.5t-29 6t-31.5 5l13 43l276 -6l674 -1057l213 998l-174 26l8 39l209 -4l221 4l-8 -39l-164 -22l-293 -1401h-117l-675 1049l-213 -988l161 -26l-6 -39l-205 4z" />
<glyph unicode="O" horiz-adv-x="1665" d="M170 731q45 213 171 383t319.5 269.5t420.5 99.5q128 0 236.5 -37.5t184.5 -104.5t126 -161t60 -207q3 -34 4 -70q0 -82 -17 -172q-34 -159 -116.5 -296.5t-200 -238t-271 -157.5t-323.5 -57q-215 0 -367 98t-212 270q-34 98 -34 208q0 83 19 173zM480 454q0 -14 -1 -29 q-1 -106 23 -191q26 -96 95 -148.5t177 -52.5q131 0 243.5 92.5t189 248t118.5 357.5q32 154 36 278q1 17 1 33q0 104 -23 188q-26 96 -94 149t-174 53q-101 0 -191 -53.5t-159 -148.5t-121 -221.5t-84 -277.5q-32 -153 -36 -277z" />
<glyph unicode="P" horiz-adv-x="1411" d="M16 -4l9 39l155 22l131 627l152 717l-152 18l13 43h641q315 0 469 -114q122 -91 122 -225q0 -34 -8 -70q-27 -134 -143 -234.5t-276 -149t-341 -48.5h-180l-119 -560l142 -26l-8 -39l-299 4zM625 688l184 -2h14q71 0 131 18q66 20 110 55t78 84.5t53.5 98.5t31.5 105 q10 47 10 89q0 40 -9 78q-9 40 -31 73t-56 58t-86 38.5t-119 13.5l-162 -2z" />
<glyph unicode="Q" horiz-adv-x="1619" d="M170 731q45 213 171 383t319.5 269.5t420.5 99.5q128 0 236.5 -37.5t184.5 -104.5t126 -161t60 -207q4 -34 4 -70q0 -82 -17 -172q-67 -309 -296.5 -516.5t-544.5 -230.5l-172 -86q80 -18 156 -53t123 -65.5t112 -53.5t135 -23t109 6t75 25q5 2 9 18t14 29.5t32 13.5 q28 0 37.5 -18.5t-10.5 -30.5q-3 -3 -30.5 -32t-43 -44.5t-47.5 -46t-57.5 -48t-57.5 -38t-63.5 -30t-60.5 -9.5q-99 0 -194 25t-157.5 56.5t-146 73.5t-141.5 62q-17 6 -35 6q-48 0 -107 -38q-35 34 -35 56q0 31 68 40l371 205q-201 10 -342 109.5t-195 266.5 q-30 93 -30 196q0 84 20 175zM480 454q-1 -15 -1 -29q0 -106 23 -191q27 -96 95.5 -148.5t176.5 -52.5q131 0 243.5 92.5t189 248t118.5 357.5q32 154 36 278q1 17 1 33q0 104 -23 188q-26 96 -94 149t-174 53q-101 0 -191 -53.5t-159 -148.5t-121 -221.5t-84 -277.5 q-33 -154 -36 -277z" />
<glyph unicode="R" horiz-adv-x="1589" d="M16 -4l9 39l155 22l283 1344l-152 18l13 43h594q284 0 434 -104q122 -85 122 -207q0 -28 -6 -57q-59 -282 -507 -351q0 -12 2 -12q157 -3 249 -97q86 -88 86 -218v-17l-6 -75q-3 -34 -3 -63q1 -79 23 -119q30 -54 99 -54q49 0 94 39l17 -25q-148 -114 -318 -114 q-124 0 -175 84.5t-54 249.5l4 79q3 28 3 57q0 24 -2 48q-5 54 -16 97t-37 70t-63 27h-143h-8h-88l-136 -639l142 -26l-8 -39l-299 4zM639 768h98h13q90 0 162 26q76 28 122.5 76.5t73 101.5t39.5 115q8 53 8 96q0 42 -16 81q-17 41 -45 72q-30 32 -82 50q-50 18 -116 17h-7 h-113z" />
<glyph unicode="S" horiz-adv-x="1175" d="M94 2l88 410l47 2q12 -86 23.5 -140.5t32.5 -105t51 -77.5t76.5 -42.5t111.5 -15.5q121 0 209.5 64t118.5 186q6 36 6.5 64t-12.5 56t-27 49.5t-38.5 43t-47 37.5t-51 34t-51.5 31t-49 28t-43 27q-88 56 -147.5 103.5t-105.5 100.5t-60 109q-7 28 -7 56q0 30 8 61 q24 94 86.5 172t144 126t171 74t172.5 26q100 0 178.5 -39t114.5 -86l47 108h63l-86 -393h-49q-5 160 -76 261.5t-196 101.5q-245 0 -303 -232q-6 -23 -7 -45q1 -25 9 -47q14 -42 51.5 -76.5t77.5 -61.5t93 -61.5t83 -60.5q84 -57 144.5 -106.5t112.5 -107.5q50 -58 70 -118 q11 -34 11 -66q0 -26 -6 -51q-28 -110 -87 -193t-139.5 -131.5t-172.5 -72.5t-195 -24q-124 0 -205.5 36.5t-130.5 126.5l-53 -141h-56z" />
<glyph unicode="T" horiz-adv-x="1325" d="M195 1065l92 397h1284l-86 -397h-62l11 61q10 46 10 85q0 80 -45 125q-65 65 -201 65h-8h-103l-284 -1344l141 -18l-12 -43l-297 6l-305 -6l10 43l145 18l283 1344h-121h-8q-135 0 -229 -65q-97 -67 -131 -210l-13 -61h-71z" />
<glyph unicode="U" horiz-adv-x="1579" d="M213 282q-10 36 -10 76.5t10 85.5l201 957l-152 18l12 43l304 -6l307 6l-11 -43l-147 -18l-203 -952q-12 -56 -12 -103q0 -105 59 -169q86 -93 250 -93q399 0 479 385l199 932l-141 18l10 43l186 -6l191 6l-8 -43l-152 -18l-196 -936q-34 -153 -129.5 -260.5t-228.5 -158 t-294 -50.5q-93 0 -178 17.5t-157 53.5t-120.5 89.5t-68.5 125.5z" />
<glyph unicode="V" horiz-adv-x="1462" d="M268 1421l13 39l323 -4l330 4l-12 -39l-166 -22l86 -1051l643 1051l-146 22l15 39l184 -4l191 4l-13 -39l-151 -26l-715 -1164l2 -14l-57 -78l-86 -139h-158l-148 1395z" />
<glyph unicode="W" horiz-adv-x="2074" d="M268 1421l13 43l372 -4l258 2l-12 -51l-149 -22l-19 -19l90 -1057l549 1149h103l221 -1143l379 1055l4 17l-172 26l10 43l207 -4l217 4l-12 -47l-148 -29l-520 -1384h-258l-170 979l-475 -979h-234l-135 1386z" />
<glyph unicode="X" horiz-adv-x="1515" d="M0 -6l10 39l135 26l551 607l-4 14l-254 721l-125 26l11 39l284 -4l336 4l-10 -39l-143 -22l151 -469l422 469l-137 22l10 39l178 -4l205 4l-10 -39l-135 -26l-506 -549l22 -68l269 -725l124 -26l-12 -39l-311 4l-328 -4l12 39l150 22l-172 527l-465 -527l135 -22l-10 -39 l-184 4z" />
<glyph unicode="Y" horiz-adv-x="1468" d="M272 1427l9 39l346 -4l254 4l-9 -39l-149 -22l229 -709l482 682l4 25l-138 22l9 41l250 -4l176 4l-9 -41l-133 -26l-614 -801l-113 -537l140 -26l-9 -39l-235 4l-371 -4l8 39l154 22l117 551l-277 793z" />
<glyph unicode="Z" horiz-adv-x="1271" d="M41 -2l14 80l914 1319h-242h-17q-39 0 -60.5 -0.5t-61 -4.5t-64 -11.5t-58 -23t-56 -37.5t-45.5 -57t-39 -79l-23 -68l-65 4l98 340h1001l-12 -51l-922 -1341l367 2q148 0 247 74t116 159l14 70l74 -2l-91 -373h-1089z" />
<glyph unicode="[" horiz-adv-x="692" d="M86 -309l373 1894h409l-8 -43l-180 -18l-346 -1768l174 -26l-8 -39h-414z" />
<glyph unicode="\" horiz-adv-x="933" d="M272 1497h86l359 -1718h-90z" />
<glyph unicode="]" horiz-adv-x="692" d="M-86 -309l8 43l178 18l346 1768l-165 26l6 39h403l-371 -1894h-405z" />
<glyph unicode="^" horiz-adv-x="655" d="M139 885l334 571h94l107 -571h-99l-83 471l-259 -471h-94z" />
<glyph unicode="_" horiz-adv-x="974" d="M-68 -176l17 88h854l-19 -88h-852z" />
<glyph unicode="`" horiz-adv-x="563" d="M334 1419q9 34 39 54.5t61 13.5q35 -8 43 -39l105 -256l-50 -35l-186 197q-24 30 -12 65z" />
<glyph unicode="a" horiz-adv-x="1187" d="M80 410q38 133 102.5 243.5t135.5 181t149 119.5t144 69.5t120 20.5q52 0 82.5 -21t48.5 -71l51 72h254l-215 -741q-29 -107 -29 -151v-8q3 -42 42 -42q46 0 95 50.5t95 139.5l41 -18q-59 -121 -176 -199q-100 -67 -204 -67q-17 0 -34 2q-72 4 -108 46q-35 41 -35 102 q0 62 20 143l21 71q-31 -65 -68 -122.5t-86 -115t-109 -91t-122 -33.5q-154 0 -210 118q-29 62 -29 142q0 72 24 160zM385 438q-37 -135 -36 -212q0 -103 65 -103q40 0 85 38t80.5 89t72 120.5t56.5 113.5t37 87l48 158q21 74 21 126q0 120 -114 120q-71 0 -154.5 -132 t-160.5 -405z" />
<glyph unicode="b" horiz-adv-x="1132" d="M106 342l312 1100l-121 20l22 62l426 24l-210 -743q74 112 162.5 175.5t164.5 63.5q94 0 159 -39.5t95 -108t30 -158.5v-3q0 -89 -30 -190q-21 -95 -79 -190t-143 -175t-204 -130t-248 -50q-21 0 -44.5 2t-53 7.5t-58.5 14.5t-58 23t-53.5 32.5t-43.5 44.5t-29 57 q-10 30 -11 69q0 43 15 92zM381 136q17 -78 82 -77q57 0 113 46t100.5 120.5t78.5 155t58 164.5q52 188 52 287q0 112 -66 112q-70 0 -161.5 -89.5t-154.5 -227.5l-84 -301q-24 -75 -24 -135q0 -30 6 -55z" />
<glyph unicode="c" horiz-adv-x="952" d="M92 362q-1 14 -2 27q0 46 12 90q25 105 76.5 204t123.5 180.5t169 131t203 49.5q93 0 162 -33.5t92 -101.5q9 -22 10 -50q0 -11 -2 -21q-5 -40 -19 -75.5t-44.5 -60t-69.5 -24.5q-53 0 -83 40q-22 29 -21 64q0 13 3 27q2 14 8 28t10.5 23.5t16.5 25.5t17.5 22t24 26 t24.5 27q-35 24 -107 24q-171 0 -288 -498q-12 -72 -13 -134q0 -85 24 -149q40 -110 146 -110q90 0 178.5 57.5t155.5 176.5l37 -15q-74 -148 -201.5 -240.5t-253.5 -92.5q-71 0 -133 21t-106.5 57t-79 85t-50.5 104t-20 115z" />
<glyph unicode="d" horiz-adv-x="1226" d="M71 325q4 72 25 148q29 103 86 201.5t136.5 182.5t188 135.5t226.5 51.5q80 0 135 -49l107 447l-125 20l20 62l424 24l-301 -1267q-17 -61 -24 -97.5t-6 -60t11.5 -32.5t31.5 -9q89 0 190 190l39 -18q-57 -121 -176 -199q-102 -67 -205 -67q-17 0 -35 2q-70 4 -106.5 45 t-36.5 103t22 138q-73 -137 -165 -216.5t-168 -79.5q-78 0 -137.5 27t-93.5 74t-50 109q-13 50 -14 107q0 14 1 28zM401 473q-47 -165 -48 -259q0 -122 81 -122q69 0 165 118.5t157 301.5l61 266l-4 -6q11 40 13 76v10q0 30 -8 58q-10 32 -37 50.5t-68 18.5q-94 0 -169 -132 t-143 -380z" />
<glyph unicode="e" horiz-adv-x="966" d="M84 342q2 70 22 141q29 102 85.5 199.5t136 179.5t187.5 132t226 50q136 0 214 -58q58 -43 58 -113q0 -24 -7 -50q-16 -66 -70 -121.5t-121.5 -91t-148 -62t-142.5 -39t-112 -17.5q-2 -4 -2 -9q-20 -73 -25 -140q-2 -21 -1 -41q0 -44 7 -84q11 -58 47.5 -92t96.5 -34 q88 0 180 54.5t164 168.5l36 -16q-93 -144 -228.5 -231.5t-262.5 -87.5q-89 0 -157 30t-107 80q-38 51 -58 116q-18 59 -18 122v14zM426 541q39 11 69 22t72.5 34.5t73 53t60 78.5t44.5 109q8 35 8 61q-1 25 -7 43q-14 38 -48 37q-76 0 -140.5 -108t-131.5 -330z" />
<glyph unicode="f" horiz-adv-x="610" d="M-352 -403q5 21 29.5 35t64.5 14q23 0 41.5 -12t28.5 -27t26.5 -27t36.5 -12q44 0 93.5 101.5t97.5 318.5l184 954h-135l16 64l135 18l8 37q45 218 184.5 348.5t313.5 130.5q86 0 150 -35t63 -98q1 -29 -27.5 -49.5t-70.5 -22.5h-7q-49 0 -69 41q-13 26 -13 60q0 20 5 43 q-8 12 -49 12t-85 -79t-83 -249l-29 -139h227l-22 -82h-221l-160 -807q-61 -292 -221 -464.5t-400 -172.5q-55 0 -90 31q-25 23 -25 49q0 9 3 19z" />
<glyph unicode="g" horiz-adv-x="1034" d="M-94 -283q13 51 52 88.5t129 72.5t235 63q-176 61 -176 183q0 17 4 36q21 117 219 207q-128 35 -193 125q-50 68 -50 151q0 26 5 53q30 147 173 247.5t343 100.5q73 0 148 -20l362 20l-22 -92h-197q57 -47 80 -114q15 -42 15 -87q0 -27 -5 -55q-27 -145 -170.5 -245.5 t-345.5 -100.5q-24 0 -70 4q-63 -63 -69 -100q-1 -7 -1 -13q0 -29 30 -52q36 -28 98 -48l155 -41q166 -44 249 -118q68 -60 68 -136q0 -17 -3 -34q-13 -84 -110 -165t-232.5 -130t-259.5 -49q-92 0 -178 16t-154.5 46t-104.5 78q-27 36 -27 78q0 15 3 31zM152 -262 q-3 -18 -3 -35q0 -68 54 -117q66 -59 171 -59h7q321 4 354 170q3 16 3 31q0 112 -150 145l-187 43q-6 1 -14.5 4t-11.5 4q-48 -14 -83.5 -27.5t-58.5 -29.5t-37 -28t-23 -32t-12.5 -32t-8.5 -37zM442 441q27 -40 78 -40q66 0 122 83.5t85 211.5q15 84 16 150v5q0 62 -26 101 q-27 41 -80 41q-70 0 -123.5 -83t-83.5 -214q-15 -81 -15 -145q0 -69 27 -110z" />
<glyph unicode="h" horiz-adv-x="1269" d="M74 0l356 1442l-121 20l23 62l364 24l-184 -870q95 169 219.5 267.5t226.5 98.5q129 0 190 -81q34 -45 34 -116q0 -56 -21 -128l-127 -438q-31 -110 -31 -154v-5q2 -42 41 -42q48 0 97.5 50.5t95.5 139.5l41 -18q-60 -121 -178 -199q-102 -67 -205 -67q-17 0 -35 2 q-70 4 -105 46q-34 41 -34 102q0 63 20 145l119 409q27 86 27 139q0 86 -70 86q-82 0 -190 -149t-178 -387l-80 -379h-295z" />
<glyph unicode="i" horiz-adv-x="667" d="M122 141q0 63 19 140l166 647l-117 20l25 62l416 24l-195 -753q-33 -112 -33 -154q0 -45 43 -45q45 0 94.5 50.5t96.5 139.5l41 -18q-61 -121 -178 -199q-100 -67 -204 -67q-17 0 -34 2q-69 4 -104.5 46t-35.5 105zM397 1348q17 50 69.5 77t129.5 27q76 0 115 -28 q27 -19 27 -48q0 -13 -5 -28q-13 -51 -66.5 -80t-129.5 -29q-75 -1 -114 29q-29 22 -29 56q0 12 3 24z" />
<glyph unicode="j" horiz-adv-x="643" d="M-385 -340q36 135 176 135q38 0 56 -20t20 -48t2 -56t10 -48t37 -20q116 0 199 358l215 967l-121 20l20 62l422 24l-198 -925q-57 -261 -230 -418.5t-426 -157.5q-86 0 -139 39q-45 32 -45 72q0 8 2 16zM395 1348q35 104 201 104q74 0 113 -28q27 -19 27 -48 q0 -13 -5 -28q-13 -51 -67 -80t-132 -29q-74 0 -112 29q-28 22 -28 56q0 11 3 24z" />
<glyph unicode="k" horiz-adv-x="1130" d="M66 0l352 1442l-125 20l22 62l426 24l-194 -786q85 131 193 208t214 77q98 1 146 -51q30 -33 30 -83q0 -29 -10 -65q-26 -90 -109.5 -163t-201.5 -124l98 -332q25 -75 42.5 -97.5t62.5 -22.5q28 0 73 41t86 129l39 -15q-53 -120 -164 -196t-225 -76q-78 0 -115 38.5 t-67 159.5l-66 277l-108 -45l-105 -422h-294zM477 471l185 92q58 35 109 106.5t67 131.5q10 35 10 60q0 19 -5 31q-13 30 -50 30q-50 0 -111 -61t-108 -139.5t-74 -152.5z" />
<glyph unicode="l" horiz-adv-x="657" d="M129 281l291 1161l-123 20l22 62l426 24l-321 -1267q-31 -110 -32 -153q0 -3 1 -5q2 -41 39 -41q48 0 98.5 51t94.5 139l41 -18q-57 -121 -175 -199q-101 -67 -204 -67q-17 0 -35 2q-70 4 -106 46q-36 41 -36 103q0 63 19 142z" />
<glyph unicode="m" horiz-adv-x="1818" d="M37 0l254 928l-117 20l21 62l421 24l-94 -342q97 165 206.5 258.5t205.5 93.5q124 0 180 -76q32 -43 32 -112q0 -51 -18 -117q89 144 194.5 224.5t201.5 80.5q122 0 178 -81q31 -44 31 -113q0 -57 -21 -131l-129 -438q-16 -61 -23 -97t-6 -60.5t11 -33t30 -8.5 q46 0 95.5 50.5t95.5 139.5l41 -18q-59 -121 -177 -199q-101 -67 -204 -67q-17 0 -35 2q-69 4 -105 46q-35 41 -34 102q0 62 20 143l125 438q21 76 21 123q0 73 -52 73q-70 0 -163 -113t-160 -290l-143 -512h-295l215 739q18 63 18 103q0 73 -59 73q-81 0 -190.5 -157 t-174.5 -389h-2l-100 -369h-295z" />
<glyph unicode="n" horiz-adv-x="1247" d="M53 0l236 928l-119 20l20 62l422 24l-88 -342q87 164 198 258t212 94q61 0 108 -18.5t78 -57.5q32 -38 37 -100q1 -11 1 -23q0 -54 -19 -126l-127 -438q-33 -112 -33 -154q0 -45 43 -45q45 0 95 51t95 139l39 -18q-59 -121 -175 -199q-100 -67 -202 -67q-17 0 -34 2 q-72 4 -108 46q-34 40 -34 100v5q2 63 23 140l123 438q18 66 18 109q0 87 -71 87q-72 0 -166.5 -130.5t-161.5 -335.5l-115 -449h-295z" />
<glyph unicode="o" horiz-adv-x="1128" d="M104 471q35 159 121.5 289.5t210 207t258.5 76.5q140 0 242 -66t143 -179q24 -65 23 -137q0 -53 -12 -109q-34 -159 -122.5 -288.5t-219 -206t-277.5 -76.5q-131 0 -225 66t-132 178q-22 65 -22 136q0 53 12 109zM364 300q-2 -30 -2 -58q0 -43 6 -80q8 -61 36.5 -95 t76.5 -34q92 0 171 146t124 374q21 93 27 171q2 32 2 62q-1 42 -5 78q-8 62 -38 95.5t-80 33.5q-60 0 -116.5 -71.5t-99.5 -185t-77 -265.5q-19 -94 -25 -171z" />
<glyph unicode="p" horiz-adv-x="1142" d="M-178 -514l6 41l145 20l310 1358l-127 29l16 55l420 45l-53 -258q75 124 172 195t192 71q158 0 219 -148q32 -77 32 -179q0 -93 -26 -205q-22 -95 -72 -186.5t-123.5 -170.5t-178 -127.5t-222.5 -48.5q-99 0 -159 54l-107 -480l140 -24l-13 -41l-280 6zM324 106l98 144 q-11 -59 -11 -104t24 -76q25 -33 75 -33q110 0 186 123t131 350q37 158 37 254q0 145 -86 145q-71 0 -153 -97.5t-133 -250.5l-76 -340l-43 -190q-34 34 -49 75z" />
<glyph unicode="q" horiz-adv-x="1171" d="M82 296q0 91 29 193q21 95 78.5 190t141.5 175t199.5 130t239.5 50q47 0 92 -30t78 -76l184 112l105 -8q-4 -11 -42.5 -114t-58.5 -177l-276 -1196l135 -24l-12 -41l-279 6l-290 -6l8 41l145 20l186 778q-84 -154 -197.5 -241.5t-219.5 -87.5q-79 0 -136 40t-83.5 107.5 t-26.5 158.5zM377 225q10 -106 84 -106q82 0 188.5 135t157.5 330v-2l45 182l-2 -2q10 49 10 87q0 126 -110 126q-52 0 -104.5 -46t-95.5 -120.5t-77 -155t-59 -164.5q-39 -130 -39 -225q0 -20 2 -39z" />
<glyph unicode="r" horiz-adv-x="782" d="M74 0l219 928l-117 20l21 62l389 24l-76 -311q19 35 32.5 58t40.5 65.5t51 72t53.5 59.5t60 46t59.5 16q69 0 107 -41q26 -28 26 -67q0 -18 -6 -39q-13 -49 -52 -82t-98 -33q-33 0 -56.5 10.5t-34.5 22.5t-31 39q-42 -22 -86 -92t-76 -154l-135 -604h-291z" />
<glyph unicode="s" horiz-adv-x="909" d="M92 125q-6 22 -6 41q0 30 15 53q25 37 89 37q27 0 39 -31q8 -22 9 -49q0 -11 -2 -23q-5 -41 -23 -69q59 -53 186 -53q49 0 91.5 52.5t64.5 139.5q3 22 5 38t-4.5 32.5t-12.5 28t-19.5 24.5t-24.5 21.5t-28 19t-30 18t-30.5 17.5t-29.5 18q-45 31 -71 51t-52 45.5 t-37.5 47t-18.5 51.5q-5 20 -5 42q-1 11 1 22q4 34 15 79q20 81 96 142t167 88.5t181 27.5q71 0 146.5 -33.5t89.5 -87.5q7 -25 7 -46q0 -35 -18 -62q-30 -43 -85 -43q-26 0 -38.5 15t-12.5 43.5t6.5 59.5t19.5 74q-45 33 -121 33q-70 0 -115.5 -43t-64.5 -121 q-4 -17 -5 -32t3.5 -29t9 -25t16 -23t20 -20t25.5 -19.5t27.5 -18.5t31.5 -20t32 -20q105 -74 129 -95q70 -63 72 -144v-6q0 -36 -11 -80q-24 -92 -92.5 -162.5t-157 -106.5t-180.5 -36q-104 0 -190.5 36t-108.5 101z" />
<glyph unicode="t" horiz-adv-x="698" d="M94 156q-2 12 -2 25q0 38 14 85l168 676h-133l15 55l139 27l51 201l305 35l-59 -236h268l-22 -82h-267l-165 -653q-24 -75 -23 -124v-13q4 -52 49 -58q8 -1 15 -1q53 -1 111 43q66 50 112 132l32 -26q-57 -106 -174 -176t-229 -72h-7q-29 0 -58 7q-32 8 -64 27t-51 50.5 t-25 77.5z" />
<glyph unicode="u" horiz-adv-x="1251" d="M127 279l164 659l-117 25l19 61l419 20l-190 -765q-15 -61 -14 -99q0 -26 6 -40q16 -38 75 -38q69 0 160.5 131.5t153.5 335.5l90 359l-100 20l24 62l395 24l-188 -753q-26 -105 -26 -148v-12q4 -39 44 -39q46 0 94.5 50.5t90.5 139.5l41 -20q-52 -120 -168 -198 q-99 -66 -201 -66q-17 0 -35 2q-68 4 -106 46q-36 40 -40 104q-1 11 -1 23q0 55 14 118l2 8q-83 -148 -184 -232t-195 -84q-137 0 -202 72q-40 45 -40 124q0 48 15 110z" />
<glyph unicode="v" horiz-adv-x="921" d="M53 954l19 62l372 39q7 -34 23.5 -117.5t22.5 -115.5t18 -100.5t17.5 -109t12.5 -101.5t11 -118.5t6 -120.5q186 260 285 506q-18 36 -32 94q-9 35 -9 62q0 17 4 31q10 47 39 80.5t57 33.5q54 -1 79 -39q21 -32 20 -74v-18q-5 -54 -33 -106q-96 -198 -189.5 -348.5 t-218.5 -305.5v-8l-162 -180h-116q-6 145 -24 304t-34 263t-50 305q-2 15 -3.5 23t-3.5 20.5t-4 22.5z" />
<glyph unicode="w" horiz-adv-x="1435" d="M66 954l18 62l383 39q15 -127 23 -264t9.5 -203.5t2.5 -229.5l354 666h154q54 -438 63 -760q157 255 260 549q-52 54 -52 117q0 19 5 39q12 51 43.5 77.5t77.5 26.5q63 1 77 -77q4 -22 3 -45q0 -55 -25 -109q-86 -196 -175 -348.5t-209 -319.5v-24l-130 -150h-133 q0 104 -5.5 199.5t-18.5 242.5t-19 228l-393 -670h-127q-12 542 -80 938z" />
<glyph unicode="x" horiz-adv-x="1083" d="M-33 59q-2 11 -2 22q1 33 23 59q30 36 96 36h8q38 0 64 -9q28 -10 75 -38q51 34 113 99.5t113 140.5l-62 247q-22 112 -49.5 191t-77.5 141l-100 10l20 68l334 27q43 -46 71 -119.5t62 -200.5q54 91 106.5 154t125.5 119q45 34 101 44q20 4 38 3q32 0 58 -11 q42 -18 44 -63q1 -6 1 -12q0 -32 -27 -60q-32 -33 -80 -41q-31 -4 -52 0t-46.5 16t-46.5 17q-48 -30 -103.5 -93t-101.5 -136l80 -353q44 -146 62.5 -181.5t59.5 -35.5q28 0 51 15t60 55l29 -18q-55 -77 -139.5 -124.5t-147.5 -47.5q-91 0 -146 56.5t-92 201.5l-16 67 q-63 -96 -124.5 -163.5t-141.5 -121.5q-45 -27 -99 -30h-15q-45 0 -79 16q-40 20 -47 53z" />
<glyph unicode="y" horiz-adv-x="948" d="M-172 -393q-1 8 -1 15q0 34 29 62q37 35 89 35q25 0 43.5 -9.5t31.5 -31t20.5 -40t18.5 -50.5q3 -8 4 -12q54 0 107 68.5t78 171.5l55 184h-2q-2 80 -7.5 166.5t-10 142t-17.5 162.5t-17.5 140.5t-23.5 168t-22 158.5l-109 16l19 62l374 39q30 -185 42.5 -271.5 t22.5 -215.5t11 -279q196 254 283 475q-22 41 -42 104q-14 43 -14 73q0 13 3 24q10 45 43.5 79.5t60.5 34.5q52 0 77 -39q21 -32 21 -76q0 -8 -1 -16q-4 -54 -31 -106q-109 -233 -233 -406.5t-349 -435.5h-2l-62 -186q-41 -146 -132 -232t-167 -86q-44 0 -80.5 8.5t-69 35 t-40.5 67.5z" />
<glyph unicode="z" horiz-adv-x="950" d="M-4 -16l4 84l698 700h-274q-117 0 -205 -137l-55 12q22 32 43 80.5t31 85.5l53 215h719l2 -27l-770 -774q32 5 63 5q43 0 85 -9q73 -15 119 -39.5t93.5 -46.5t75.5 -22q17 0 30.5 2t21.5 3t17 6.5t11 6.5t10 9l8 7q-21 32 -21 70q0 19 5 39q22 88 78 88q51 0 52 -54 q0 -19 -7 -44q-8 -32 -41.5 -84t-82 -105.5t-113 -92t-124.5 -38.5h-11q-61 0 -117 10q-60 12 -98.5 26t-101.5 24q-41 6 -88 6q-25 0 -51 -2z" />
<glyph unicode="{" horiz-adv-x="671" d="M51 573l8 33q186 46 220 432q18 269 150.5 409.5t371.5 178.5l8 -31q-132 -71 -195.5 -194t-87.5 -363q-2 -52 -22.5 -118.5t-54.5 -134t-89.5 -122t-119.5 -73.5q57 -19 91 -73.5t41.5 -122.5t1.5 -134.5t-24 -118.5q-67 -244 -52 -364.5t116 -192.5l-17 -30 q-111 19 -185 60.5t-115 111.5t-40 174t45 241q18 63 28.5 112t16 106.5t-1 98t-30 72.5t-64.5 43z" />
<glyph unicode="|" horiz-adv-x="491" d="M41 -344l360 1841h88l-360 -1841h-88z" />
<glyph unicode="}" horiz-adv-x="671" d="M-94 -416q132 71 194 192.5t88 364.5q2 52 22 118.5t54.5 134.5t89.5 122.5t119 73.5q-57 19 -90.5 73.5t-41 122t-1 134t24.5 118.5q67 244 53 365t-115 192l12 31q110 -19 184 -61t115 -112t40 -174t-44 -241q-113 -387 54 -432l-7 -33q-189 -46 -223 -432 q-20 -269 -152.5 -409t-369.5 -178z" />
<glyph unicode="~" horiz-adv-x="1337" d="M52 424q-9 41 11 84q55 155 192.5 266t270.5 111q102 0 186.5 -54.5t125.5 -148.5q14 -31 28 -53t38 -46.5t60 -37.5t83 -13q59 0 118.5 36t94.5 104q-4 8 -17 31t-18.5 40t-3.5 35q2 36 22.5 65t52.5 29q33 0 43 -40.5t-12 -83.5q-33 -101 -112.5 -189.5t-172.5 -138 t-172 -49.5q-107 0 -195 54t-138 148q-3 6 -18 31.5t-21.5 35.5t-23.5 30t-32.5 28.5t-40 16.5t-53.5 8q-58 0 -116.5 -35.5t-96.5 -103.5q4 -9 17 -31.5t19 -40t5 -35.5q-24 -94 -78 -94q-37 0 -46 41z" />
<glyph unicode="&#xa1;" horiz-adv-x="634" d="M61 -268q-20 -88 13 -140t108 -51q79 2 138 55t71 136l78 833q3 18 -33.5 26t-76 0.5t-44.5 -26.5zM303 926q10 50 55.5 78t108.5 28t100 -28.5t27 -77.5q-10 -51 -57 -84t-109 -33q-60 0 -95.5 33t-29.5 84z" />
<glyph unicode="&#xa2;" horiz-adv-x="978" d="M102 479q25 105 76.5 204t123.5 180.5t169 131t203 49.5q21 0 33 -2l69 230l70 -2l-72 -238q122 -30 154 -123q13 -31 8 -71.5t-19 -75.5t-44.5 -59.5t-69.5 -24.5q-45 0 -75 31t-30 73l-202 -673q30 -15 69 -15q90 0 178.5 57.5t155.5 176.5l37 -15 q-74 -148 -201.5 -240.5t-253.5 -92.5h-24l-60 -201h-80l66 213q-109 25 -182.5 102.5t-98 179.5t-0.5 205zM408 487q-37 -213 28 -321l252 819q-167 -13 -280 -498zM725 866q19 32 78 95q-16 10 -45 16z" />
<glyph unicode="&#xa3;" horiz-adv-x="1146" d="M-49 10l33 31h2l22 20q88 74 134 205t89 402h-135l17 82h131l6 41l16 122q41 265 175.5 413.5t363.5 148.5q94 0 159.5 -31t96.5 -70l37 88h59l-72 -362h-47q11 317 -164 317q-124 0 -184.5 -107.5t-91.5 -348.5l-14 -111q-3 -30 -17 -100h342l-16 -82h-346 q-76 -286 -279 -465q44 14 64 14q78 3 163.5 -13.5t145 -38.5t118 -40.5t87.5 -18.5q19 0 46 8.5t47 20t19 19.5q-48 71 -40 108q8 40 33 64t67 24q29 0 40 -27t3 -71q-9 -39 -40.5 -91.5t-75.5 -102t-102.5 -83.5t-113.5 -34q-83 -2 -238 30.5t-227 34.5q-42 0 -69 -2 l-224 -20z" />
<glyph unicode="&#xa5;" horiz-adv-x="1320" d="M211 362l14 76h422l33 158h-422l14 76h387l-253 729l-121 26l8 39l346 -4l254 4l-8 -39l-150 -22l230 -709l481 682l4 25l-137 22l8 41l250 -4l176 4l-8 -41l-133 -26l-559 -727h100l-14 -76h-142l-33 -158h142l-15 -76h-143l-63 -301l139 -26l-8 -39l-236 4l-371 -4 l9 39l153 22l66 305h-420z" />
<glyph unicode="&#xa6;" horiz-adv-x="491" d="M41 -344l154 784h88l-154 -784h-88zM260 772l141 725h88l-141 -725h-88z" />
<glyph unicode="&#xa7;" horiz-adv-x="1085" d="M-41 -481l74 383l47 2q9 -184 71 -267t203 -83q80 0 136.5 52t76.5 148q10 52 -1.5 94t-51 78.5t-63.5 53t-83 50.5q-26 16 -38 23q-181 89 -249 179.5t-44 216.5q25 126 117 213.5t213 128.5q-79 74 -101 155.5t-2 183.5q16 82 68.5 150t121.5 108.5t142 62.5t139 22 q96 0 165.5 -35.5t96.5 -73.5l41 94h52l-72 -364h-43q0 147 -68.5 238t-177.5 91q-101 0 -158 -40.5t-75 -129.5q-8 -39 4 -72t44 -62.5t63 -51t82.5 -53.5t80.5 -53q38 -27 65 -48t56.5 -46.5t48.5 -48t37.5 -49.5t28 -55t15.5 -61t5 -70.5t-8 -80.5q-26 -127 -113 -209 t-207 -115q172 -155 133 -354q-21 -103 -97.5 -179t-176.5 -111.5t-207 -35.5q-186 0 -305 133l-39 -112h-47zM301 575q-6 -33 4 -65.5t28 -56.5t53.5 -52.5t62.5 -46t72.5 -46.5t68.5 -44l57 -41q100 37 123 150q9 47 -4.5 88t-48 74.5t-67 57.5t-80 53.5t-68.5 45.5 q-29 15 -90 60q-87 -47 -111 -177z" />
<glyph unicode="&#xa8;" horiz-adv-x="927" d="M184 1397q6 34 36 55t71 21q38 0 61 -21.5t17 -54.5q-6 -32 -35 -50t-70 -18t-63.5 18t-16.5 50zM647 1393q6 34 36 54.5t71 20.5q38 0 60.5 -21t16.5 -54q-6 -32 -34.5 -50t-69.5 -18t-63.5 18t-16.5 50z" />
<glyph unicode="&#xaa;" horiz-adv-x="954" d="M211 901q21 90 105 143t276 84l113 21l18 84q41 190 -90 190q-65 0 -121 -47q19 -69 10 -110q-6 -34 -35 -54t-63 -20q-33 0 -48 25t-8.5 59t29.5 59q57 66 133.5 105t151.5 39q284 0 233 -254l-63 -328q-17 -86 22 -86q48 0 74 35l19 -15q-34 -42 -92 -69.5t-121 -24.5 q-124 11 -105 125l4 19q-39 -65 -102.5 -104.5t-132.5 -39.5q-105 0 -162 47.5t-45 116.5zM416 926q-11 -55 5 -76t54 -21q27 0 48 3.5t48 14t51 36.5t44 65l28 148l-104 -21q-155 -37 -174 -149z" />
<glyph unicode="&#xab;" horiz-adv-x="946" d="M82 381l6 33l399 387l35 -25l-270 -381l119 -383l-41 -18zM453 381l6 33l399 387l35 -25l-270 -381l118 -383l-41 -18z" />
<glyph unicode="&#xad;" horiz-adv-x="1036" d="M221 565l37 150h692l-37 -150h-692z" />
<glyph unicode="&#xaf;" horiz-adv-x="872" d="M276 1374l15 88h672l-17 -88h-670z" />
<glyph unicode="&#xb0;" horiz-adv-x="583" d="M221 1253q20 94 96 159t168 65q89 0 142.5 -65.5t34.5 -158.5q-17 -94 -94 -158.5t-171 -64.5q-87 0 -140 65t-36 158zM289 1253q-12 -65 23 -110t98 -45q61 0 117.5 46t68.5 109q12 65 -24.5 110.5t-100.5 45.5q-61 0 -116.5 -46.5t-65.5 -109.5z" />
<glyph unicode="&#xb1;" horiz-adv-x="974" d="M-52 2l17 88h854l-19 -88h-852zM76 559l18 109h377l70 356h106l-69 -356h370l-20 -109h-373l-70 -358h-106l70 358h-373z" />
<glyph unicode="&#xb2;" horiz-adv-x="729" d="M113 592l12 65q173 151 275 264.5t143.5 190.5t58.5 160q10 54 -17 88.5t-98 34.5t-145 -41q3 -9 12.5 -31t11.5 -29.5t6.5 -31t-1.5 -35.5q-6 -31 -35.5 -54.5t-65.5 -23.5q-47 0 -52.5 56.5t28.5 103.5q68 81 154 128.5t180 47.5q141 0 218.5 -59t55.5 -171 q-7 -36 -25.5 -71t-40.5 -64.5t-62.5 -64t-74 -59.5t-92.5 -62t-100.5 -61t-114.5 -66h414l20 41l31 -2l-76 -254h-620z" />
<glyph unicode="&#xb3;" horiz-adv-x="808" d="M125 723q-20 57 13.5 104t88.5 47q33 0 47.5 -26t6.5 -64q-8 -37 -48 -71q6 -31 52.5 -52.5t89.5 -21.5q82 0 140 51t77 154q19 95 -40.5 136.5t-191.5 20.5l-14 41l-6 11q73 12 126.5 30t84 37t50.5 47t28 50.5t14 56.5q13 62 -16.5 109t-98.5 47q-28 0 -63.5 -13.5 t-63.5 -38.5q1 -3 4.5 -12t4 -11.5t2.5 -10.5t2.5 -11.5t1 -11t0 -14t-2 -15t-3.5 -18.5q-14 -76 -99 -76q-50 0 -57 46.5t29 90.5q53 74 149 111t180 37q78 0 145.5 -20.5t110.5 -70.5t29 -122q-36 -168 -348 -221l2 -11q156 0 238.5 -60.5t66.5 -137.5q-13 -65 -58 -114.5 t-111 -78.5t-140.5 -43t-153.5 -14q-95 0 -172.5 40.5t-95.5 92.5z" />
<glyph unicode="&#xb4;" horiz-adv-x="563" d="M287 1192l202 256q21 30 58 39q35 7 58 -13.5t18 -54.5q3 -31 -37 -65l-264 -197z" />
<glyph unicode="&#xb6;" horiz-adv-x="1056" d="M158 1053q37 178 230 293.5t474 115.5h352l-6 -43l-143 -18l-264 -1344l137 -22l-8 -39l-137 4h-160l-227 -4l8 39l141 26l109 560q-168 5 -290.5 55.5t-182.5 148t-33 228.5zM475 946.5q-3 -47.5 5.5 -95.5t30 -82.5t64.5 -57.5t103 -25l137 707q-72 -8 -131 -41 t-97 -82t-62.5 -104.5t-35.5 -118.5q-11 -53 -14 -100.5zM621 49l110 4l111 568h-111zM745 686h109l139 711h-110z" />
<glyph unicode="&#xb7;" horiz-adv-x="413" d="M-6 627q9 51 55.5 83.5t110.5 32.5q58 0 94 -33t27 -83q-10 -50 -55.5 -78.5t-108.5 -28.5t-98 28.5t-25 78.5z" />
<glyph unicode="&#xb8;" horiz-adv-x="978" d="M199 -506l6 51q10 0 27.5 0.5t63 6.5t81.5 17t68.5 36.5t39.5 60.5q6 42 -21.5 59t-76.5 17q-54 0 -115 -21l-14 19l133 311h66l-70 -157q53 18 125 18q85 0 135.5 -46.5t34.5 -127.5q-11 -57 -43.5 -101.5t-75.5 -70t-93 -42.5t-97.5 -22.5t-86.5 -8t-63 -1.5z" />
<glyph unicode="&#xb9;" horiz-adv-x="561" d="M129 575l10 46l109 14l135 682h-133l10 45q144 7 215 104h174l-162 -827l111 -18l-10 -46l-232 5z" />
<glyph unicode="&#xba;" horiz-adv-x="858" d="M264 1118q33 157 148.5 261t273.5 104q152 0 231 -105.5t48 -259.5q-33 -165 -148.5 -273t-275.5 -108q-153 0 -231.5 110t-45.5 271zM460.5 989.5q-4.5 -58.5 1.5 -105.5t28 -73.5t59 -26.5q66 0 116.5 92.5t82.5 241.5q14 67 18.5 122.5t-1.5 100.5t-28 70t-59 25 q-69 0 -120.5 -89.5t-78.5 -228.5q-14 -70 -18.5 -128.5z" />
<glyph unicode="&#xbb;" horiz-adv-x="946" d="M10 18l269 381l-121 383l45 19l246 -387l-7 -33l-397 -387zM381 18l268 381l-121 383l45 19l246 -387l-6 -33l-397 -387z" />
<glyph unicode="&#xbc;" horiz-adv-x="1638" d="M201 575l10 46l108 14l136 682h-133l10 45q144 7 215 104h174l-162 -827l111 -18l-11 -46l-231 5zM217 0l1178 1462h88l-1178 -1462h-88zM780 225l8 47h3l639 619l126 -2l-118 -604h129l-11 -60h-131l-32 -174l108 -18l-8 -33l-231 4l-230 -4l8 33l109 16l33 176h-402z M883 285h311l72 374z" />
<glyph unicode="&#xbd;" horiz-adv-x="1753" d="M201 575l10 46l108 14l136 682h-133l10 45q144 7 215 104h174l-162 -827l111 -18l-11 -46l-231 5zM209 0l1177 1462h89l-1178 -1462h-88zM936 -2l12 65q173 151 275 264.5t143.5 190.5t58.5 160q10 54 -17 88.5t-97 34.5q-72 0 -146 -41q3 -9 12.5 -31t11.5 -29.5 t6.5 -31t-1.5 -35.5q-6 -31 -35 -54.5t-65 -23.5q-47 0 -53 56.5t28 103.5q68 81 154 128.5t180 47.5q141 0 218.5 -58.5t55.5 -170.5q-8 -42 -28.5 -81t-58.5 -78t-75 -70t-102 -72.5t-113 -70t-133 -77.5h414l21 41l30 -2l-76 -254h-620z" />
<glyph unicode="&#xbe;" horiz-adv-x="1890" d="M223 723q-20 57 14 104t89 47q33 0 47 -26t6 -64q-9 -38 -47 -71q6 -31 52 -52.5t89 -21.5q82 0 140 51t77 154q19 95 -40 136.5t-191 20.5l-15 41l-6 11q73 12 126.5 30t84 37t50.5 47t28 50.5t14 56.5q13 62 -16 109t-98 47q-28 0 -63.5 -13.5t-63.5 -38.5 q11 -33 13 -45t-5 -59q-14 -76 -98 -76q-33 0 -48 22t-9.5 53.5t28.5 61.5q53 74 149 111t181 37q78 0 145 -20.5t110 -70.5t29 -122q-36 -168 -348 -221l2 -11q156 0 238.5 -60.5t66.5 -137.5q-13 -65 -58 -114.5t-110.5 -78.5t-140 -43t-153.5 -14q-95 0 -173 40.5 t-96 92.5zM459 0l1177 1462h88l-1177 -1462h-88zM1024 225l8 47h2l639 619l127 -2l-119 -604h129l-10 -60h-131l-33 -174l109 -18l-8 -33l-232 4l-229 -4l8 33l109 16l32 176h-401zM1126 285h312l71 374z" />
<glyph unicode="&#xbf;" horiz-adv-x="987" d="M-12 -133q16 81 53 147t94.5 119t122.5 93.5t154 82.5l61 316q7 34 98 43t142 -14q25 -12 22 -29l-39 -217q-148 -64 -249 -201t-128 -279q-31 -153 0.5 -236t116.5 -83q55 0 98.5 10.5t92.5 44.5q-27 41 -40 92t-3 94q13 70 61.5 118t122.5 48q43 0 62 -41t9.5 -100.5 t-42.5 -110.5q-87 -101 -210.5 -163t-248.5 -62q-183 0 -282.5 82.5t-67.5 245.5zM514 928q10 50 54.5 78t109.5 28q62 0 97.5 -28.5t25.5 -77.5q-9 -51 -56.5 -84t-111.5 -33q-58 0 -93 33.5t-26 83.5z" />
<glyph unicode="&#xc0;" d="M-78 -4l8 39l150 26l887 1395h186l96 -1395l142 -26l-9 -39l-329 4l-310 -4l9 39l153 22l-16 392h-477l-248 -392l143 -22l-8 -39l-178 4zM465 532h420l-27 621zM692 1851q9 34 39 54.5t61 13.5q35 -8 43 -39l105 -256l-50 -35l-186 197q-24 30 -12 65z" />
<glyph unicode="&#xc1;" d="M-78 -4l8 39l150 26l887 1395h186l96 -1395l142 -26l-9 -39l-329 4l-310 -4l9 39l153 22l-16 392h-477l-248 -392l143 -22l-8 -39l-178 4zM465 532h420l-27 621zM850 1632l203 256q21 30 57 39q35 7 58 -13t18 -54q3 -31 -37 -66l-264 -197z" />
<glyph unicode="&#xc2;" d="M-78 -4l8 39l150 26l887 1395h186l96 -1395l142 -26l-9 -39l-329 4l-310 -4l9 39l153 22l-16 392h-477l-248 -392l143 -22l-8 -39l-178 4zM465 532h420l-27 621zM623 1569l283 223h65l188 -223h-104l-131 160l-203 -160h-98z" />
<glyph unicode="&#xc3;" d="M-78 -4l8 39l150 26l887 1395h186l96 -1395l142 -26l-9 -39l-329 4l-310 -4l9 39l153 22l-16 392h-477l-248 -392l143 -22l-8 -39l-178 4zM465 532h420l-27 621zM600 1579q9 102 72 163t145 44q61 -11 124.5 -49t127.5 -51q49 -8 88 22t45 88l29 -10q-9 -102 -72 -163 t-145 -44q-62 12 -124.5 50t-123.5 50q-53 8 -92 -22t-45 -88z" />
<glyph unicode="&#xc4;" d="M-78 -4l8 39l150 26l887 1395h186l96 -1395l142 -26l-9 -39l-329 4l-310 -4l9 39l153 22l-16 392h-477l-248 -392l143 -22l-8 -39l-178 4zM449 1782q9 51 55 83.5t110 32.5q58 0 94 -33t27 -83q-10 -50 -55.5 -78.5t-108.5 -28.5t-97.5 28.5t-24.5 78.5zM465 532h420 l-27 621zM913 1778q9 51 55.5 83.5t110.5 32.5q58 0 94 -33t27 -83q-10 -50 -55.5 -78.5t-108.5 -28.5t-98 28.5t-25 78.5z" />
<glyph unicode="&#xc5;" d="M-78 -4l8 39l150 26l887 1395h186l96 -1395l142 -26l-9 -39l-329 4l-310 -4l9 39l153 22l-16 392h-477l-248 -392l143 -22l-8 -39l-178 4zM465 532h420l-27 621zM746 1741q15 71 75 121.5t129 50.5q67 0 109 -51.5t27 -120.5q-12 -70 -72 -121t-131 -51q-66 0 -107.5 51 t-29.5 121zM813 1741q-8 -41 17 -73t65 -32q39 0 78 32.5t45 72.5q9 41 -16 72.5t-66 31.5q-39 0 -76.5 -31.5t-46.5 -72.5z" />
<glyph unicode="&#xc6;" horiz-adv-x="2037" d="M-76 -4l8 39l125 26l1160 1401h933l-69 -383h-64l11 64q27 135 -53.5 198.5t-241.5 61.5l-183 -2l-125 -637h5q238 -3 274 168l8 41h64l-93 -475h-63l6 41q16 92 -39.5 131t-169.5 37h-2l-125 -646l242 -2q161 -2 266.5 61.5t132.5 198.5l15 64h59l-76 -383h-882l-240 -4 l8 39l143 22l82 430h-538l-352 -430l135 -22l-9 -39l-167 4zM571 571h486l151 772z" />
<glyph unicode="&#xc7;" horiz-adv-x="1341" d="M154.5 456q-19.5 121 15.5 277q27 126 82 236.5t125.5 190.5t152 143t166.5 101t163.5 57.5t146.5 19.5q253 0 340 -146l55 129h61l-90 -415h-53q0 177 -79.5 274.5t-244.5 97.5q-150 0 -281 -187.5t-198 -498.5l-2 -4q-41 -204 -28 -354.5t75.5 -236t159.5 -85.5 q105 0 191 24t153 72.5t116 101.5t103 130l49 -21q-87 -159 -245 -258.5t-328 -113.5l26 55h-65l-27 -59q-87 1 -172.5 29t-165 85.5t-131 146t-71 209.5zM528 -512l9 51q10 0 27.5 0.5t62.5 6.5t80.5 17t68 36.5t39.5 60.5q6 42 -20.5 59t-75.5 17q-52 0 -117 -21l-14 19 l106 252h8q22 0 58 4l-43 -103q53 19 125 19q85 0 135.5 -46.5t34.5 -127.5q-11 -57 -43.5 -101.5t-76 -70t-93.5 -42.5t-97.5 -22.5t-86.5 -8t-63 -1.5z" />
<glyph unicode="&#xc8;" horiz-adv-x="1298" d="M16 -4l9 39l155 22l283 1344l-152 18l13 43h1067l-78 -383h-70l12 64q29 135 -56 198.5t-257 61.5l-166 -2l-137 -637q236 7 272 168l9 41h65l-100 -475h-68l8 41q18 85 -35 125t-163 43l-138 -646l234 -2q173 -2 286 61.5t142 198.5l14 64h68l-82 -383h-887zM645 1857 q9 34 39 54.5t61 13.5q35 -8 43 -39l105 -256l-50 -35l-186 197q-24 30 -12 65z" />
<glyph unicode="&#xc9;" horiz-adv-x="1298" d="M16 -4l248 4h887l82 383h-68l-14 -64q-29 -135 -142 -198.5t-286 -61.5l-234 2l138 646q110 -3 163 -43t35 -125l-8 -41h68l100 475h-65l-9 -41q-36 -161 -272 -168l137 637l166 2q172 2 257 -61.5t56 -198.5l-12 -64h70l78 383h-1067l-13 -43l152 -18l-283 -1344 l-155 -22zM803 1638l203 256q21 30 57 39q35 7 58 -13t18 -54q3 -31 -37 -66l-264 -196z" />
<glyph unicode="&#xca;" horiz-adv-x="1298" d="M16 -4l9 39l155 22l283 1344l-152 18l13 43h1067l-78 -383h-70l12 64q29 135 -56 198.5t-257 61.5l-166 -2l-137 -637q236 7 272 168l9 41h65l-100 -475h-68l8 41q18 85 -35 125t-163 43l-138 -646l234 -2q173 -2 286 61.5t142 198.5l14 64h68l-82 -383h-887zM576 1575 l283 223h65l188 -223h-104l-131 160l-203 -160h-98z" />
<glyph unicode="&#xcb;" horiz-adv-x="1298" d="M16 -4l248 4h887l82 383h-68l-14 -64q-29 -135 -142 -198.5t-286 -61.5l-234 2l138 646q110 -3 163 -43t35 -125l-8 -41h68l100 475h-65l-9 -41q-36 -161 -272 -168l137 637l166 2q172 2 257 -61.5t56 -198.5l-12 -64h70l78 383h-1067l-13 -43l152 -18l-283 -1344 l-155 -22zM401 1788q9 51 55.5 84t110.5 33q58 0 94 -33.5t27 -83.5q-10 -50 -55.5 -78.5t-108.5 -28.5t-98 28.5t-25 78.5zM866 1784q9 51 55.5 84t110.5 33q58 0 94 -33.5t27 -83.5q-10 -50 -55.5 -78.5t-108.5 -28.5t-98 28.5t-25 78.5z" />
<glyph unicode="&#xcc;" horiz-adv-x="765" d="M16 -4l9 39l155 22l283 1344l-152 18l13 43l301 -6l309 6l-10 -43l-148 -18l-287 -1340l142 -26l-8 -39l-299 4zM334 1857q9 34 39 54.5t61 13.5q35 -8 43 -39l105 -256l-50 -35l-186 197q-24 30 -12 65z" />
<glyph unicode="&#xcd;" horiz-adv-x="765" d="M16 -4l9 39l155 22l283 1344l-152 18l13 43l301 -6l309 6l-10 -43l-148 -18l-287 -1340l142 -26l-8 -39l-299 4zM489 1638l203 256q21 30 58 39q35 7 57.5 -13t17.5 -54q3 -31 -37 -66l-264 -196z" />
<glyph unicode="&#xce;" horiz-adv-x="765" d="M16 -4l9 39l155 22l283 1344l-152 18l13 43l301 -6l309 6l-10 -43l-148 -18l-287 -1340l142 -26l-8 -39l-299 4zM262 1575l283 223h65l188 -223h-104l-131 160l-203 -160h-98z" />
<glyph unicode="&#xcf;" horiz-adv-x="765" d="M16 -4l9 39l155 22l283 1344l-152 18l13 43l301 -6l309 6l-10 -43l-148 -18l-287 -1340l142 -26l-8 -39l-299 4zM88 1788q9 51 55.5 84t110.5 33q58 0 94 -33.5t27 -83.5q-10 -50 -55.5 -78.5t-108.5 -28.5t-98 28.5t-25 78.5zM553 1784q9 51 55.5 84t110.5 33 q58 0 94 -33.5t27 -83.5q-10 -50 -55.5 -78.5t-108.5 -28.5t-98 28.5t-25 78.5z" />
<glyph unicode="&#xd0;" horiz-adv-x="1456" d="M39 -4l8 39l156 22l135 648h-266l10 73h272l131 623l-151 18l12 43h574q181 0 325 -58t229.5 -155t119 -227t3.5 -272q-37 -179 -130 -322.5t-223.5 -236.5t-290 -142t-335.5 -49h-272zM512 61l94 -2q116 -2 217 39t173 108.5t129.5 160.5t92 185t56.5 191 q16 77 18.5 152.5t-9 150.5t-42.5 139t-79 113.5t-123.5 77t-170.5 27.5l-69 -2l-135 -623h69l-10 -73h-74z" />
<glyph unicode="&#xd1;" horiz-adv-x="1529" d="M16 -4l9 39l165 22l256 1219q4 21 4.5 38t-4 30t-10.5 23.5t-17 18t-21.5 13t-26 9.5t-29 6t-31.5 5l13 43l276 -6l674 -1057l213 998l-174 26l8 39l209 -4l221 4l-8 -39l-164 -22l-293 -1401h-117l-675 1049l-213 -988l161 -26l-6 -39l-205 4zM670 1585q9 102 72 163 t145 44q61 -11 124.5 -49t127.5 -51q49 -8 88 22.5t45 88.5l28 -11q-9 -102 -72 -163t-145 -44q-62 12 -124 50.5t-123 50.5q-53 8 -92.5 -22.5t-45.5 -88.5z" />
<glyph unicode="&#xd2;" horiz-adv-x="1665" d="M170 731q45 213 171 383t319.5 269.5t420.5 99.5q128 0 236.5 -37.5t184.5 -104.5t126 -161t60.5 -207t-13.5 -242q-34 -159 -116.5 -296.5t-200 -238t-271 -157.5t-323.5 -57q-215 0 -367 98t-212 269.5t-15 381.5zM479.5 453.5q-3.5 -123.5 23 -219.5t95 -148.5 t176.5 -52.5q131 0 243.5 92.5t189 248t118.5 357.5q32 154 36 278t-22 220.5t-94 149.5t-174 53q-101 0 -191 -53.5t-159 -148.5t-121 -221.5t-84 -277.5q-33 -154 -36.5 -277.5zM772 1878q9 34 39 54.5t61 13.5q35 -8 43 -39l105 -256l-50 -35l-186 197q-24 30 -12 65z " />
<glyph unicode="&#xd3;" horiz-adv-x="1665" d="M170 731q45 213 171 383t319.5 269.5t420.5 99.5q128 0 236.5 -37.5t184.5 -104.5t126 -161t60.5 -207t-13.5 -242q-34 -159 -116.5 -296.5t-200 -238t-271 -157.5t-323.5 -57q-215 0 -367 98t-212 269.5t-15 381.5zM479.5 453.5q-3.5 -123.5 23 -219.5t95 -148.5 t176.5 -52.5q131 0 243.5 92.5t189 248t118.5 357.5q32 154 36 278t-22 220.5t-94 149.5t-174 53q-101 0 -191 -53.5t-159 -148.5t-121 -221.5t-84 -277.5q-33 -154 -36.5 -277.5zM932 1659l203 256q21 30 57 39q35 7 58 -13.5t18 -54.5q3 -31 -37 -65l-264 -197z" />
<glyph unicode="&#xd4;" horiz-adv-x="1665" d="M170 731q45 213 171 383t319.5 269.5t420.5 99.5q128 0 236.5 -37.5t184.5 -104.5t126 -161t60.5 -207t-13.5 -242q-34 -159 -116.5 -296.5t-200 -238t-271 -157.5t-323.5 -57q-215 0 -367 98t-212 269.5t-15 381.5zM479.5 453.5q-3.5 -123.5 23 -219.5t95 -148.5 t176.5 -52.5q131 0 243.5 92.5t189 248t118.5 357.5q32 154 36 278t-22 220.5t-94 149.5t-174 53q-101 0 -191 -53.5t-159 -148.5t-121 -221.5t-84 -277.5q-33 -154 -36.5 -277.5zM703 1595l283 223h65l188 -223h-104l-131 160l-203 -160h-98z" />
<glyph unicode="&#xd5;" horiz-adv-x="1665" d="M170 731q45 213 171 383t319.5 269.5t420.5 99.5q128 0 236.5 -37.5t184.5 -104.5t126 -161t60.5 -207t-13.5 -242q-34 -159 -116.5 -296.5t-200 -238t-271 -157.5t-323.5 -57q-215 0 -367 98t-212 269.5t-15 381.5zM479.5 453.5q-3.5 -123.5 23 -219.5t95 -148.5 t176.5 -52.5q131 0 243.5 92.5t189 248t118.5 357.5q32 154 36 278t-22 220.5t-94 149.5t-174 53q-101 0 -191 -53.5t-159 -148.5t-121 -221.5t-84 -277.5q-33 -154 -36.5 -277.5zM682 1606q9 102 71.5 162.5t145.5 43.5q61 -11 124.5 -49t127.5 -51q49 -8 88 22.5t45 88.5 l29 -11q-9 -102 -71.5 -162.5t-145.5 -43.5q-62 12 -124.5 50t-123.5 50q-53 8 -92 -22.5t-45 -88.5z" />
<glyph unicode="&#xd6;" horiz-adv-x="1665" d="M170 731q45 213 171 383t319.5 269.5t420.5 99.5q128 0 236.5 -37.5t184.5 -104.5t126 -161t60.5 -207t-13.5 -242q-34 -159 -116.5 -296.5t-200 -238t-271 -157.5t-323.5 -57q-215 0 -367 98t-212 269.5t-15 381.5zM479.5 453.5q-3.5 -123.5 23 -219.5t95 -148.5 t176.5 -52.5q131 0 243.5 92.5t189 248t118.5 357.5q32 154 36 278t-22 220.5t-94 149.5t-174 53q-101 0 -191 -53.5t-159 -148.5t-121 -221.5t-84 -277.5q-33 -154 -36.5 -277.5zM530 1808q9 51 55.5 84t110.5 33q58 0 94 -33.5t27 -83.5q-10 -50 -55.5 -78t-108.5 -28 q-64 0 -98.5 28t-24.5 78zM993 1804q9 51 55.5 84t110.5 33q58 0 94 -33.5t27 -83.5q-10 -50 -55.5 -78t-108.5 -28q-64 0 -98.5 28t-24.5 78z" />
<glyph unicode="&#xd7;" horiz-adv-x="974" d="M123 338l311 264l-209 264l92 76l209 -264l312 264l59 -78l-309 -262l209 -262l-90 -78l-211 262l-310 -262z" />
<glyph unicode="&#xd8;" horiz-adv-x="1597" d="M178 731q34 159 116 297t199 239t271.5 158.5t325.5 57.5q76 0 147 -15l100 172h95l-115 -192q218 -71 318 -265.5t48 -451.5q-34 -159 -116.5 -296.5t-200 -238t-271 -157.5t-323.5 -57q-158 0 -287 55l-139 -236h-90l160 273q-156 95 -220.5 268t-17.5 389zM510 233 l690 1176q-58 23 -121 23q-101 0 -191 -53.5t-159 -148.5t-121 -221.5t-84 -277.5q-68 -315 -14 -498zM549 147q72 -114 233 -114q131 0 243.5 92.5t189 248t118.5 357.5q99 480 -65 633z" />
<glyph unicode="&#xd9;" horiz-adv-x="1579" d="M213 282q-20 72 0 162l201 957l-152 18l12 43l304 -6l307 6l-11 -43l-147 -18l-203 -952q-39 -179 47 -272t250 -93q399 0 479 385l199 932l-141 18l10 43l186 -6l191 6l-8 -43l-152 -18l-196 -936q-34 -153 -129.5 -260.5t-228.5 -158t-294 -50.5q-93 0 -178 17.5 t-157 53.5t-120.5 89.5t-68.5 125.5zM694 1857q9 34 39 54.5t61 13.5q35 -8 43 -39l105 -256l-50 -35l-186 197q-24 30 -12 65z" />
<glyph unicode="&#xda;" horiz-adv-x="1579" d="M213 282q20 -72 68.5 -125.5t120.5 -89.5t157 -53.5t178 -17.5q161 0 294 50.5t228.5 158t129.5 260.5l196 936l152 18l8 43l-191 -6l-186 6l-10 -43l141 -18l-199 -932q-80 -385 -479 -385q-164 0 -250 93t-47 272l203 952l147 18l11 43l-307 -6l-304 6l-12 -43l152 -18 l-201 -957q-20 -90 0 -162zM854 1638l203 256q21 30 57 39q35 7 58 -13t18 -54q3 -31 -37 -66l-264 -196z" />
<glyph unicode="&#xdb;" horiz-adv-x="1579" d="M213 282q-20 72 0 162l201 957l-152 18l12 43l304 -6l307 6l-11 -43l-147 -18l-203 -952q-39 -179 47 -272t250 -93q399 0 479 385l199 932l-141 18l10 43l186 -6l191 6l-8 -43l-152 -18l-196 -936q-34 -153 -129.5 -260.5t-228.5 -158t-294 -50.5q-93 0 -178 17.5 t-157 53.5t-120.5 89.5t-68.5 125.5zM625 1575l283 223h65l188 -223h-104l-131 160l-203 -160h-98z" />
<glyph unicode="&#xdc;" horiz-adv-x="1579" d="M213 282q20 -72 68.5 -125.5t120.5 -89.5t157 -53.5t178 -17.5q161 0 294 50.5t228.5 158t129.5 260.5l196 936l152 18l8 43l-191 -6l-186 6l-10 -43l141 -18l-199 -932q-80 -385 -479 -385q-164 0 -250 93t-47 272l203 952l147 18l11 43l-307 -6l-304 6l-12 -43l152 -18 l-201 -957q-20 -90 0 -162zM451 1788q9 51 55 84t110 33q58 0 94 -33.5t27 -83.5q-10 -50 -55.5 -78.5t-108.5 -28.5t-97.5 28.5t-24.5 78.5zM915 1784q9 51 55.5 84t110.5 33q58 0 94 -33.5t27 -83.5q-10 -50 -55.5 -78.5t-108.5 -28.5t-98 28.5t-25 78.5z" />
<glyph unicode="&#xdd;" horiz-adv-x="1468" d="M272 1427l9 39l346 -4l254 4l-9 -39l-149 -22l229 -709l482 682l4 25l-138 22l9 41l250 -4l176 4l-9 -41l-133 -26l-614 -801l-113 -537l140 -26l-9 -39l-235 4l-371 -4l8 39l154 22l117 551l-277 793zM824 1643l202 256q21 30 58 39q35 7 58 -13.5t18 -54.5 q3 -31 -37 -65l-264 -197z" />
<glyph unicode="&#xde;" horiz-adv-x="1409" d="M-2 -4l8 39l144 22l264 1344l-142 18l11 43h630l-8 -47l-164 -14l-49 -246h205q272 0 404 -103.5t100 -265.5q-33 -185 -213 -288t-440 -103h-203l-66 -334l131 -26l-8 -39l-266 4zM557 461h211q60 -2 108.5 16.5t79.5 48t55.5 74.5t38 87t23.5 93q9 49 10 90.5 t-9.5 83.5t-33.5 71.5t-66.5 47.5t-105.5 17h-188z" />
<glyph unicode="&#xdf;" horiz-adv-x="1155" d="M-100 -6l4 41l116 20l187 965q20 106 70.5 199t127.5 165.5t186.5 114t237.5 41.5q115 0 200.5 -31.5t128 -94.5t24.5 -148q-22 -106 -100.5 -187t-192.5 -131q22 -40 52 -88.5t51 -82.5t44.5 -75.5t37 -78.5t23.5 -81t9.5 -92.5t-10.5 -103.5q-34 -161 -161.5 -262.5 t-277.5 -101.5q-99 0 -167.5 42t-83.5 85q-5 34 12.5 62t44.5 28q28 0 43.5 -22t7.5 -66l-12 -52q57 -39 121 -39q47 0 97 59.5t75 186.5q15 85 -21 209.5t-106 247.5q-15 27 -9 43.5t33 40.5q171 179 226 444q19 104 -9 172t-114 68q-91 0 -152 -99t-94 -270l-219 -1122z " />
<glyph unicode="&#xe0;" horiz-adv-x="1187" d="M80 410q38 133 102.5 243.5t135.5 181t149 119.5t144 69.5t120 20.5q52 0 82.5 -21t48.5 -71l51 72h254l-215 -741q-32 -117 -29 -159t42 -42q46 0 95 50.5t95 139.5l41 -18q-59 -121 -176 -199t-238 -65q-72 4 -108 46t-35 105t20 140l21 71q-31 -65 -68 -122.5 t-86 -115t-109 -91t-122 -33.5q-154 0 -210 118t-5 302zM385 438q-86 -315 29 -315q40 0 85 38t80.5 89t72 120.5t56.5 113.5t37 87l48 158q71 246 -93 246q-71 0 -154.5 -132t-160.5 -405zM563 1460q9 34 39 54.5t61 13.5q35 -8 43 -39l105 -256l-50 -35l-186 197 q-24 30 -12 65z" />
<glyph unicode="&#xe1;" horiz-adv-x="1187" d="M80 410q38 133 102.5 243.5t135.5 181t149 119.5t144 69.5t120 20.5q52 0 82.5 -21t48.5 -71l51 72h254l-215 -741q-32 -117 -29 -159t42 -42q46 0 95 50.5t95 139.5l41 -18q-59 -121 -176 -199t-238 -65q-72 4 -108 46t-35 105t20 140l21 71q-31 -65 -68 -122.5 t-86 -115t-109 -91t-122 -33.5q-154 0 -210 118t-5 302zM385 438q-86 -315 29 -315q40 0 85 38t80.5 89t72 120.5t56.5 113.5t37 87l48 158q71 246 -93 246q-71 0 -154.5 -132t-160.5 -405zM723 1241l203 256q21 30 57 39q35 7 58 -13.5t18 -54.5q3 -31 -37 -65l-264 -197z " />
<glyph unicode="&#xe2;" horiz-adv-x="1187" d="M80 410q38 133 102.5 243.5t135.5 181t149 119.5t144 69.5t120 20.5q52 0 82.5 -21t48.5 -71l51 72h254l-215 -741q-32 -117 -29 -159t42 -42q46 0 95 50.5t95 139.5l41 -18q-59 -121 -176 -199t-238 -65q-72 4 -108 46t-35 105t20 140l21 71q-31 -65 -68 -122.5 t-86 -115t-109 -91t-122 -33.5q-154 0 -210 118t-5 302zM385 438q-86 -315 29 -315q40 0 85 38t80.5 89t72 120.5t56.5 113.5t37 87l48 158q71 246 -93 246q-71 0 -154.5 -132t-160.5 -405zM494 1178l283 223h65l188 -223h-104l-131 160l-203 -160h-98z" />
<glyph unicode="&#xe3;" horiz-adv-x="1187" d="M80 410q38 133 102.5 243.5t135.5 181t149 119.5t144 69.5t120 20.5q52 0 82.5 -21t48.5 -71l51 72h254l-215 -741q-32 -117 -29 -159t42 -42q46 0 95 50.5t95 139.5l41 -18q-59 -121 -176 -199t-238 -65q-72 4 -108 46t-35 105t20 140l21 71q-31 -65 -68 -122.5 t-86 -115t-109 -91t-122 -33.5q-154 0 -210 118t-5 302zM385 438q-86 -315 29 -315q40 0 85 38t80.5 89t72 120.5t56.5 113.5t37 87l48 158q71 246 -93 246q-71 0 -154.5 -132t-160.5 -405zM473 1188q9 102 72 163t145 44q61 -11 124.5 -49.5t127.5 -51.5q49 -8 88 22.5 t45 88.5l29 -10q-9 -102 -72 -163t-145 -44q-62 12 -124.5 50t-123.5 50q-53 8 -92 -22t-45 -88z" />
<glyph unicode="&#xe4;" horiz-adv-x="1187" d="M80 410q38 133 102.5 243.5t135.5 181t149 119.5t144 69.5t120 20.5q52 0 82.5 -21t48.5 -71l51 72h254l-215 -741q-32 -117 -29 -159t42 -42q46 0 95 50.5t95 139.5l41 -18q-59 -121 -176 -199t-238 -65q-72 4 -108 46t-35 105t20 140l21 71q-31 -65 -68 -122.5 t-86 -115t-109 -91t-122 -33.5q-154 0 -210 118t-5 302zM319 1391q9 51 55.5 83.5t110.5 32.5q58 0 94 -33t27 -83q-10 -50 -55.5 -78.5t-108.5 -28.5t-98 28.5t-25 78.5zM385 438q-86 -315 29 -315q40 0 85 38t80.5 89t72 120.5t56.5 113.5t37 87l48 158q71 246 -93 246 q-71 0 -154.5 -132t-160.5 -405zM784 1386q9 51 55.5 84t110.5 33q58 0 94 -33.5t27 -83.5q-10 -50 -55.5 -78t-108.5 -28q-64 0 -98.5 28t-24.5 78z" />
<glyph unicode="&#xe5;" horiz-adv-x="1187" d="M80 410q38 133 102.5 243.5t135.5 181t149 119.5t144 69.5t120 20.5q52 0 82.5 -21t48.5 -71l51 72h254l-215 -741q-32 -117 -29 -159t42 -42q46 0 95 50.5t95 139.5l41 -18q-59 -121 -176 -199t-238 -65q-72 4 -108 46t-35 105t20 140l21 71q-31 -65 -68 -122.5 t-86 -115t-109 -91t-122 -33.5q-154 0 -210 118t-5 302zM385 438q-86 -315 29 -315q40 0 85 38t80.5 89t72 120.5t56.5 113.5t37 87l48 158q71 246 -93 246q-71 0 -154.5 -132t-160.5 -405zM619 1350q15 71 75 121.5t129 50.5q67 0 109 -51.5t27 -120.5q-12 -70 -72 -121 t-131 -51q-66 0 -107.5 51t-29.5 121zM686 1350q-8 -41 17 -73t65 -32q39 0 78 32.5t45 72.5q9 41 -16 72.5t-66 31.5q-39 0 -76.5 -31.5t-46.5 -72.5z" />
<glyph unicode="&#xe6;" horiz-adv-x="1681" d="M113 225q38 110 151 179.5t352 117.5l129 25l58 182q23 82 25 135.5t-20 82t-69 28.5q-105 0 -200 -68q19 -74 0 -137q-13 -41 -54.5 -66.5t-89.5 -25.5q-45 0 -61.5 31.5t-3.5 74.5t49 76q90 85 208 134.5t228 49.5q195 0 246 -94q148 94 307 94q136 0 213.5 -58.5 t50.5 -162.5q-16 -66 -70 -121.5t-121.5 -91t-148 -62t-142.5 -39t-112 -17.5q-2 -4 -2 -9q-20 -73 -25 -140t6 -124.5t47.5 -92t96.5 -34.5q88 0 180 54.5t164 168.5l37 -16q-93 -144 -228.5 -231.5t-262.5 -87.5q-122 0 -200 52t-114 142q-90 -88 -205 -137t-237 -49 q-118 0 -167.5 68t-14.5 169zM430 258q-20 -58 6 -88.5t84 -30.5q115 0 207 68q-35 121 2 262l-6 6l2 8l-49 -14q-85 -12 -149 -65.5t-97 -145.5zM1053 541q39 11 69 22t72.5 34.5t73 53t60 78.5t44.5 109q16 66 1.5 103.5t-48.5 37.5q-76 0 -140.5 -108t-131.5 -330z" />
<glyph unicode="&#xe7;" horiz-adv-x="952" d="M102 479q25 105 76.5 204t123.5 180.5t169 131t203 49.5q93 0 162 -33.5t92 -101.5q13 -31 8 -71.5t-19 -75.5t-44.5 -59.5t-69.5 -24.5q-52 0 -82.5 40.5t-18.5 90.5q2 14 8 28t10.5 23.5t16.5 25.5t17.5 22t24 26t24.5 27q-35 24 -107 24q-171 0 -288 -498 q-29 -172 11 -282.5t146 -110.5q90 0 178.5 57.5t155.5 176.5l37 -15q-74 -148 -201.5 -240.5t-253.5 -92.5h-2l-39 -89q53 19 125 19q84 0 134 -46.5t36 -127.5q-11 -57 -44 -101.5t-76 -70t-93 -42.5t-97.5 -22.5t-86.5 -8t-62 -1.5l-24 2l6 51q10 0 27.5 0.5t63 6.5 t81.5 17t69 36.5t40 60.5q4 42 -23 59t-76 17q-53 0 -114 -21l-15 19l105 246q-118 18 -200 96t-110.5 184t-3.5 215z" />
<glyph unicode="&#xe8;" horiz-adv-x="966" d="M84 341.5q2 70.5 22 141.5q29 102 85.5 199.5t136 179.5t187.5 132t226 50q136 0 214 -58.5t51 -162.5q-16 -66 -70 -121.5t-121.5 -91t-148 -62t-142.5 -39t-112 -17.5q-2 -4 -2 -9q-20 -73 -25 -140t6 -124.5t47.5 -92t96.5 -34.5q88 0 180 54.5t164 168.5l36 -16 q-93 -144 -228.5 -231.5t-262.5 -87.5q-89 0 -157 30t-107 80.5t-58.5 115.5t-17.5 135.5zM426 541q39 11 69 22t72.5 34.5t73 53t60 78.5t44.5 109q16 66 1.5 103.5t-48.5 37.5q-76 0 -140.5 -108t-131.5 -330zM455 1460q9 34 39 54.5t61 13.5q35 -8 43 -39l105 -256 l-50 -35l-186 197q-24 30 -12 65z" />
<glyph unicode="&#xe9;" horiz-adv-x="966" d="M84 341.5q2 70.5 22 141.5q29 102 85.5 199.5t136 179.5t187.5 132t226 50q136 0 214 -58.5t51 -162.5q-16 -66 -70 -121.5t-121.5 -91t-148 -62t-142.5 -39t-112 -17.5q-2 -4 -2 -9q-20 -73 -25 -140t6 -124.5t47.5 -92t96.5 -34.5q88 0 180 54.5t164 168.5l36 -16 q-93 -144 -228.5 -231.5t-262.5 -87.5q-89 0 -157 30t-107 80.5t-58.5 115.5t-17.5 135.5zM426 541q39 11 69 22t72.5 34.5t73 53t60 78.5t44.5 109q16 66 1.5 103.5t-48.5 37.5q-76 0 -140.5 -108t-131.5 -330zM612 1241l203 256q21 30 57 39q35 7 58 -13.5t18 -54.5 q3 -31 -37 -65l-264 -197z" />
<glyph unicode="&#xea;" horiz-adv-x="966" d="M84 341.5q2 70.5 22 141.5q29 102 85.5 199.5t136 179.5t187.5 132t226 50q136 0 214 -58.5t51 -162.5q-16 -66 -70 -121.5t-121.5 -91t-148 -62t-142.5 -39t-112 -17.5q-2 -4 -2 -9q-20 -73 -25 -140t6 -124.5t47.5 -92t96.5 -34.5q88 0 180 54.5t164 168.5l36 -16 q-93 -144 -228.5 -231.5t-262.5 -87.5q-89 0 -157 30t-107 80.5t-58.5 115.5t-17.5 135.5zM385 1178l283 223h65l188 -223h-104l-131 160l-203 -160h-98zM426 541q39 11 69 22t72.5 34.5t73 53t60 78.5t44.5 109q16 66 1.5 103.5t-48.5 37.5q-76 0 -140.5 -108t-131.5 -330z " />
<glyph unicode="&#xeb;" horiz-adv-x="966" d="M84 341.5q2 70.5 22 141.5q29 102 85.5 199.5t136 179.5t187.5 132t226 50q136 0 214 -58.5t51 -162.5q-16 -66 -70 -121.5t-121.5 -91t-148 -62t-142.5 -39t-112 -17.5q-2 -4 -2 -9q-20 -73 -25 -140t6 -124.5t47.5 -92t96.5 -34.5q88 0 180 54.5t164 168.5l36 -16 q-93 -144 -228.5 -231.5t-262.5 -87.5q-89 0 -157 30t-107 80.5t-58.5 115.5t-17.5 135.5zM211 1391q9 51 55.5 83.5t110.5 32.5q58 0 94 -33t27 -83q-10 -50 -55.5 -78.5t-108.5 -28.5t-98 28.5t-25 78.5zM426 541q39 11 69 22t72.5 34.5t73 53t60 78.5t44.5 109 q16 66 1.5 103.5t-48.5 37.5q-76 0 -140.5 -108t-131.5 -330zM676 1386q9 51 55.5 84t110.5 33q58 0 94 -33.5t27 -83.5q-10 -50 -55.5 -78t-108.5 -28q-64 0 -98.5 28t-24.5 78z" />
<glyph unicode="&#xec;" horiz-adv-x="667" d="M122 141q0 63 19 140l166 647l-117 20l25 62l416 24l-195 -753q-34 -117 -32.5 -158t42.5 -41q45 0 94.5 50.5t96.5 139.5l41 -18q-61 -121 -178 -199t-238 -65q-69 4 -104.5 46t-35.5 105zM440 1419q9 34 39 54.5t61 13.5q35 -8 43 -39l105 -256l-50 -35l-186 197 q-24 30 -12 65z" />
<glyph unicode="&#xed;" horiz-adv-x="667" d="M122 141q0 63 19 140l166 647l-117 20l25 62l416 24l-195 -753q-34 -117 -32.5 -158t42.5 -41q45 0 94.5 50.5t96.5 139.5l41 -18q-61 -121 -178 -199t-238 -65q-69 4 -104.5 46t-35.5 105zM391 1192l203 256q21 30 57 39q35 7 58 -13.5t18 -54.5q3 -31 -37 -65 l-264 -197z" />
<glyph unicode="&#xee;" horiz-adv-x="667" d="M122 141q0 63 19 140l166 647l-117 20l25 62l416 24l-195 -753q-34 -117 -32.5 -158t42.5 -41q45 0 94.5 50.5t96.5 139.5l41 -18q-61 -121 -178 -199t-238 -65q-69 4 -104.5 46t-35.5 105zM277 1233l283 223h65l188 -223h-104l-131 160l-203 -160h-98z" />
<glyph unicode="&#xef;" horiz-adv-x="667" d="M122 141q0 63 19 140l166 647l-117 20l25 62l416 24l-195 -753q-34 -117 -32.5 -158t42.5 -41q45 0 94.5 50.5t96.5 139.5l41 -18q-61 -121 -178 -199t-238 -65q-69 4 -104.5 46t-35.5 105zM133 1432q9 51 55.5 83.5t110.5 32.5q58 0 94 -33t27 -83q-10 -50 -55.5 -78.5 t-108.5 -28.5t-98 28.5t-25 78.5zM598 1427q9 51 55.5 84t110.5 33q58 0 94 -33.5t27 -83.5q-10 -50 -55.5 -78t-108.5 -28q-64 0 -98.5 28t-24.5 78z" />
<glyph unicode="&#xf0;" horiz-adv-x="1175" d="M45 483q45 229 198.5 371.5t368.5 142.5q71 0 135 -48.5t84 -145.5q26 269 -53 416l-260 -99l-18 62l243 92q-85 112 -254 145l27 60q241 -22 406 -138l249 95l17 -62l-209 -80q245 -225 160 -659q-17 -87 -51 -173.5t-92 -172.5t-130.5 -151.5t-172.5 -106.5t-212 -41 q-145 0 -255 71.5t-157.5 185t-23.5 236.5zM387 496q-91 -441 82 -441q65 0 121 53t96.5 143t68 180.5t48.5 193.5q10 142 -39.5 208t-130.5 66q-84 0 -147 -104.5t-99 -298.5z" />
<glyph unicode="&#xf1;" horiz-adv-x="1247" d="M53 0l236 928l-119 20l20 62l422 24l-88 -342q87 164 198 258t212 94q61 0 108 -18.5t78.5 -57.5t36.5 -100.5t-18 -148.5l-127 -438q-34 -117 -32.5 -158t42.5 -41q45 0 95 51t95 139l39 -18q-59 -121 -175.5 -199t-235.5 -65q-72 4 -107.5 46t-34 105t22.5 140l123 438 q54 196 -53 196q-72 0 -166.5 -130.5t-161.5 -335.5l-115 -449h-295zM478 1187q9 102 72 163t145 44q61 -11 124.5 -49t127.5 -51q49 -8 88 22.5t45 88.5l28 -11q-9 -102 -72 -163t-145 -44q-62 12 -124 50.5t-123 50.5q-53 8 -92.5 -22.5t-45.5 -88.5z" />
<glyph unicode="&#xf2;" horiz-adv-x="1128" d="M104 471q35 159 121.5 289.5t210 207t258.5 76.5q140 0 242 -66t143 -179t11 -246q-34 -159 -122.5 -288.5t-219 -206t-277.5 -76.5q-131 0 -225 65.5t-132 178t-10 245.5zM364.5 300q-5.5 -77 3 -138t37 -95t76.5 -34q92 0 171 146t124 374q21 94 27 171.5t-2.5 139 t-38.5 95.5t-80 34q-60 0 -116.5 -71.5t-99.5 -185t-77 -265.5q-19 -94 -24.5 -171zM451 1460q9 34 39 54.5t61 13.5q35 -8 43 -39l105 -256l-50 -35l-186 197q-24 30 -12 65z" />
<glyph unicode="&#xf3;" horiz-adv-x="1128" d="M104 471q35 159 121.5 289.5t210 207t258.5 76.5q140 0 242 -66t143 -179t11 -246q-34 -159 -122.5 -288.5t-219 -206t-277.5 -76.5q-131 0 -225 65.5t-132 178t-10 245.5zM364.5 300q-5.5 -77 3 -138t37 -95t76.5 -34q92 0 171 146t124 374q21 94 27 171.5t-2.5 139 t-38.5 95.5t-80 34q-60 0 -116.5 -71.5t-99.5 -185t-77 -265.5q-19 -94 -24.5 -171zM608 1241l203 256q21 30 57 39q35 7 58 -13.5t18 -54.5q3 -31 -37 -65l-264 -197z" />
<glyph unicode="&#xf4;" horiz-adv-x="1128" d="M104 471q35 159 121.5 289.5t210 207t258.5 76.5q140 0 242 -66t143 -179t11 -246q-34 -159 -122.5 -288.5t-219 -206t-277.5 -76.5q-131 0 -225 65.5t-132 178t-10 245.5zM364.5 300q-5.5 -77 3 -138t37 -95t76.5 -34q92 0 171 146t124 374q21 94 27 171.5t-2.5 139 t-38.5 95.5t-80 34q-60 0 -116.5 -71.5t-99.5 -185t-77 -265.5q-19 -94 -24.5 -171zM381 1178l283 223h65l188 -223h-104l-131 160l-203 -160h-98z" />
<glyph unicode="&#xf5;" horiz-adv-x="1128" d="M104 471q35 159 121.5 289.5t210 207t258.5 76.5q140 0 242 -66t143 -179t11 -246q-34 -159 -122.5 -288.5t-219 -206t-277.5 -76.5q-131 0 -225 65.5t-132 178t-10 245.5zM358 1188q9 102 72 163t145 44q61 -11 124.5 -49.5t127.5 -51.5q49 -8 88.5 22.5t45.5 88.5 l28 -10q-9 -102 -72 -163t-145 -44q-62 12 -124.5 50t-123.5 50q-53 8 -92 -22t-45 -88zM364.5 300q-5.5 -77 3 -138t37 -95t76.5 -34q92 0 171 146t124 374q21 94 27 171.5t-2.5 139t-38.5 95.5t-80 34q-60 0 -116.5 -71.5t-99.5 -185t-77 -265.5q-19 -94 -24.5 -171z" />
<glyph unicode="&#xf6;" horiz-adv-x="1128" d="M104 471q35 159 121.5 289.5t210 207t258.5 76.5q140 0 242 -66t143 -179t11 -246q-34 -159 -122.5 -288.5t-219 -206t-277.5 -76.5q-131 0 -225 65.5t-132 178t-10 245.5zM207 1391q9 51 55.5 83.5t110.5 32.5q58 0 94 -33t27 -83q-10 -50 -55.5 -78.5t-108.5 -28.5 t-98 28.5t-25 78.5zM364.5 300q-5.5 -77 3 -138t37 -95t76.5 -34q92 0 171 146t124 374q21 94 27 171.5t-2.5 139t-38.5 95.5t-80 34q-60 0 -116.5 -71.5t-99.5 -185t-77 -265.5q-19 -94 -24.5 -171zM672 1386q9 51 55.5 84t110.5 33q58 0 93.5 -33.5t26.5 -83.5 q-10 -50 -55 -78t-108 -28q-64 0 -98.5 28t-24.5 78z" />
<glyph unicode="&#xf7;" horiz-adv-x="974" d="M59 563l19 109h895l-21 -109h-893zM240 317q9 51 55.5 84t110.5 33q58 0 93.5 -33.5t26.5 -83.5q-10 -50 -55.5 -78t-108.5 -28t-97.5 28t-24.5 78zM291 934q9 51 55.5 84t110.5 33q58 0 94 -33.5t27 -83.5q-10 -50 -55.5 -78.5t-108.5 -28.5t-98 28.5t-25 78.5z" />
<glyph unicode="&#xf8;" horiz-adv-x="1167" d="M94 471q35 159 121.5 289.5t210 207t258.5 76.5q106 0 190 -38l113 174h80l-135 -207q96 -65 136 -177t11 -243q-34 -159 -122 -288.5t-218.5 -206t-277.5 -76.5q-84 0 -154 28l-114 -176h-78l133 205q-100 62 -142 178t-12 254zM352 201l436 671q-23 121 -116 121 q-60 0 -116.5 -71.5t-99.5 -185t-77 -265.5q-32 -166 -27 -270zM371 109q28 -76 100 -76q92 0 171 146t124 374q26 125 29 209z" />
<glyph unicode="&#xf9;" horiz-adv-x="1251" d="M127 279l164 659l-117 25l19 61l419 20l-190 -765q-24 -100 -8.5 -138.5t75.5 -38.5q69 0 160.5 131.5t153.5 335.5l90 359l-100 20l24 62l395 24l-188 -753q-30 -121 -25.5 -160t43.5 -39q46 0 94.5 50.5t90.5 139.5l41 -20q-52 -120 -167.5 -197.5t-236.5 -64.5 q-68 4 -105.5 45.5t-41 105t13.5 140.5l2 8q-83 -148 -184 -232t-195 -84q-137 0 -202 72t-25 234zM578 1460q9 34 39 54.5t61 13.5q35 -8 43 -39l105 -256l-50 -35l-186 197q-24 30 -12 65z" />
<glyph unicode="&#xfa;" horiz-adv-x="1251" d="M127 279l164 659l-117 25l19 61l419 20l-190 -765q-24 -100 -8.5 -138.5t75.5 -38.5q69 0 160.5 131.5t153.5 335.5l90 359l-100 20l24 62l395 24l-188 -753q-30 -121 -25.5 -160t43.5 -39q46 0 94.5 50.5t90.5 139.5l41 -20q-52 -120 -167.5 -197.5t-236.5 -64.5 q-68 4 -105.5 45.5t-41 105t13.5 140.5l2 8q-83 -148 -184 -232t-195 -84q-137 0 -202 72t-25 234zM735 1241l203 256q21 30 57 39q35 7 58 -13.5t18 -54.5q3 -31 -37 -65l-264 -197z" />
<glyph unicode="&#xfb;" horiz-adv-x="1251" d="M127 279l164 659l-117 25l19 61l419 20l-190 -765q-24 -100 -8.5 -138.5t75.5 -38.5q69 0 160.5 131.5t153.5 335.5l90 359l-100 20l24 62l395 24l-188 -753q-30 -121 -25.5 -160t43.5 -39q46 0 94.5 50.5t90.5 139.5l41 -20q-52 -120 -167.5 -197.5t-236.5 -64.5 q-68 4 -105.5 45.5t-41 105t13.5 140.5l2 8q-83 -148 -184 -232t-195 -84q-137 0 -202 72t-25 234zM508 1178l283 223h65l188 -223h-104l-131 160l-203 -160h-98z" />
<glyph unicode="&#xfc;" horiz-adv-x="1251" d="M127 279l164 659l-117 25l19 61l419 20l-190 -765q-24 -100 -8.5 -138.5t75.5 -38.5q69 0 160.5 131.5t153.5 335.5l90 359l-100 20l24 62l395 24l-188 -753q-30 -121 -25.5 -160t43.5 -39q46 0 94.5 50.5t90.5 139.5l41 -20q-52 -120 -167.5 -197.5t-236.5 -64.5 q-68 4 -105.5 45.5t-41 105t13.5 140.5l2 8q-83 -148 -184 -232t-195 -84q-137 0 -202 72t-25 234zM334 1391q9 51 55.5 83.5t110.5 32.5q58 0 94 -33t27 -83q-10 -50 -55.5 -78.5t-108.5 -28.5t-98 28.5t-25 78.5zM799 1386q9 51 55.5 84t110.5 33q58 0 93.5 -33.5 t26.5 -83.5q-10 -50 -55 -78t-108 -28q-64 0 -98.5 28t-24.5 78z" />
<glyph unicode="&#xfd;" horiz-adv-x="948" d="M-172 -393q-8 43 28.5 77.5t88.5 34.5q25 0 43.5 -9.5t31.5 -31t20.5 -40t18.5 -50.5q3 -8 4 -12q54 0 107 68.5t78 171.5l55 184h-2q-2 80 -7.5 166.5t-10 142t-17.5 162.5t-17.5 140.5t-23.5 168t-22 158.5l-109 16l19 62l374 39q30 -185 42.5 -271.5t22.5 -215.5 t11 -279q196 254 283 475q-22 41 -42 103.5t-11 97.5q10 45 43.5 79.5t60.5 34.5q52 0 77 -38.5t20.5 -92.5t-31.5 -106q-109 -233 -233 -406.5t-349 -435.5h-2l-62 -186q-41 -146 -132 -232t-167 -86q-44 0 -80.5 8.5t-69 35t-40.5 67.5zM523 1276l202 256q21 30 58 39 q35 7 58 -13.5t18 -54.5q3 -31 -37 -65l-264 -197z" />
<glyph unicode="&#xfe;" horiz-adv-x="1253" d="M-178 -510l4 41l137 20l359 1835l-103 39l12 76l441 45l-56 -282l-86 -443q56 97 147 159t181 62q80 0 145.5 -29.5t107 -79t68.5 -115.5t29.5 -139.5t-10.5 -150.5q-19 -102 -71 -198t-132 -176t-196 -128.5t-250 -48.5q-101 0 -172 56l-92 -477l133 -25l-10 -41l-256 6 zM414 219q-5 -66 32 -109.5t125 -43.5q214 0 301 462q17 100 18.5 184.5t-30 140.5t-94.5 56q-73 0 -148 -54t-108 -138z" />
<glyph unicode="&#xff;" horiz-adv-x="948" d="M-172 -393q-8 43 28.5 77.5t88.5 34.5q25 0 43.5 -9.5t31.5 -31t20.5 -40t18.5 -50.5q3 -8 4 -12q54 0 107 68.5t78 171.5l55 184h-2q-2 80 -7.5 166.5t-10 142t-17.5 162.5t-17.5 140.5t-23.5 168t-22 158.5l-109 16l19 62l374 39q30 -185 42.5 -271.5t22.5 -215.5 t11 -279q196 254 283 475q-22 41 -42 103.5t-11 97.5q10 45 43.5 79.5t60.5 34.5q52 0 77 -38.5t20.5 -92.5t-31.5 -106q-109 -233 -233 -406.5t-349 -435.5h-2l-62 -186q-41 -146 -132 -232t-167 -86q-44 0 -80.5 8.5t-69 35t-40.5 67.5zM121 1425q9 51 55.5 84t110.5 33 q58 0 94 -33.5t27 -83.5q-10 -50 -55.5 -78t-108.5 -28q-64 0 -98.5 28t-24.5 78zM586 1421q9 51 55.5 84t110.5 33q58 0 93.5 -33.5t26.5 -83.5q-10 -50 -55 -78t-108 -28q-64 0 -98.5 28t-24.5 78z" />
<glyph unicode="&#x152;" horiz-adv-x="2037" d="M110.5 495.5q-10.5 106.5 12.5 237.5q24 126 80 237t129.5 190.5t160.5 142.5t177.5 101t174 57.5t156.5 19.5q134 0 263 -19h882l-67 -383h-64l10 64q27 135 -53 198.5t-241 61.5l-183 -2l-123 -637q245 -3 281 168l8 41h60l-93 -475h-59l4 41q18 91 -39.5 130.5 t-171.5 37.5h-2l-125 -648h246q160 -2 264 61.5t131 198.5l15 64h59l-76 -383h-981q-122 -14 -237 -14q-77 0 -154.5 19t-153 58.5t-136 99.5t-102.5 143t-52.5 189.5zM466 366q15 -156 82.5 -244.5t174.5 -88.5q147 0 242 63l247 1282q-83 56 -217 56q-169 0 -306.5 -192.5 t-196.5 -506.5q-41 -213 -26 -369z" />
<glyph unicode="&#x153;" horiz-adv-x="1619" d="M94 471q35 159 121.5 289.5t210 207t258.5 76.5q112 0 200.5 -43.5t141.5 -121.5q175 165 395 165q136 0 214 -58.5t51 -162.5q-16 -66 -70 -121.5t-121.5 -91t-148 -62t-142.5 -39t-112 -17.5q-2 -4 -2 -9q-20 -73 -25 -140t5.5 -124.5t47 -92t96.5 -34.5 q88 0 180.5 54.5t164.5 168.5l36 -16q-93 -144 -228.5 -231.5t-262.5 -87.5q-194 0 -283 135q-161 -133 -360 -133q-131 0 -225 65.5t-132 178t-10 245.5zM354.5 300q-5.5 -77 3 -138t37 -95t76.5 -34q92 0 171 146t124 374q21 94 27 171.5t-2.5 139t-38.5 95.5t-80 34 q-60 0 -116.5 -71.5t-99.5 -185t-77 -265.5q-19 -94 -24.5 -171zM1106 541q39 11 69 22t72.5 34.5t73 53t60 78.5t44.5 109q16 66 1.5 103.5t-48.5 37.5q-76 0 -140.5 -108t-131.5 -330z" />
<glyph unicode="&#x178;" horiz-adv-x="1468" d="M272 1427l9 39l346 -4l254 4l-9 -39l-149 -22l229 -709l482 682l4 25l-138 22l9 41l250 -4l176 4l-9 -41l-133 -26l-614 -801l-113 -537l140 -26l-9 -39l-235 4l-371 -4l8 39l154 22l117 551l-277 793zM422 1792q9 51 55.5 84t110.5 33q58 0 94 -33.5t27 -83.5 q-10 -50 -55.5 -78t-108.5 -28q-64 0 -98.5 28t-24.5 78zM887 1788q9 51 55.5 84t110.5 33q58 0 94 -33.5t27 -83.5q-10 -50 -55.5 -78.5t-108.5 -28.5t-98 28.5t-25 78.5z" />
<glyph unicode="&#x2c6;" horiz-adv-x="655" d="M209 1233l283 223h65l188 -223h-104l-131 160l-203 -160h-98z" />
<glyph unicode="&#x2dc;" horiz-adv-x="858" d="M285 1257q9 102 72 163t145 44q61 -11 124.5 -49t127.5 -51q49 -8 88 22.5t45 88.5l28 -11q-9 -102 -72 -163t-145 -44q-62 12 -124 50.5t-123 50.5q-53 8 -92.5 -22.5t-45.5 -88.5z" />
<glyph unicode="&#x2000;" horiz-adv-x="977" />
<glyph unicode="&#x2001;" horiz-adv-x="1955" />
<glyph unicode="&#x2002;" horiz-adv-x="977" />
<glyph unicode="&#x2003;" horiz-adv-x="1955" />
<glyph unicode="&#x2004;" horiz-adv-x="651" />
<glyph unicode="&#x2005;" horiz-adv-x="488" />
<glyph unicode="&#x2006;" horiz-adv-x="325" />
<glyph unicode="&#x2007;" horiz-adv-x="325" />
<glyph unicode="&#x2008;" horiz-adv-x="244" />
<glyph unicode="&#x2009;" horiz-adv-x="391" />
<glyph unicode="&#x200a;" horiz-adv-x="108" />
<glyph unicode="&#x2010;" horiz-adv-x="1036" d="M221 565l37 150h692l-37 -150h-692z" />
<glyph unicode="&#x2011;" horiz-adv-x="1036" d="M221 565l37 150h692l-37 -150h-692z" />
<glyph unicode="&#x2012;" horiz-adv-x="1036" d="M221 565l37 150h692l-37 -150h-692z" />
<glyph unicode="&#x2013;" horiz-adv-x="1093" d="M119 565l24 129h893l-26 -129h-891z" />
<glyph unicode="&#x2014;" horiz-adv-x="1296" d="M119 565l24 129h1096l-27 -129h-1093z" />
<glyph unicode="&#x2018;" horiz-adv-x="446" d="M285 1188q12 63 48 126t79.5 108.5t82.5 77t68 46.5l29 -45q-69 -48 -112.5 -97.5t-61.5 -127.5q44 -7 71 -46t19 -83q-9 -50 -47 -80.5t-90 -30.5q-47 0 -73 42.5t-13 109.5z" />
<glyph unicode="&#x2019;" horiz-adv-x="446" d="M74 1018q69 48 112.5 97.5t61.5 127.5q-44 7 -71 46t-19 83q9 50 47 80.5t90 30.5q47 0 73 -42.5t13 -109.5q-12 -63 -48 -126t-80 -108.5t-83 -77t-68 -46.5z" />
<glyph unicode="&#x201a;" horiz-adv-x="425" d="M-55 -262q69 48 112.5 97.5t61.5 127.5q-44 7 -71 46t-19 83q9 50 47 80.5t90 30.5q47 0 73 -42.5t13 -109.5q-12 -63 -48 -126t-80 -108.5t-83 -77t-68 -46.5z" />
<glyph unicode="&#x201c;" horiz-adv-x="759" d="M281 1167q12 63 48 126t79.5 109t82.5 77.5t68 46.5l29 -45q-69 -47 -112.5 -97.5t-61.5 -128.5q44 -7 71 -46t19 -83q-9 -50 -47 -80t-90 -30q-47 0 -73 42t-13 109zM586 1167q12 63 48 126t79.5 109t82.5 77.5t68 46.5l29 -45q-69 -47 -112.5 -97.5t-61.5 -128.5 q44 -7 71 -46t19 -83q-9 -50 -47 -80t-90 -30q-47 0 -73 42t-13 109z" />
<glyph unicode="&#x201d;" horiz-adv-x="747" d="M74 1018q69 48 112.5 97.5t61.5 127.5q-44 7 -71 46t-19 83q9 50 47 80.5t90 30.5q47 0 73 -42.5t13 -109.5q-12 -63 -48 -126t-80 -108.5t-83 -77t-68 -46.5zM365 1018q69 48 112.5 97.5t61.5 127.5q-44 7 -71 46t-19 83q9 50 47 80.5t90 30.5q47 0 73 -42.5t13 -109.5 q-12 -63 -48 -126t-80 -108.5t-83 -77t-68 -46.5z" />
<glyph unicode="&#x201e;" horiz-adv-x="724" d="M-55 -262q69 48 112.5 97.5t61.5 127.5q-44 7 -71 46t-19 83q9 50 47 80.5t90 30.5q47 0 73 -42.5t13 -109.5q-12 -63 -48 -126t-80 -108.5t-83 -77t-68 -46.5zM233 -262q70 48 113.5 97.5t61.5 127.5q-44 7 -71.5 46t-19.5 83q9 50 47.5 80.5t90.5 30.5q47 0 73 -42.5 t13 -109.5q-12 -63 -48 -126t-80 -108.5t-83 -77t-68 -46.5z" />
<glyph unicode="&#x2022;" horiz-adv-x="649" d="M131 641q20 97 94 155t172 58q94 0 148.5 -59t34.5 -154q-19 -99 -94 -161t-173 -62q-94 0 -146.5 62.5t-35.5 160.5z" />
<glyph unicode="&#x2026;" horiz-adv-x="1236" d="M-53 96q9 51 55.5 84t110.5 33q58 0 93.5 -33.5t26.5 -83.5q-10 -50 -55 -78t-108 -28q-64 0 -98.5 28t-24.5 78zM346 96q9 51 55.5 84t110.5 33q58 0 94 -33.5t27 -83.5q-10 -50 -55.5 -78t-108.5 -28q-64 0 -98.5 28t-24.5 78zM745 96q9 51 55.5 84t110.5 33 q58 0 94 -33.5t27 -83.5q-10 -50 -55.5 -78t-108.5 -28q-64 0 -98.5 28t-24.5 78z" />
<glyph unicode="&#x202f;" horiz-adv-x="391" />
<glyph unicode="&#x2039;" horiz-adv-x="563" d="M82 381l6 33l399 387l35 -25l-270 -381l119 -383l-41 -18z" />
<glyph unicode="&#x203a;" horiz-adv-x="563" d="M10 18l269 381l-121 383l45 19l246 -387l-7 -33l-397 -387z" />
<glyph unicode="&#x205f;" horiz-adv-x="488" />
<glyph unicode="&#x20ac;" horiz-adv-x="1431" d="M51 590l8 67h162q-1 -7 -3.5 -31t-2.5 -36h-164zM80 799l14 69h180q-18 -50 -22 -69h-172zM215 590h340q-28 -243 36.5 -389t194.5 -146q105 0 191 24t153.5 72.5t116.5 101.5t103 130l49 -21q-63 -115 -167 -201.5t-224 -130.5t-240 -44q-79 0 -157.5 21.5t-153.5 70 t-131 117t-87 171t-24 224.5zM221 657q5 30 15 76q2 14 16 66h344q-4 -12 -14 -64l-2 -4l-15 -74h-344zM274 868q44 123 118.5 227.5t159 174t178.5 118.5t180 71t161 22q253 0 340 -146l55 129h62l-90 -415h-54q0 177 -79 274.5t-244 97.5q-131 0 -251.5 -149.5 t-195.5 -403.5h-340zM555 590q2 22 10 67h576l-8 -67h-578zM596 799l18 69h560l-13 -69h-565z" />
<glyph unicode="&#x2122;" horiz-adv-x="1146" d="M244 1343l22 119h400l-23 -119h-22l4 19q6 37 -12 52.5t-58 15.5h-25l-67 -355l45 -4l-6 -22l-111 2l-110 -2l4 22l41 4l67 355h-26q-86 0 -97 -68l-4 -19h-22zM627 1049l2 20l47 6l61 322q4 23 -5.5 32t-29.5 13l5 20h145l96 -248l125 197l2 6l31 45h158l-2 -20l-43 -6 l-70 -357l35 -10l-2 -20l-109 2l-110 -2l2 20l47 6l43 236l-166 -260h-21l-104 284l-49 -256l47 -10l-2 -20l-70 2z" />
<glyph unicode="&#xe000;" horiz-adv-x="1054" d="M0 0v1055h1055v-1055h-1055z" />
</font>
</defs>
</svg>
