<?xml version="1.0" standalone="no"?>
<!DOCTYPE svg PUBLIC "-//W3C//DTD SVG 1.1//EN" "http://www.w3.org/Graphics/SVG/1.1/DTD/svg11.dtd" >
<svg xmlns="http://www.w3.org/2000/svg">
<metadata></metadata>
<defs>
<font id="serif12_beta_rgbold_italic" horiz-adv-x="1486" >
<font-face units-per-em="2048" ascent="1536" descent="-512" />
<missing-glyph horiz-adv-x="391" />
<glyph unicode="&#xfb01;" horiz-adv-x="1245" d="M-387 -383q9 40 47 69t90 29q24 0 41.5 -17.5t26.5 -38.5t26.5 -38.5t40.5 -17.5t48.5 36.5t57 126t60.5 222.5l195 936h-142l21 82l100 18h41l8 37q49 199 219.5 339t387.5 140q84 0 167 -22.5t139.5 -63.5t61.5 -88q3 -63 -48.5 -111.5t-119.5 -50.5q-43 -2 -72 19 t-34 66t31 114q-24 53 -156 53q-221 0 -277 -293l-28 -139h194l-26 -100h-189l-164 -789q-60 -288 -221.5 -462.5t-386.5 -174.5q-67 0 -109 37t-30 82zM722 140.5q1 63.5 21 140.5l162 628l-127 21l29 80l405 24l-198 -753q-20 -66 -24 -101t7 -50t39 -15q73 0 150 137 l59 -19q-54 -111 -165 -183t-226 -60q-66 4 -99.5 45.5t-32.5 105z" />
<glyph unicode="&#xfb02;" horiz-adv-x="1265" d="M-412 -403q11 49 50 83.5t90 34.5q28 0 49 -17.5t32 -38.5t30.5 -38.5t45.5 -17.5q23 0 48.5 36.5t57 126t60.5 222.5l197 936h-144l21 82l143 18l13 57q46 191 214.5 325t385.5 134q196 0 360 -82l96 8l-14 -57q0 -2 2 -2l-4 -2l-285 -1124q-28 -97 -22 -131.5t45 -34.5 q72 0 149 137l60 -19q-53 -111 -163 -183t-228 -60q-64 4 -97.5 45.5t-34 105t18.5 140.5l266 1060q13 55 -45 93.5t-151 38.5q-110 0 -172 -84t-105 -287l-16 -78h198l-26 -100h-193l-160 -789q-60 -288 -221.5 -462.5t-386.5 -174.5q-75 0 -125 31t-39 68z" />
<glyph horiz-adv-x="2048" />
<glyph horiz-adv-x="2048" />
<glyph unicode="&#xd;" horiz-adv-x="2048" />
<glyph unicode=" "  horiz-adv-x="391" />
<glyph unicode="&#x09;" horiz-adv-x="391" />
<glyph unicode="&#xa0;" horiz-adv-x="391" />
<glyph unicode="!" horiz-adv-x="641" d="M119 96q9 51 53.5 83t103.5 32q58 0 91 -32t26 -83q-10 -50 -54.5 -80t-105.5 -30q-57 0 -90.5 30t-23.5 80zM248 440l90 875q10 71 63.5 117.5t122.5 48.5q66 2 96 -44t11 -122l-254 -875q-6 -27 -61 -29q-51 -2 -65 18q-4 6 -3 11z" />
<glyph unicode="&#x22;" horiz-adv-x="755" d="M258 975l49 414q9 61 69 86q55 22 96 -3q43 -25 28 -83l-109 -414h-133zM545 975l49 414q9 60 68 85q54 23 95 -1q43 -26 29 -84l-108 -414h-133z" />
<glyph unicode="#" horiz-adv-x="1079" d="M51 424l21 88h250l153 422h-285l23 88h295l162 440h90l-162 -440h209l162 440h90l-162 -440h240l-23 -88h-248l-155 -422h284l-20 -88h-295l-156 -424h-90l154 424h-207l-156 -424h-90l154 424h-238zM412 512h209l153 422h-207z" />
<glyph unicode="$" horiz-adv-x="1107" d="M78 2l90 414l51 2q12 -93 28.5 -152.5t47.5 -106t80.5 -68.5t124.5 -25l147 522q-84 50 -108 65q-121 76 -192 140.5t-103 139.5t-11 157q23 93 83 169.5t138.5 123.5t164 72.5t165.5 25.5q54 0 113 -17l55 197h70l-64 -219q84 -41 117 -86l47 108h64l-86 -393h-53 q0 90 -30 162t-85 113l-146 -517q36 -25 64 -45.5t59 -45t54 -46.5t46.5 -47t39 -48t28.5 -49.5t18.5 -52.5t5.5 -54.5t-7 -57.5q-34 -131 -118 -222.5t-192 -134t-237 -46.5l-51 -181h-70l51 183q-209 15 -291 161l-51 -141h-57zM461 1148.5q0 -22.5 4.5 -41t15 -37 t22.5 -33.5t29.5 -31t34.5 -28.5t38.5 -27.5t40 -26.5t41.5 -26.5t40 -27l145 510q-49 19 -100 19q-127 0 -204 -54.5t-101 -150.5q-6 -23 -6 -45.5zM571 68q103 9 177 65t98 152q36 148 -139 264z" />
<glyph unicode="%" horiz-adv-x="1699" d="M297 0l1128 1462h91l-1129 -1462h-90zM317 1159q27 137 140.5 230.5t267.5 93.5q150 0 229 -94t54 -230q-29 -146 -141 -243t-269 -97q-150 0 -229 99t-52 241zM535 1159q-49 -260 79 -260q64 0 110.5 73t68.5 187q42 242 -86 242q-65 0 -108.5 -67.5t-63.5 -174.5z M811 319q29 138 140.5 231t267.5 93q149 0 229 -94.5t53 -229.5q-29 -145 -142 -242t-269 -97q-150 0 -228.5 98.5t-50.5 240.5zM1016 188q-1 -58 22.5 -93.5t69.5 -35.5q63 0 108 72t68 188q42 242 -84 242q-65 0 -107 -67t-63 -175q-13 -73 -14 -131z" />
<glyph unicode="&#x26;" horiz-adv-x="1415" d="M43 348q25 128 149.5 235.5t317.5 180.5l-39 76q-83 166 -45 331q26 132 146 218t282 86q127 0 203.5 -69t52.5 -189q-9 -47 -34.5 -91.5t-56 -77.5t-77 -68t-82.5 -57t-88 -51l158 -317q58 -117 104 -190q36 47 70 106q3 27 -2 73.5t2 73.5q7 33 30 57.5t56 24.5 q82 0 39 -125q-54 -141 -158 -268q95 -129 182 -129q42 0 84 45l27 -28q-63 -91 -144.5 -150t-156.5 -59q-118 0 -209 123q-186 -125 -383 -125q-236 0 -349.5 92.5t-78.5 271.5zM354 379q-23 -119 48 -199t202 -80q101 0 213 64q-39 63 -184 360l-96 187 q-88 -79 -123 -146.5t-60 -185.5zM690 1212q-14 -72 4 -140.5t60 -158.5q137 111 170 283q18 97 -5.5 148t-78.5 51q-49 0 -90.5 -47.5t-59.5 -135.5z" />
<glyph unicode="'" horiz-adv-x="378" d="M219 975l49 414q9 61 69 86q55 22 96 -3q43 -25 28 -83l-109 -414h-133z" />
<glyph unicode="(" horiz-adv-x="686" d="M115.5 345.5q4.5 131.5 29.5 262.5q39 201 135.5 400t247 367t324.5 251l10 -31q-89 -69 -168.5 -186.5t-137 -255.5t-98 -274.5t-65.5 -270.5q-30 -149 -44 -296t-12 -292.5t34 -267t94 -190.5l-16 -31q-87 50 -153.5 136t-106.5 192.5t-59 230.5t-14.5 255.5z" />
<glyph unicode=")" horiz-adv-x="686" d="M-139 -438q89 69 167.5 186.5t135.5 255.5t97 274t65 271q30 149 45 295.5t14 293t-32 267.5t-91 190l14 31q85 -50 150.5 -135.5t105 -192.5t58 -231t14 -255.5t-30.5 -262.5q-28 -149 -91.5 -302t-152.5 -290t-209 -250t-251 -176z" />
<glyph unicode="*" horiz-adv-x="987" d="M195 1153l55 109l268 -109l51 315h113l-70 -313l314 109l12 -111l-320 -86l144 -244l-107 -65l-120 250l-218 -250l-79 65l233 242z" />
<glyph unicode="+" horiz-adv-x="987" d="M76 559l18 109h381l70 356h108l-69 -356h377l-21 -109h-379l-69 -358h-109l70 358h-377z" />
<glyph unicode="," horiz-adv-x="430" d="M-55 -262q70 47 114 97t62 128q-44 8 -71.5 46.5t-20.5 82.5q9 50 47.5 80.5t91.5 30.5q47 0 73 -42.5t13 -109.5q-12 -63 -48 -126t-80 -108.5t-83.5 -77t-69.5 -46.5z" />
<glyph unicode="-" horiz-adv-x="1048" d="M223 565l37 150h701l-37 -150h-701z" />
<glyph unicode="." horiz-adv-x="378" d="M-12 92q29 111 176 111q67 0 97 -29.5t18 -81.5q-29 -115 -173 -115q-70 0 -100 31t-18 84z" />
<glyph unicode="/" horiz-adv-x="944" d="M-66 -221l1039 1718h90l-1038 -1718h-91z" />
<glyph unicode="0" horiz-adv-x="1384" d="M186.5 489.5q-3.5 112.5 20.5 241.5q31 160 98.5 297.5t163 238.5t221.5 158.5t266 57.5q132 0 233.5 -57.5t158.5 -158.5t76 -238.5t-15 -297.5q-42 -215 -145 -383t-260.5 -267t-344.5 -99q-106 0 -193.5 37t-146 104t-94 160.5t-39 206zM512 731q-137 -665 168 -665 q75 0 140.5 49.5t117 141.5t92 209.5t72.5 264.5q139 666 -166 666q-76 0 -142.5 -50.5t-118.5 -143t-92 -209.5t-71 -263z" />
<glyph unicode="1" horiz-adv-x="700" d="M2 -4l21 92l167 23l220 1124h-162l20 82q94 5 180 40.5t136 104.5l137 4l-262 -1351l159 -27l-20 -92l-297 4z" />
<glyph unicode="2" horiz-adv-x="1034" d="M0 0l20 113q192 155 317.5 262.5t227.5 206t162 178.5t99 157.5t61 165.5q35 140 -4 199t-162 59q-95 0 -166 -79q1 -10 5.5 -35t6.5 -38.5t3.5 -39.5t-3.5 -37q-16 -65 -68.5 -107t-133.5 -42q-50 0 -75.5 26.5t-24.5 66.5t18 85.5t47 85.5q100 109 241.5 177.5 t278.5 68.5q48 0 91.5 -5.5t86.5 -18.5t77.5 -33t61.5 -51.5t41 -72t14.5 -95.5t-16.5 -120q-11 -44 -35 -90.5t-53.5 -88.5t-77 -91.5t-88.5 -88.5t-106 -90.5t-112.5 -87.5t-124.5 -90t-125 -86.5t-130 -87.5l6 -34h576l37 55l78 -2l-117 -295h-934z" />
<glyph unicode="3" horiz-adv-x="1169" d="M55 168q-21 104 31 191t131 87q60 0 83.5 -47t8.5 -110q-7 -47 -49 -117q10 -42 82 -71t137 -29q114 0 195.5 80t111.5 235q36 183 -55 256t-317 29l-11 98l-6 31q123 15 212.5 43t139.5 57.5t82.5 73.5t44 77.5t21.5 84.5q19 95 -21 169t-137 74q-112 0 -202 -67 q0 -4 1.5 -17.5t1.5 -17.5t0.5 -15.5t0.5 -17.5t-0.5 -17t-1.5 -19.5t-2.5 -20t-4.5 -23.5q-13 -63 -58.5 -96t-108.5 -33q-49 0 -69.5 39t-10.5 94.5t45 104.5q53 73 142 121.5t170 66t157 17.5q65 0 126 -12.5t116 -40t93.5 -67t55 -99t2.5 -130.5q-27 -130 -153.5 -225 t-352.5 -141l4 -21q120 -1 209 -31.5t136 -81.5t64 -114.5t3 -134.5q-21 -104 -85.5 -183t-158 -125t-199 -68.5t-219.5 -22.5q-134 0 -246.5 57t-138.5 129z" />
<glyph unicode="4" horiz-adv-x="1161" d="M53 332l15 67h2q163 193 283 345.5t210 283.5t144 216t133 218l200 -2l-807 -1044h367l94 430h267l-95 -430h244l-37 -84h-225l-57 -264l151 -27l-8 -45l-246 4l-334 -4l8 45l162 22l58 269h-529z" />
<glyph unicode="5" horiz-adv-x="1114" d="M55 168q-16 63 2.5 124t61.5 97.5t94 36.5q59 0 83 -40.5t13 -96.5q-13 -67 -53 -133q10 -36 60.5 -60t103.5 -24q134 0 230 108t126 275q36 184 -18 266t-205 82q-135 0 -238 -76l-94 2l172 733h703l-43 -311h-66q-4 36 -29 56t-94 20h-440l-90 -398q70 52 162.5 83.5 t181.5 31.5q83 0 150.5 -19t112 -51.5t76.5 -77t44 -95t15 -105t-11 -107.5q-30 -155 -125.5 -271t-235.5 -176t-305 -60q-122 0 -221.5 57t-122.5 129z" />
<glyph unicode="6" horiz-adv-x="1232" d="M143.5 478.5q1.5 58.5 12.5 115.5q38 199 121.5 368.5t190.5 281t228.5 173.5t239.5 62q48 0 96 -9.5t94 -30.5t76.5 -54t44.5 -79t-2 -106q-14 -53 -50.5 -80.5t-74.5 -27.5q-49 0 -74 29t-28 73q-8 28 1 67t38 70q-26 26 -50 35.5t-63 9.5q-158 0 -274.5 -183 t-192.5 -519h23q57 110 157 167.5t195 57.5q205 0 299.5 -115t58.5 -299q-19 -92 -78.5 -182t-142.5 -159t-189.5 -111.5t-213.5 -42.5q-81 0 -149 20t-116 54.5t-83.5 81.5t-56 101t-30 113.5t-8 118zM435.5 419q-4.5 -58 1.5 -122t25.5 -108t62 -72.5t106.5 -28.5 q113 0 178.5 92t97.5 256q33 161 -1.5 253.5t-137.5 92.5q-93 0 -179.5 -62t-137.5 -173q-11 -70 -15.5 -128z" />
<glyph unicode="7" horiz-adv-x="909" d="M156 1147l94 315h860l-18 -102q-492 -576 -551 -1223q-9 -70 -50 -109.5t-110 -39.5q-64 0 -93 40.5t-12 108.5q52 254 191.5 510.5t404.5 528.5l29 45h-655l-47 -76z" />
<glyph unicode="8" horiz-adv-x="1101" d="M49 334q24 121 125 209t256 135l14 22q-251 161 -206 387q30 163 179.5 276.5t354.5 113.5q198 0 311 -95.5t86 -232.5q-18 -105 -105 -185t-212 -120l-25 -37q299 -176 254 -412q-32 -171 -193 -290t-384 -119q-227 0 -355 101.5t-100 246.5zM295 354q-24 -128 29 -206 t198 -78q118 0 191 73.5t96 190.5q35 190 -227 297q-32 11 -56 24q-93 -36 -151 -117.5t-80 -183.5zM510 1149q-35 -173 190 -277l66 -32q118 88 160 288q21 118 -18 190.5t-154 72.5q-99 0 -161.5 -68t-82.5 -174z" />
<glyph unicode="9" horiz-adv-x="1120" d="M90 197q-13 78 31 149.5t115 71.5q59 0 80.5 -36t9.5 -114q-7 -33 -35 -77t-64 -80q52 -25 123 -25q97 0 174.5 47.5t135.5 141t100 214.5t76 285l-29 6q-36 -73 -92 -122t-108.5 -67t-104.5 -18q-191 0 -279 120.5t-51 312.5q18 88 74 174t134.5 152t180 106.5 t203.5 40.5q89 0 159.5 -30t114.5 -83t72.5 -120t38 -145t7 -155t-16.5 -153q-26 -130 -83.5 -254t-134.5 -222t-165 -172.5t-181 -114.5t-176 -40q-131 0 -213.5 61.5t-93.5 143.5zM440 993q-29 -147 5 -235t135 -88q82 0 159 69t123 195q65 444 -145 444q-206 0 -277 -385 z" />
<glyph unicode=":" horiz-adv-x="458" d="M-6 96q9 51 53.5 83t106.5 32q55 0 88 -32.5t24 -82.5q-10 -50 -54 -80t-103 -30q-60 0 -92.5 30t-22.5 80zM66 844q9 51 53 82.5t106 31.5q55 0 88.5 -32t24.5 -82q-10 -50 -54.5 -80.5t-103.5 -30.5q-60 0 -92 30.5t-22 80.5z" />
<glyph unicode=";" horiz-adv-x="473" d="M-39 -262q70 47 114 97t62 128q-44 8 -71.5 46.5t-20.5 82.5q9 50 47.5 80.5t91.5 30.5q47 0 73 -42.5t13 -109.5q-12 -63 -48 -126t-79.5 -108.5t-83 -77t-69.5 -46.5zM63 844q9 51 53.5 82.5t106.5 31.5q55 0 88.5 -32t24.5 -82q-10 -50 -54.5 -80.5t-103.5 -30.5 q-60 0 -92.5 30.5t-22.5 80.5z" />
<glyph unicode="&#x3c;" horiz-adv-x="862" d="M57 549l21 96l844 346l-19 -88l-727 -305l610 -295l-18 -98z" />
<glyph unicode="=" horiz-adv-x="1069" d="M70 416l20 108h905l-20 -108h-905zM133 750l25 108h905l-25 -108h-905z" />
<glyph unicode="&#x3e;" horiz-adv-x="862" d="M-8 205l18 88l721 305l-602 295l18 98l707 -344l-20 -96z" />
<glyph unicode="?" horiz-adv-x="999" d="M217.5 1157.5q9.5 55.5 42.5 102.5q87 101 212 163t251 62q86 0 154.5 -19.5t116.5 -58.5t66.5 -103t2.5 -147q-30 -149 -140 -254t-288 -190l-62 -314q-5 -25 -64.5 -35t-115.5 0.5t-51 34.5l41 234q159 62 260 193t127 270q31 153 -8 236t-139 83q-112 0 -199 -61 q56 -98 37 -180q-11 -62 -57 -106t-115 -44q-43 0 -62 39t-9.5 94.5zM264 96q9 51 54.5 83t105.5 32q57 0 91.5 -32.5t25.5 -82.5q-10 -50 -54.5 -80t-105.5 -30q-60 0 -93.5 30t-23.5 80z" />
<glyph unicode="@" horiz-adv-x="1818" d="M100.5 209q-7.5 89 12.5 184q33 165 110 311t183 254.5t234.5 187t270 118.5t283.5 39q103 0 189 -18.5t148.5 -51t109.5 -78.5t75 -101t41 -118.5t11.5 -130.5t-15.5 -139q-19 -103 -82 -210t-149.5 -191t-194.5 -137.5t-209 -53.5q-49 0 -77.5 22.5t-36 73.5t17.5 133 v4h-23q-26 -53 -69 -105.5t-113.5 -95.5t-142.5 -43q-109 0 -154 100.5t-2 246.5q30 109 83.5 200t113 149t124.5 98.5t119 57.5t95 17q54 0 87 -16t56 -58l37 60h129l-191 -613q-16 -54 -20.5 -87.5t4 -50t22.5 -21.5t40 -5q76 0 161.5 78t149 195t84.5 231q15 92 15 177.5 t-30 161t-80.5 131.5t-136.5 88.5t-198 33.5q-119 1 -237.5 -35t-227.5 -108t-199 -172t-157 -236t-97 -293q-19 -109 -15 -206t39.5 -177.5t93.5 -138.5t148.5 -90.5t204.5 -32.5q310 0 541 184l14 -24q-119 -104 -264 -163.5t-342 -59.5q-105 0 -196.5 26t-158.5 73 t-118.5 112.5t-77 144.5t-33 168zM667 239.5q23 -67.5 105 -67.5q50 0 102 40t96.5 105.5t71 113.5t50.5 99l43 142q31 98 3 149t-120 51q-87 0 -178.5 -108t-159.5 -334q-36 -123 -13 -190.5z" />
<glyph unicode="A" d="M-76 -4l13 55l151 27l891 1378h162l106 -1378l144 -27l-13 -55l-307 4l-295 -4l12 55l156 23l-20 356h-506l-230 -356l148 -23l-12 -55l-199 4zM485 532h435l-35 621z" />
<glyph unicode="B" horiz-adv-x="1472" d="M20 -4l17 72l158 22l266 1276l-154 18l21 78h583q281 0 429 -104q120 -85 121 -206q0 -28 -7 -58q-58 -278 -487 -342v-13q109 -10 192.5 -34.5t144.5 -66.5q62 -44 86 -110q14 -37 13 -81q0 -34 -8 -72q-35 -164 -219 -269.5t-478 -105.5h-385zM471 94l2 -2h225h7 q88 0 160 25q75 26 122.5 69.5t75.5 92.5t39 102q8 37 8 71.5t-8 70t-30 64.5t-56 52t-89 35q-51 11 -115 10h-11h-205zM616 786h117h17q74 0 136 16q70 18 116 46.5t80.5 69.5t53 82t27.5 87q5 36 5 72v7q0 40 -20 77t-52 65t-89 44q-54 16 -124 16h-9l-135 -2z" />
<glyph unicode="C" horiz-adv-x="1361" d="M155 496q-1 23 -1 46q0 88 20 191q26 126 80.5 236.5t125.5 190.5t153.5 143t168.5 101t166 57.5t150 19.5q127 0 214 -41t116 -105l55 129h80l-94 -434h-70q-3 170 -80.5 265.5t-237.5 95.5q-167 0 -308 -180.5t-204 -475.5l-2 -4q-26 -128 -25 -233q0 -55 6 -105 q20 -143 93.5 -224t181.5 -81q190 0 308.5 66t236.5 235l72 -22q-110 -190 -279 -285.5t-364 -95.5q-74 0 -148 19t-145.5 58.5t-128 99.5t-95 143.5t-45.5 189.5z" />
<glyph unicode="D" horiz-adv-x="1550" d="M20 -4l17 72l158 22l266 1276l-154 18l21 78h563q179 0 322 -58t228.5 -155t118.5 -227q17 -68 18 -139q0 -65 -15 -133q-37 -179 -129.5 -322.5t-222 -236.5t-288 -142t-333.5 -49h-277zM471 94l115 -2h12q116 0 216 37q106 39 179.5 103.5t131.5 153t92.5 176 t54.5 181.5q16 72 16 144v5q0 69 -14 138q-14 71 -48 131.5t-85.5 107.5t-131 73t-178.5 26l-92 -2z" />
<glyph unicode="E" horiz-adv-x="1320" d="M20 -4l17 72l158 22l266 1276l-154 18l21 78h1081l-76 -383h-71l12 64q5 25 5 48q1 79 -69 123q-86 54 -252 54h-12l-207 -2l-125 -586h9h10q258 0 293 152l8 41h65l-100 -475h-68l9 41q3 16 3 30q0 57 -51 85q-61 34 -177 34h-13h-6l-125 -594l274 -2h10q368 0 416 227 l15 64h69l-81 -383h-904z" />
<glyph unicode="F" horiz-adv-x="1230" d="M20 -4l17 72l158 22l266 1276l-154 18l21 78h1124l-76 -383h-71l12 64q5 25 5 48q0 79 -70 123q-86 54 -251 54h-12l-250 -2l-123 -586h97h10q252 0 287 152l8 41h69l-100 -475h-69l8 41q3 15 3 28q1 59 -51 88q-59 33 -173 33h-13h-96l-125 -594l154 -16l-19 -82l-293 4 z" />
<glyph unicode="G" horiz-adv-x="1622" d="M158 496q-3 29 -3 61q0 81 19 176q31 151 108 278.5t174.5 212t211 144.5t219 86.5t198.5 26.5q146 0 259.5 -33.5t158.5 -71.5l43 88h82l-80 -374h-69q-16 143 -117.5 226t-292.5 83q-197 0 -357 -184t-223 -480l-2 -4q-23 -120 -23 -222q0 -68 10 -127 q26 -148 110.5 -232t208.5 -84q75 0 136 12.5t96.5 30t60.5 39.5t34.5 38t12.5 29l69 324l-151 39l14 61l297 -6l274 8l-12 -57l-141 -41l-78 -377q-95 -77 -276.5 -128.5t-356.5 -51.5q-80 0 -160.5 19t-158.5 58.5t-139 99.5t-103.5 143t-52.5 190z" />
<glyph unicode="H" horiz-adv-x="1697" d="M20 -4l17 72l158 22l266 1276l-154 18l21 78l286 -4l295 4l-18 -78l-152 -18l-125 -594h672l125 594l-151 18l20 78l289 -4l289 4l-19 -78l-147 -18l-269 -1272l148 -26l-17 -72l-288 4l-291 -4l16 72l154 22l121 578h-674l-121 -574l143 -26l-16 -72l-285 4z" />
<glyph unicode="I" horiz-adv-x="745" d="M20 -4l17 72l158 22l266 1276l-154 18l21 78l286 -6l295 6l-18 -78l-152 -18l-268 -1272l143 -26l-16 -72l-285 4z" />
<glyph unicode="J" horiz-adv-x="942" d="M-45 106q9 48 47 83.5t86 35.5q31 0 53 -10t32.5 -25t22 -32.5t21.5 -32.5t30.5 -25t49.5 -10q138 0 213 326l203 950l-152 18l21 78l290 -6l289 6l-18 -78l-154 -22l-166 -799q-57 -262 -231.5 -418.5t-437.5 -156.5q-96 0 -154 31q-47 25 -47 67q0 10 2 20z" />
<glyph unicode="K" horiz-adv-x="1572" d="M20 -4l17 72l158 22l266 1276l-154 18l21 78l286 -6l295 6l-18 -78l-152 -18l-155 -737l723 698l2 33l-135 8l24 94l244 -4l215 4l-21 -92l-166 -18l-546 -500l448 -746l115 -24l-21 -76l-274 -2l-326 -2l19 74l149 24l4 23l-327 536l-150 -135l-90 -430l143 -26l-16 -72 l-285 4z" />
<glyph unicode="L" horiz-adv-x="1316" d="M20 -4l17 72l158 22l266 1276l-154 18l21 78l286 -6l295 6l-18 -78l-152 -18l-268 -1272h295h15q57 0 105 7q54 8 106 29.5t90.5 55.5t68 88.5t45.5 126.5l14 64h82l-100 -465h-879z" />
<glyph unicode="M" horiz-adv-x="1996" d="M14 -4l21 72l168 22l237 1151q4 21 4.5 38t-4 30t-10.5 23.5t-16.5 18t-21 13t-26 9.5t-28.5 6t-31 5l21 78h309l387 -1122l752 1122h385l-19 -78l-145 -18l-268 -1272l143 -26l-17 -72l-282 4l-297 -4l16 72l156 22l211 1022l-744 -1112h-57l-354 1020l-197 -926 l168 -26l-16 -72l-205 4z" />
<glyph unicode="N" horiz-adv-x="1581" d="M16 -4l25 90l168 23l229 1114q4 21 4.5 38t-4 30t-11 23.5t-17.5 18t-21.5 13t-26 9.5t-28.5 6t-31 5l25 96l295 -6l680 -1100l208 987l-178 27l23 92l211 -4l243 4l-22 -92l-168 -22l-277 -1348h-137l-682 1090l-207 -977l164 -27l-18 -90l-209 4z" />
<glyph unicode="O" horiz-adv-x="1656" d="M174 731q34 159 115 297t197 239t269 158.5t322 57.5q126 0 233.5 -37.5t183.5 -104.5t125.5 -161t59.5 -207q3 -33 3 -68q0 -83 -17 -174q-34 -159 -116 -296.5t-198 -238t-268.5 -157.5t-320.5 -57q-214 0 -364.5 98t-209.5 269q-33 97 -33 207q0 84 19 175zM457 466 v-7q0 -113 29 -201q30 -92 104.5 -142t189.5 -50q105 0 198 50.5t164 140.5t122.5 210t81.5 264q24 115 30 213q1 26 1 52q0 70 -11 132q-15 84 -52 143t-102 92.5t-155 33.5q-143 0 -260 -89.5t-192.5 -236.5t-115.5 -340q-31 -147 -32 -265z" />
<glyph unicode="P" horiz-adv-x="1398" d="M20 -4l17 72l158 22l122 592v2l144 682l-154 18l21 78h633q311 0 463 -114q120 -91 120 -224q0 -34 -8 -71q-28 -140 -145 -244.5t-277 -155.5t-338 -51h-198l-107 -508l143 -26l-16 -72l-285 4zM602 705l205 -3h16q75 0 137 18q70 20 116.5 52.5t82 79.5t55 94t31.5 101 q8 29 8 58q0 9 -1 18q-3 38 -12.5 73.5t-35.5 66t-62 52.5t-92.5 34.5t-127.5 12.5l-185 -2z" />
<glyph unicode="Q" horiz-adv-x="1556" d="M168 731q34 159 115 297t197 239t269 158.5t322 57.5q126 0 233.5 -37.5t183.5 -104.5t125.5 -161t59.5 -207q3 -33 3 -68q0 -83 -17 -174q-33 -152 -109.5 -285t-185.5 -231.5t-251 -159.5t-300 -71l-188 -86q69 -15 125.5 -41t92.5 -51.5t72 -49.5t82.5 -38.5 t104.5 -14.5q70 0 109 6t75 25q5 2 8.5 12t6.5 20.5t14 19.5t28 9q28 0 37.5 -18.5t-10.5 -30.5q-36 -37 -63.5 -63t-81 -69t-109 -67t-106.5 -24q-100 0 -183.5 25t-133 56.5t-119.5 73t-132 62.5q-16 6 -34 6q-47 0 -109 -39q-36 34 -36 56q0 31 69 40l364 181 q-196 13 -332 113.5t-188 266.5q-28 90 -28 191q0 84 20 176zM451 466v-7q0 -113 29 -201q30 -92 104.5 -142t189.5 -50q105 0 198 50.5t163.5 140.5t122 210t81.5 264q31 147 31 267q0 115 -30 206q-31 92 -104 142.5t-185 50.5q-143 0 -260 -89.5t-192.5 -236.5 t-115.5 -340q-31 -147 -32 -265z" />
<glyph unicode="R" horiz-adv-x="1591" d="M20 -4l17 72l158 22l266 1276l-154 18l21 78h583q281 0 429 -104q120 -85 121 -206q0 -28 -7 -58q-31 -146 -161 -231t-335 -118q0 -14 3 -14q151 -3 241 -97q82 -86 83 -212q0 -11 -1 -23l-6 -75q-1 -17 -1 -32q0 -84 28 -124q33 -46 102 -47q48 0 96 39l27 -58 q-148 -114 -320 -114q-122 0 -169.5 84t-49.5 250l4 79q1 14 1 27q0 37 -4 72q-6 47 -20.5 89.5t-44 67.5t-69.5 25h-151h-5h-108l-123 -588l143 -26l-16 -72l-285 4zM616 784h117h17q76 0 138 16q70 18 115.5 47t79.5 70t52.5 82.5t27.5 87.5q5 36 5 72v7q0 40 -20.5 77 t-52.5 65t-89 44q-54 16 -123 16h-9h-135z" />
<glyph unicode="S" horiz-adv-x="1148" d="M78 2l90 414l51 2q13 -97 30 -157.5t51 -107.5t88 -67t136 -20q121 0 208 56.5t114 162.5q10 28 6.5 56.5t-8.5 50.5t-20.5 45t-30.5 40.5t-37.5 36t-42.5 32.5t-45.5 30t-46 27.5t-43.5 25.5t-39 24q-121 76 -192 140.5t-103 139.5q-19 45 -19 93q0 31 8 64 q23 93 83 169.5t138.5 123.5t164 72.5t165.5 25.5q99 0 176.5 -39.5t114.5 -85.5l47 108h64l-86 -393h-53q0 145 -74 236.5t-201 91.5t-204 -54.5t-101 -150.5q-7 -25 -6 -49q-1 -23 5 -43q12 -42 49 -77.5t74 -61.5t92 -60.5t85 -58.5q38 -26 67.5 -47t62.5 -46.5t57.5 -48 t49 -48.5t41.5 -50t31 -51t20 -54t5.5 -56.5t-6.5 -59.5q-26 -102 -83 -181t-134.5 -126.5t-167.5 -71.5t-189 -24q-240 0 -334 163l-51 -141h-57z" />
<glyph unicode="T" horiz-adv-x="1343" d="M203 1081l86 381h1302l-80 -381h-79l10 62q9 31 9 58q0 7 -1 13q-3 32 -10.5 55.5t-26.5 40.5t-41 28t-54 17.5t-64.5 8.5t-73.5 2h-115l-268 -1276l145 -18l-20 -76l-283 6l-291 -6l19 76l147 18l266 1276h-116h-14q-62 0 -112 -8q-54 -9 -104 -32t-82.5 -69t-48.5 -114 l-12 -62h-88z" />
<glyph unicode="U" horiz-adv-x="1587" d="M216 282q-10 36 -9 75q0 41 10 87l193 922l-154 18l20 78l287 -6l295 6l-18 -78l-152 -18l-192 -917q-9 -42 -9 -78.5t9 -68.5q18 -64 65.5 -104t113.5 -60.5t148 -20.5q389 0 463 352l189 897l-142 18l19 78l204 -6l193 6l-16 -78l-154 -18l-188 -901 q-51 -229 -229.5 -349t-430.5 -120q-91 0 -174.5 17.5t-154.5 53.5t-118.5 89.5t-67.5 125.5z" />
<glyph unicode="V" horiz-adv-x="1466" d="M262 1386l21 74l309 -4l311 4l-22 -74l-172 -22l104 -1006l629 1006l-148 22l27 74l219 -4l195 4l-23 -74l-153 -26l-852 -1360h-140l-168 1360z" />
<glyph unicode="W" horiz-adv-x="2060" d="M262 1386l21 78l335 -4l261 2l-21 -86l-153 -22l-17 -19l103 -993l536 1120h123l221 -1114l363 991l4 17l-158 26l18 78l211 -4l220 4l-21 -82l-147 -28l-519 -1350h-212l-195 1040l-510 -1040h-193l-151 1352z" />
<glyph unicode="X" horiz-adv-x="1517" d="M-6 -6l18 72l135 26l562 592l-275 682l-125 27l19 73l270 -4l324 4l-19 -73l-147 -23l170 -452l426 452l-140 23l19 73l182 -4l209 4l-18 -73l-138 -27l-510 -528l21 -54l289 -692l125 -26l-19 -72l-299 4l-313 -4l18 72l152 22l-193 518l-475 -518l137 -22l-18 -72 l-186 4z" />
<glyph unicode="Y" horiz-adv-x="1454" d="M266 1393l17 73l313 -4l256 4l-16 -73l-152 -23l246 -678l469 651l4 25l-139 23l16 75l262 -4l178 4l-16 -75l-135 -27l-613 -770l-104 -500l141 -26l-16 -72l-238 4l-342 -4l17 72l157 22l109 512l-293 764z" />
<glyph unicode="Z" horiz-adv-x="1298" d="M45 -2l14 80l942 1284h-258h-13q-39 0 -61 -0.5t-61.5 -3.5t-64.5 -9.5t-59 -19.5t-56.5 -31.5t-45 -47.5t-36.5 -66l-22 -68l-82 4l98 340h1008l-13 -51l-952 -1309l401 2q151 0 247 63t112 138l14 70l92 -2l-90 -373h-1114z" />
<glyph unicode="[" horiz-adv-x="700" d="M98 -309l371 1894h389l-16 -78l-183 -18l-327 -1698l176 -27l-16 -73h-394z" />
<glyph unicode="\" horiz-adv-x="944" d="M272 1497h86l369 -1718h-90z" />
<glyph unicode="]" horiz-adv-x="700" d="M-78 -309l19 78l180 18l328 1698l-173 26l17 74h385l-369 -1894h-387z" />
<glyph unicode="^" horiz-adv-x="661" d="M139 885l336 571h94l111 -571h-100l-86 471l-261 -471h-94z" />
<glyph unicode="_" horiz-adv-x="987" d="M-68 -176l17 88h866l-18 -88h-865z" />
<glyph unicode="`" horiz-adv-x="569" d="M334 1419q9 34 39.5 54.5t62.5 13.5q35 -8 43 -39l107 -256l-51 -35l-189 197q-24 30 -12 65z" />
<glyph unicode="a" horiz-adv-x="1196" d="M70 196q-2 20 -1 40q0 78 25 174q38 133 102 243.5t135 181t148.5 119.5t143.5 69.5t120 20.5t89 -21t55 -71l49 72h223l-215 -741q-20 -73 -24 -112.5t5.5 -56t35.5 -16.5q42 0 87 46t87 128l57 -18q-58 -121 -172 -199q-98 -67 -198 -67q-17 0 -34 2q-61 4 -92.5 40.5 t-32.5 92.5v8q0 53 13 117l-29 8q-25 -44 -56.5 -85t-76 -84.5t-102 -70t-117.5 -26.5q-99 0 -158 56t-67 150zM367 438q-31 -114 -31 -185q0 -114 82 -114q55 0 113.5 50t107 128.5t77 134t50.5 107.5l49 170q18 55 18 96q-1 33 -13 59q-26 56 -118 56q-83 0 -173 -124 t-162 -378z" />
<glyph unicode="b" horiz-adv-x="1140" d="M125 350l295 1039l-121 20l27 80l395 24l-193 -669l54 -8q67 99 141 153.5t145 54.5q90 0 153 -39.5t91.5 -108t28.5 -159t-31 -192.5q-21 -95 -79 -190t-142.5 -175t-201.5 -130t-243 -50q-23 0 -49 3t-59.5 10t-64.5 20t-61 30.5t-52 44.5q-22 28 -36 62q-13 32 -14 76 q0 48 17 104zM374 162q24 -70 99 -70q62 0 122 42.5t106 111.5t80.5 145t56.5 154q42 150 42 238q0 126 -85 126q-76 0 -173.5 -84.5t-158.5 -212.5l-80 -278q-19 -58 -20 -107q1 -35 11 -65z" />
<glyph unicode="c" horiz-adv-x="954" d="M102 338q-1 15 -1 30q0 55 10 111q25 105 76 204t121.5 180.5t165.5 131t198 49.5q94 0 164.5 -33.5t93.5 -101.5q10 -22 9 -49q-1 -10 -1 -20q-4 -38 -17.5 -72.5t-44 -58t-69.5 -23.5q-50 0 -79 38q-21 27 -21 59q0 13 4 26q5 29 20 52.5t49 64.5q-33 24 -94 24 q-70 0 -129.5 -61.5t-100.5 -162.5t-71 -239q-10 -56 -9 -105q0 -88 31 -156q49 -104 166 -105q80 0 159 51.5t138 155.5l70 -15q-76 -149 -204.5 -241t-256.5 -92q-83 0 -153 29.5t-115 79.5t-75 114.5t-34 134.5z" />
<glyph unicode="d" horiz-adv-x="1234" d="M84 325q4 72 27 148q23 81 62.5 161t97.5 154t127.5 131t157 91t179.5 34q94 0 156 -53l92 398l-125 20l27 80l393 24l-293 -1232q-27 -96 -27 -136v-9q4 -38 46 -38q78 0 172 174l57 -18q-57 -121 -173 -199q-99 -67 -200 -67q-17 0 -33 2q-79 4 -107 60q-20 38 -19 93 q0 25 4 54l-48 8q-58 -105 -138.5 -165t-153.5 -60q-75 0 -132 27t-90 74t-48 109q-12 48 -12 102q0 16 1 33zM383 473q-39 -134 -39 -216q0 -132 100 -132q75 0 172 100t154 254l70 295l-2 -2q9 25 9 50q0 8 -1 14q-3 32 -15 57t-44 41t-80 16q-70 0 -131 -61.5 t-106.5 -164t-86.5 -251.5z" />
<glyph unicode="e" horiz-adv-x="970" d="M98 342q2 70 23 141q29 102 84.5 199.5t133.5 179.5t183.5 132t220.5 50q131 0 205 -58q54 -43 54 -111q0 -25 -7 -52q-18 -73 -74 -134.5t-124.5 -100t-152 -68t-145 -43.5t-114.5 -20q-16 -66 -18 -124v-15q0 -50 11 -94q13 -52 51.5 -82.5t100.5 -30.5q79 0 168 52.5 t154 151.5l63 -20q-97 -145 -228.5 -230t-260.5 -85q-87 0 -152.5 30t-103.5 80t-56 116q-16 58 -16 119v17zM408 539q44 9 78.5 19t82.5 32.5t83.5 50.5t67 74.5t46.5 103.5q5 24 5 43q0 28 -11 48q-19 34 -62 34q-86 0 -156.5 -101.5t-133.5 -303.5z" />
<glyph unicode="f" horiz-adv-x="614" d="M-346 -403q5 24 31 40.5t67 16.5q34 0 70 -25.5t69 -25.5q46 0 94 93t91 292l180 936h-135l20 82l133 18l9 37q42 202 177 323t304 121q86 0 150 -35t63 -98q1 -32 -27.5 -55t-70.5 -25h-9q-50 0 -72 32q-16 24 -16 55q0 14 4 30q-8 12 -51 12q-49 0 -96 -66.5 t-78 -209.5l-24 -121h233l-27 -100h-227l-160 -789q-57 -290 -210 -463.5t-377 -173.5q-58 0 -93 31q-25 23 -25 49q0 9 3 19z" />
<glyph unicode="g" horiz-adv-x="1034" d="M-90 -283q19 78 95 131.5t255 92.5l8 32q-126 58 -126 155q0 16 3 32q20 103 201 184l8 27q-120 37 -180 125q-43 64 -43 141q0 29 6 59q29 147 168 247.5t334 100.5q70 0 145 -20l357 20l-23 -92h-196q56 -47 78 -114q15 -42 15 -88q0 -27 -5 -54q-27 -145 -167 -245.5 t-337 -100.5q-37 0 -55 2q-3 -3 -12 -11t-12 -11t-11 -10t-11 -10.5t-9.5 -10.5t-9 -10.5t-7 -10t-6.5 -11t-3.5 -10.5t-2.5 -11q-1 -7 -1 -14q0 -31 30 -55q36 -29 102 -48l159 -45q162 -47 239 -118q62 -56 62 -128q0 -19 -4 -39q-15 -91 -109 -169t-222 -120t-252 -42 q-92 0 -178.5 16t-155 46t-104.5 78q-26 36 -26 78q0 15 3 31zM133 -264q-2 -12 -2 -24q0 -59 63 -102q73 -48 190 -48h9q324 4 350 143q3 17 3 33q0 45 -28 76q-39 41 -128 67l-174 45q-6 2 -21 5.5t-22 5.5q-74 -24 -120.5 -47t-70.5 -49.5t-33 -47.5t-16 -57zM403 696 q-10 -53 -10 -97q0 -53 15 -93q27 -72 114 -72q77 0 135.5 75t81.5 187q11 59 11 105q0 157 -129 157q-80 0 -137.5 -74t-80.5 -188z" />
<glyph unicode="h" horiz-adv-x="1277" d="M86 0l342 1389l-121 20l27 80l352 24l-170 -755l49 -4q79 139 183.5 214.5t199.5 75.5q131 0 193 -81q35 -46 35 -117q0 -56 -21 -127l-127 -438q-28 -99 -28 -140v-6q2 -39 42 -39q85 0 175 174l59 -18q-57 -121 -173 -199q-99 -67 -201 -67q-17 0 -34 2q-64 4 -96 46 q-29 38 -28 95v11q3 64 22 141l121 417q18 58 18 99q0 92 -92 92q-88 0 -200 -144.5t-181 -369.5l-84 -375h-262z" />
<glyph unicode="i" horiz-adv-x="667" d="M137 141q2 63 21 140l161 628l-120 21l28 80l387 24l-194 -753q-29 -101 -29 -140q0 -43 43 -43q80 0 174 174l58 -18q-60 -121 -174 -199q-98 -67 -198 -67q-17 0 -34 2q-63 4 -94 46q-29 39 -29 97v8zM414 1348q17 50 64.5 77t115.5 27q70 0 105 -28q24 -19 23 -46 q0 -14 -5 -30q-13 -51 -62 -80t-120 -29q-66 -1 -100 29q-25 21 -25 54q0 12 4 26z" />
<glyph unicode="j" horiz-adv-x="641" d="M-358 -348q33 119 155 119q33 0 51 -15.5t23 -37.5t9 -44t18 -37.5t41 -15.5q114 0 192 340l209 948l-123 21l27 80l391 24l-199 -925q-57 -260 -222 -418t-402 -158q-80 0 -130 37q-42 30 -42 66q0 8 2 16zM420 1348q35 104 182 104q67 0 102 -28q25 -18 25 -47 q0 -13 -6 -29q-13 -51 -62 -80t-120 -29q-67 0 -101 29q-24 22 -24 54q0 12 4 26z" />
<glyph unicode="k" horiz-adv-x="1138" d="M82 0l336 1389l-123 20l27 80l395 24l-168 -679l47 -11q71 101 159 162.5t181 61.5q100 1 148 -51q30 -33 31 -83q0 -29 -11 -65q-28 -99 -112.5 -177.5t-203.5 -131.5l95 -310q27 -65 45.5 -84.5t66.5 -19.5q23 0 63 37.5t77 116.5l55 -15q-53 -119 -158.5 -195.5 t-208.5 -76.5q-78 0 -116 39t-66 159l-61 267l-138 -54l-98 -403h-262zM459 469l198 94q68 35 125.5 106.5t73.5 131.5q8 24 8 42q0 23 -12 39q-20 29 -66 29q-54 0 -118.5 -61.5t-113 -141t-73.5 -151.5z" />
<glyph unicode="l" horiz-adv-x="657" d="M124 141q2 63 21 140l277 1108l-123 20l27 80l395 24l-313 -1232q-25 -85 -26 -122q0 -5 1 -9q4 -34 41 -35q89 0 172 157l57 -18q-57 -121 -171 -199q-98 -67 -198 -67q-17 0 -34 2q-64 4 -96 46q-30 40 -30 99v6z" />
<glyph unicode="m" horiz-adv-x="1835" d="M53 0l250 909l-121 21l27 80l391 24l-78 -282l43 -7q77 142 172.5 220.5t186.5 78.5q116 0 174 -67q40 -45 39 -121q0 -36 -9 -80l48 -2q77 131 167 200.5t179 69.5q59 0 103.5 -18.5t74.5 -57.5q29 -38 33 -100q1 -9 1 -19q0 -56 -20 -130l-129 -438 q-18 -67 -21.5 -101.5t6.5 -49.5t38 -15q78 0 168 157l57 -18q-57 -121 -171 -199q-97 -67 -198 -67q-17 0 -34 2q-64 4 -96 46q-30 40 -30 99v6q2 63 21 140l125 438q15 53 15 90q0 80 -72 80q-77 0 -175.5 -110.5t-164.5 -280.5l-142 -498h-262l213 739q13 43 13 74 q0 76 -80 76q-87 0 -201.5 -150t-177.5 -370l-103 -369h-260z" />
<glyph unicode="n" horiz-adv-x="1253" d="M68 0l231 909l-121 21l27 80l391 24l-68 -264l47 -6q71 135 163 207.5t186 72.5q61 0 108.5 -18.5t79.5 -57.5q32 -38 38 -100q1 -12 2 -25q0 -54 -19 -124l-129 -438q-26 -86 -27 -123q0 -4 1 -8q4 -34 46 -35q39 0 83.5 42t84.5 115l57 -18q-59 -121 -173 -199 q-97 -67 -195 -67q-16 0 -33 2q-66 4 -98 46q-30 39 -30 96v9q2 63 23 140l125 438q13 46 13 79q0 91 -95 91q-77 0 -175.5 -125t-164.5 -318l-114 -446h-264z" />
<glyph unicode="o" horiz-adv-x="1138" d="M119 471q35 159 121.5 289.5t210 207t258.5 76.5q137 0 236 -66t139 -179q23 -65 23 -137q0 -53 -13 -109q-25 -119 -83 -223.5t-137.5 -181.5t-181.5 -121.5t-211 -44.5q-130 0 -223.5 65.5t-129.5 177.5q-21 63 -21 134q0 54 12 112zM358 262q0 -86 34 -140 q36 -56 106 -56q103 0 185.5 136.5t125.5 350.5q23 113 25 203q0 4 1 7q0 85 -36 139q-37 56 -111 56q-67 0 -127.5 -67.5t-104 -173.5t-75.5 -246q-23 -119 -23 -209z" />
<glyph unicode="p" horiz-adv-x="1150" d="M-164 -514l10 59l148 21l299 1321l-129 28l20 74l389 45l-43 -215l48 -12q61 112 143 173.5t170 61.5q161 0 223 -148q34 -78 34 -182q0 -91 -26 -202q-22 -95 -71.5 -187t-122 -170.5t-175 -127t-216.5 -48.5q-112 0 -179 58l-104 -465l141 -25l-16 -59l-268 6zM399 225 q-2 -18 -2 -34q0 -121 125 -121q121 0 199 114t129 326q31 131 31 216q0 157 -105 157q-78 0 -165.5 -91t-135.5 -233z" />
<glyph unicode="q" horiz-adv-x="1179" d="M99 239q-2 24 -2 50q0 91 28 200q21 95 78 190t139.5 175t196 130t235.5 50q99 0 184 -100l142 106l123 -8q-8 -23 -29.5 -76t-40 -106t-33.5 -109l-268 -1177l137 -25l-18 -59l-266 6l-275 -6l14 59l144 21l166 698l-47 6q-65 -131 -163 -202.5t-196 -71.5 q-108 0 -173.5 69t-75.5 180zM364 312q-1 -10 -1 -18q0 -64 23 -105q26 -46 83 -46q87 0 198 126.5t162 310.5l2 4l43 180l-2 -2q6 23 6 47v15q-3 31 -13 57t-41 42.5t-79 16.5q-58 0 -114.5 -43t-101 -112.5t-78 -144t-56.5 -151.5q-28 -101 -31 -177z" />
<glyph unicode="r" horiz-adv-x="782" d="M90 0l215 909l-121 21l27 80l356 24l-55 -229l45 -4q19 35 41.5 69t56.5 76t75 68t81 26q67 0 103 -38q25 -26 25 -63q0 -17 -5 -38q-13 -46 -49 -76t-92 -30q-46 0 -74.5 14t-54.5 43q-50 -25 -101.5 -101.5t-87.5 -170.5l-131 -580h-254z" />
<glyph unicode="s" horiz-adv-x="911" d="M98 125q-6 24 -6 44q0 32 16 56q26 39 89 39q22 0 33 -17.5t11.5 -43t-4 -51t-12.5 -46.5q48 -43 185 -43q56 0 97.5 41.5t59.5 110.5q5 21 5.5 39.5t-4.5 34.5t-12 29.5t-20 26.5t-24 22.5t-29 21t-30.5 19t-32.5 18.5t-31 18q-53 36 -86 61.5t-59.5 56t-36.5 61 t-10 68.5t12 87q20 81 95.5 142.5t166 89.5t176.5 28q72 0 148 -33t92 -87q7 -24 6 -46q0 -37 -19 -64q-31 -44 -88 -44q-54 0 -54 60q0 40 24 106q-31 26 -125 26q-60 0 -110.5 -37t-63.5 -94q-4 -17 -5 -32t4 -29.5t9 -25t17 -24t20 -20.5t26.5 -20.5t28 -19t32.5 -20.5 l32 -20q47 -31 71.5 -48.5t56 -44t45.5 -48.5t26 -52q11 -28 11 -59v-5q-1 -34 -12 -76q-34 -136 -158 -214.5t-268 -78.5q-104 0 -188.5 36t-106.5 101z" />
<glyph unicode="t" horiz-adv-x="700" d="M112 134q-2 16 -2 34q0 43 13 98l164 658h-137l18 73l143 27l51 201l271 35l-60 -236h275l-27 -100h-274l-160 -635q-16 -54 -16 -90q0 -67 55 -74h11q55 -1 107 35q58 40 97 108l49 -26q-57 -107 -170 -176.5t-221 -71.5h-6q-37 0 -71 12q-36 13 -69 44t-41 84z" />
<glyph unicode="u" horiz-adv-x="1257" d="M129 134q-1 12 -1 25q0 51 15 120l160 641l-119 24l23 80l389 20l-190 -765q-10 -42 -10 -71q0 -30 10 -48q22 -34 92 -33q78 0 174 127t157 324l84 331l-102 21l29 80l364 24l-188 -753q-19 -79 -19 -117q-1 -10 1 -16q6 -32 46 -33q82 0 162 157l60 -20 q-51 -120 -163 -198q-96 -66 -197 -66q-17 0 -34 2q-82 6 -112 70q-21 44 -21 104q0 28 4 59l-45 4q-72 -128 -159 -191t-199 -63q-58 0 -101 15.5t-74 51.5t-36 94z" />
<glyph unicode="v" horiz-adv-x="948" d="M76 936l22 80l344 39q4 -19 20.5 -104t20 -105t16 -90t16.5 -97.5t12.5 -88t11.5 -101.5t7.5 -97.5t6.5 -113.5q192 270 293 528q-30 97 -30 149q0 17 3 30q11 48 41 81t66 33q50 -1 74 -39q19 -31 19 -72q1 -10 -1 -20q-6 -54 -33 -106q-121 -253 -244.5 -434 t-328.5 -408h-105q-3 69 -7.5 134t-13 136.5t-14.5 120t-19.5 131.5t-20 121.5t-24.5 139t-24 137.5z" />
<glyph unicode="w" horiz-adv-x="1462" d="M100 936l23 80l352 39q16 -126 25 -260t11 -216t3 -229l363 674h149q54 -427 70 -780q143 240 262 567q-37 51 -37 109q0 24 6 49q12 51 44 78.5t79 27.5q62 -1 76 -79q4 -21 4 -41q0 -57 -29 -113q-90 -204 -181.5 -360t-219.5 -330v-2l-113 -150h-119q0 105 -7 206.5 t-22 254.5t-22 241l-409 -702h-111q-10 487 -88 920z" />
<glyph unicode="x" horiz-adv-x="1077" d="M-27 63q-3 11 -3 22q0 31 22 57q29 34 90 38q14 -2 19.5 0t18.5 -1.5t17 -3t15.5 -5t15 -6.5t15 -7t15.5 -8.5t16 -9.5t17 -10q57 38 123.5 110t116.5 152l-57 225q-23 104 -53.5 177t-81.5 137l-101 10l25 86l301 27q31 -33 57.5 -89t40.5 -100t39 -135q56 97 107 159 t129 118q45 34 103 44q22 4 41 3q33 0 61 -11q44 -18 48 -63q1 -6 1 -13q0 -32 -25 -58q-30 -32 -78 -42q-32 -4 -53.5 0t-47.5 16t-46 17q-100 -60 -219 -252l79 -330q47 -134 66.5 -167t60.5 -33q30 0 53.5 14.5t59.5 54.5l43 -34q-64 -80 -146.5 -126t-152.5 -46 q-81 0 -129 57t-84 201l-18 71q-63 -96 -126.5 -164.5t-146.5 -124.5q-48 -28 -104 -32q-8 -1 -16 0q-46 0 -81 18q-41 20 -47 57z" />
<glyph unicode="y" horiz-adv-x="952" d="M-154 -393q-1 8 -1 15q0 34 29 62q37 35 91 35q24 0 41.5 -8t30.5 -25.5t21 -33.5t19 -42q3 -7 5 -11q54 0 102 61.5t72 155.5l59 190q-2 69 -5.5 132.5t-10.5 137t-11.5 117.5t-16.5 133t-16 118.5t-20 140t-20 135.5l-111 16l23 80l344 39q43 -252 60 -405.5t20 -370.5 q210 264 305 497q-3 9 -23.5 52t-30 77.5t-3.5 59.5q11 47 44 80.5t70 33.5q48 0 71 -39q19 -31 19 -73q0 -9 -1 -19q-5 -54 -31 -106q-109 -236 -232.5 -412t-335.5 -422l-65 -194q-41 -145 -135.5 -231.5t-171.5 -86.5q-162 0 -185 111z" />
<glyph unicode="z" horiz-adv-x="952" d="M-6 -16l4 84l688 733h-256q-115 0 -207 -137l-55 12q14 20 25.5 48.5t24 69t15.5 48.5l54 182h712l5 -27l-756 -800q31 4 61 4q41 1 81 -7q70 -12 112.5 -33.5t86 -40t70.5 -18.5q72 0 101 33q-10 23 -10 49q0 20 6 43q22 88 86 88q53 0 53 -55q0 -19 -6 -43 q-7 -31 -41 -79.5t-82 -96.5t-113.5 -82.5t-126.5 -34.5h-11q-62 0 -118 10q-61 12 -100 26t-103 24q-42 6 -90 6q-25 0 -51 -2z" />
<glyph unicode="{" horiz-adv-x="679" d="M39 555l14 68q217 45 234 415q20 269 151.5 409.5t368.5 178.5l-2 -65q-96 -45 -155 -109t-92 -163.5t-46 -250.5q-2 -52 -22.5 -118.5t-55.5 -134t-91 -122t-120 -73.5q57 -19 92 -73.5t43.5 -122.5t2.5 -134.5t-25 -118.5q-66 -227 -44.5 -341t138.5 -181l-24 -65 q-110 19 -183.5 60.5t-114 111.5t-39.5 174t44 241q17 59 27.5 107t14.5 102.5t-5 93.5t-36.5 69.5t-74.5 41.5z" />
<glyph unicode="|" horiz-adv-x="497" d="M43 -344l358 1841h91l-361 -1841h-88z" />
<glyph unicode="}" horiz-adv-x="679" d="M-88 -446l2 65q143 66 208.5 182t84.5 340q2 52 22.5 118.5t55 134.5t90.5 122.5t121 73.5q-58 19 -92.5 73.5t-42.5 122t-2 134t24 118.5q66 226 46 341.5t-136 181.5l22 65q109 -19 182 -61t113.5 -112t40 -174t-42.5 -241q-18 -59 -29.5 -108t-15 -103t6 -93 t38.5 -69.5t78 -41.5l-14 -68q-225 -45 -238 -414q-21 -269 -153 -409t-369 -178z" />
<glyph unicode="~" horiz-adv-x="1353" d="M55.5 428q-13.5 45 12.5 96q56 150 188 253.5t272 103.5q102 0 180 -53.5t123 -149.5q15 -32 28 -53t37 -46t60.5 -38t83.5 -13q61 0 123 38t97 106q-4 9 -17.5 31t-19.5 39.5t-4 35.5q3 37 24 65.5t53 28.5q41 0 55 -47t-8 -96q-53 -146 -191.5 -250t-268.5 -104 q-105 0 -188.5 53.5t-135.5 149.5q-3 6 -13 23.5t-14.5 26t-15.5 24.5t-19.5 24t-23 19.5t-29 17t-34 10t-41.5 4.5q-58 0 -118 -37t-99 -106q4 -9 14 -25.5t15.5 -26.5t10 -25.5t3.5 -29.5q-24 -94 -80 -94q-46 0 -59.5 45z" />
<glyph unicode="&#xa1;" horiz-adv-x="641" d="M80 -293q-19 -76 10.5 -122t95.5 -44q69 2 123 48.5t64 117.5l90 875q3 19 -34 27q-48 9 -80 -9q-12 -7 -15 -18zM317 926q10 50 54.5 80t105.5 30q58 0 91.5 -30.5t23.5 -79.5q-9 -51 -54 -83t-104 -32q-58 0 -91 32t-26 83z" />
<glyph unicode="&#xa2;" horiz-adv-x="991" d="M111 272q-25 103 0 207q24 104 73.5 201.5t118 178t161 130.5t193.5 53l58 230l71 -2l-55 -230q162 -21 199 -131q13 -30 8.5 -68.5t-18 -73t-44 -58t-69.5 -23.5q-50 0 -79 38.5t-17 84.5q5 29 20 52.5t49 64.5q-26 18 -71 22l-201 -817q22 -10 65 -10q80 0 159 51.5 t138 155.5l70 -15q-76 -149 -204.5 -241t-256.5 -92h-8l-49 -201h-80l51 211q-109 23 -183 101t-99 181zM381.5 306q14.5 -83 58.5 -132l191 766q-83 -31 -145 -151t-101 -302q-18 -98 -3.5 -181z" />
<glyph unicode="&#xa3;" horiz-adv-x="1161" d="M-45 27q34 30 108 69q67 74 106.5 198t76.5 355h-137l20 101h133l6 41l17 122q40 265 171.5 413.5t354.5 148.5q96 0 162.5 -31t97.5 -70l37 88h61l-69 -354h-49q-2 130 -48 204t-155 74q-126 0 -185 -100t-85 -325l-15 -119q-4 -35 -16 -92h373l-21 -101h-377 q-80 -293 -262 -471q51 15 72 15q98 3 204.5 -21t187.5 -49t114 -25q29 0 69.5 17.5t40.5 29.5q-30 49 -22 93q8 39 34 63.5t68 24.5q29 0 41 -27.5t4 -71.5q-8 -36 -39 -84.5t-75.5 -93.5t-104 -76.5t-115.5 -31.5q-83 -2 -240.5 30.5t-232.5 34.5q-42 0 -69 -2l-230 -20z " />
<glyph unicode="&#xa5;" horiz-adv-x="1337" d="M213 362l14 76h418l33 158h-418l14 76h379l-266 694l-121 27l17 73l313 -4l256 4l-16 -73l-152 -23l246 -678l469 651l4 25l-139 23l16 75l262 -4l178 4l-16 -75l-135 -27l-551 -692h143l-14 -76h-191v-2l-32 -156h192l-14 -76h-195l-55 -268l141 -26l-16 -72l-238 4 l-342 -4l17 72l157 22l58 272h-416z" />
<glyph unicode="&#xa6;" horiz-adv-x="497" d="M43 -344l154 784h88l-154 -784h-88zM262 772l139 725h91l-142 -725h-88z" />
<glyph unicode="&#xa7;" horiz-adv-x="1099" d="M-39 -481l72 383l49 2q14 -164 79.5 -240t209.5 -76q88 0 149.5 50t75.5 124q8 42 -1 79.5t-26 63.5t-49.5 53.5t-58 43.5t-65.5 40q-27 16 -40 24q-191 95 -265.5 186.5t-51.5 220.5q17 83 70.5 152.5t120.5 112.5t145 69q-77 72 -100 151t-3 172q16 81 68 148.5 t120.5 108.5t141.5 63.5t137 22.5q98 0 170.5 -35.5t98.5 -73.5l41 94h51l-72 -364h-43q-3 130 -76 212.5t-184 82.5q-90 0 -162 -41.5t-86 -118.5q-7 -34 2 -64.5t26.5 -52.5t50 -48t60 -43t71.5 -44t71 -45q36 -23 64 -41.5t57 -40.5t50 -41.5t41.5 -42t33.5 -45 t23.5 -48.5t15 -53.5t4 -59t-6.5 -66.5q-26 -130 -118.5 -214.5t-219.5 -117.5q162 -150 127 -330q-16 -80 -64 -145t-113.5 -105.5t-141 -62t-152.5 -21.5q-192 0 -311 133l-39 -112h-47zM286.5 518.5q5.5 -27.5 23.5 -53t37 -46.5t52 -45t56.5 -39.5t63 -40.5t59.5 -38 l71 -51q123 43 150 176q8 39 -2 76t-28.5 63t-53.5 55.5t-61.5 46t-68.5 42t-59 36.5q-48 27 -106 70q-105 -50 -133 -195q-6 -29 -0.5 -56.5z" />
<glyph unicode="&#xa8;" horiz-adv-x="937" d="M188 1386q8 40 43 65.5t84 25.5q43 0 70 -26t21 -65q-9 -39 -44 -63.5t-81 -24.5q-47 0 -73.5 24.5t-19.5 63.5zM598 1384q8 40 43 65.5t84 25.5q43 0 69.5 -26t20.5 -65q-9 -39 -44 -63.5t-81 -24.5q-47 0 -73 24.5t-19 63.5z" />
<glyph unicode="&#xaa;" horiz-adv-x="931" d="M221 901q19 90 102.5 143t272.5 84l117 21l16 84q41 190 -92 190q-67 0 -123 -47q19 -69 10 -110q-6 -34 -35 -54t-63 -20t-49.5 25t-8.5 59t31 59q57 66 134 105t153 39q272 0 221 -254l-63 -328q-17 -86 24 -86q48 0 74 35l19 -15q-33 -42 -89 -69.5t-118 -24.5 q-118 11 -99 125l4 19q-38 -65 -103.5 -104.5t-135.5 -39.5q-102 0 -156.5 47.5t-42.5 116.5zM410 926q-21 -101 69 -101q36 0 64.5 6.5t65 36t63.5 82.5l30 146l-108 -21q-165 -37 -184 -149z" />
<glyph unicode="&#xab;" horiz-adv-x="956" d="M82 381l6 33l404 387l34 -25l-272 -381l121 -383l-41 -18zM457 381l6 33l403 387l35 -25l-272 -381l121 -383l-41 -18z" />
<glyph unicode="&#xad;" horiz-adv-x="1048" d="M223 565l37 150h701l-37 -150h-701z" />
<glyph unicode="&#xaf;" horiz-adv-x="882" d="M276 1374l15 88h682l-17 -88h-680z" />
<glyph unicode="&#xb0;" horiz-adv-x="589" d="M221 1253q20 94 96.5 159t169.5 65q89 0 143 -66t36 -158q-17 -93 -95 -158t-172 -65q-89 0 -142 65t-36 158zM289 1253q-12 -65 23.5 -110t99.5 -45q61 0 118.5 46t69.5 109q12 64 -25 110t-102 46q-62 0 -118 -46t-66 -110z" />
<glyph unicode="&#xb1;" horiz-adv-x="987" d="M-52 2l17 88h866l-18 -88h-865zM76 559l18 109h381l70 356h108l-69 -356h377l-21 -109h-379l-69 -358h-109l70 358h-377z" />
<glyph unicode="&#xb2;" horiz-adv-x="737" d="M113 592l12 65q265 220 369 354.5t129 260.5q7 42 -20.5 69t-94.5 27q-76 0 -158 -49q3 -9 9 -23.5t9 -23t4.5 -21t0.5 -24.5q-6 -31 -36.5 -54.5t-66.5 -23.5q-47 0 -52.5 56.5t28.5 103.5q68 81 155 128.5t181 47.5q138 0 213 -59t53 -171q-11 -58 -50.5 -116.5 t-109.5 -119t-146 -114.5t-186 -123h389l23 41l31 -2l-74 -229h-612z" />
<glyph unicode="&#xb3;" horiz-adv-x="819" d="M125 723q-20 57 13.5 104t88.5 47q33 0 48.5 -26t7.5 -64q-7 -23 -23 -39q7 -31 56 -52t94 -21q80 0 133.5 42.5t70.5 129.5q15 83 -50.5 120t-205.5 19l-6 61l-6 25q79 11 136 27.5t89 34t52.5 43.5t28.5 47t14 53q8 48 -21.5 84.5t-95.5 36.5q-30 0 -68.5 -13.5 t-68.5 -38.5q4 -30 4.5 -31.5t-4.5 -37.5q-14 -76 -101 -76q-50 0 -57 46.5t29 90.5q53 74 149.5 111t181.5 37q77 0 142.5 -20.5t107 -70.5t27.5 -122q-37 -169 -338 -219l2 -13q152 0 231.5 -60.5t63.5 -137.5q-13 -65 -57 -114.5t-108.5 -78.5t-137.5 -43t-152 -14 q-95 0 -173.5 40.5t-96.5 92.5z" />
<glyph unicode="&#xb4;" horiz-adv-x="569" d="M287 1192l205 256q21 30 57 39q35 7 58 -13.5t20 -54.5q3 -29 -39 -65l-266 -197z" />
<glyph unicode="&#xb6;" horiz-adv-x="1069" d="M172 1053q37 178 228.5 293.5t469.5 115.5h357l-15 -78l-145 -18l-246 -1276l140 -22l-17 -72l-139 4h-162l-231 -4l16 72l143 26l101 527q-166 5 -287 56t-180 148.5t-33 227.5zM456 955.5q-1 -43.5 10 -87t36.5 -75t73 -52t114.5 -22.5l123 641q-80 -7 -144 -37 t-104 -75t-64 -95t-34 -106q-10 -48 -11 -91.5zM639 82l111 4l102 535h-111zM760 719h112l123 643h-112z" />
<glyph unicode="&#xb7;" horiz-adv-x="417" d="M14 627q9 51 53.5 82.5t106.5 31.5q55 0 88.5 -32t24.5 -82q-10 -50 -54.5 -80.5t-103.5 -30.5q-60 0 -92.5 30.5t-22.5 80.5z" />
<glyph unicode="&#xb8;" horiz-adv-x="991" d="M207 -489l6 47q1 1 15 0t39 1.5t54 5.5t60 12.5t57 22t45 33.5t25 48q10 77 -100 77q-62 0 -127 -20l-15 18l131 295h62l-70 -157q53 18 127 18q84 0 134 -45t36 -121q-10 -56 -42 -98.5t-75 -67t-92.5 -41t-97 -22t-86.5 -7.5t-63 0z" />
<glyph unicode="&#xb9;" horiz-adv-x="567" d="M129 575l10 46l111 14l133 682h-133l10 45q65 3 123 28.5t94 75.5h144l-162 -827l110 -18l-10 -46l-215 5z" />
<glyph unicode="&#xba;" horiz-adv-x="868" d="M274 1118q32 157 146 261t270 104q152 0 230 -105.5t47 -259.5q-33 -165 -147.5 -273t-274.5 -108q-150 0 -227 110t-44 271zM454 989q-4 -58 3 -105t31.5 -73.5t64.5 -26.5q73 0 127 93t86 241q16 88 18.5 159t-23.5 115t-79 44q-74 0 -128 -89.5t-81 -228.5 q-15 -71 -19 -129z" />
<glyph unicode="&#xbb;" horiz-adv-x="956" d="M10 18l271 381l-123 383l45 19l250 -387l-7 -33l-401 -387zM385 18l270 381l-123 383l46 19l249 -387l-6 -33l-401 -387z" />
<glyph unicode="&#xbc;" horiz-adv-x="1658" d="M201 575l10 46l111 14l133 682h-133l10 45q65 3 123 28.5t94 75.5h143l-162 -827l111 -18l-10 -46l-215 5zM219 0l1188 1462h90l-1190 -1462h-88zM788 225l9 47h2l645 619l110 -2l-116 -604h131l-10 -60h-134l-32 -174l110 -18l-8 -33l-219 4l-215 -4l8 33l111 16l32 176 h-424zM891 285h334l73 391z" />
<glyph unicode="&#xbd;" horiz-adv-x="1775" d="M201 575l10 46l111 14l133 682h-133l10 45q65 3 123 28.5t94 75.5h143l-162 -827l111 -18l-10 -46l-215 5zM211 0l1188 1462h90l-1190 -1462h-88zM946 -2l12 65q265 220 369 354.5t129 260.5q7 42 -20.5 69t-94.5 27q-75 0 -157 -49q3 -8 9 -23.5t8.5 -23.5t4 -20.5 t0.5 -24.5q-6 -31 -36 -54.5t-66 -23.5q-47 0 -53 56.5t28 103.5q68 81 155 128.5t181 47.5q138 0 213 -58.5t53 -170.5q-11 -58 -50.5 -117t-109 -119.5t-146 -114.5t-185.5 -123h389l23 41l30 -2l-73 -229h-613z" />
<glyph unicode="&#xbe;" horiz-adv-x="1912" d="M223 723q-20 57 14 104t89 47q33 0 48 -26t7 -64q-7 -23 -23 -39q7 -31 56 -52t94 -21q80 0 134 42.5t71 129.5q15 83 -50.5 120t-205.5 19l-6 61l-7 25q79 11 136 27.5t89 34t52.5 43.5t28.5 47t14 53q8 48 -21.5 84.5t-95.5 36.5q-30 0 -68.5 -13.5t-68.5 -38.5 q4 -30 4.5 -31.5t-4.5 -37.5q-14 -76 -100 -76q-33 0 -48 22t-9.5 53.5t28.5 61.5q53 74 150 111t182 37q44 0 86.5 -7.5t81 -24t65.5 -40.5t39 -60.5t4 -80.5q-37 -169 -338 -219l2 -13q152 0 231.5 -60.5t63.5 -137.5q-13 -65 -57 -114.5t-108.5 -78.5t-137 -43 t-151.5 -14q-95 0 -174 40.5t-97 92.5zM465 0l1188 1462h90l-1190 -1462h-88zM1036 225l8 47h3l645 619l110 -2l-116 -604h131l-11 -60h-133l-33 -174l111 -18l-8 -33l-219 4l-215 -4l8 33l110 16l33 176h-424zM1139 285h334l73 391z" />
<glyph unicode="&#xbf;" horiz-adv-x="999" d="M4 -133q30 149 140 254t288 190l62 314q5 25 64.5 35t115.5 -0.5t51 -34.5l-41 -234q-159 -62 -260 -193t-127 -270q-31 -153 8 -236t139 -83q112 0 199 61q-56 98 -37 180q11 62 57 106t115 44q43 0 62 -39t9.5 -94.5t-42.5 -102.5q-87 -101 -212 -163t-251 -62 q-86 0 -154.5 19.5t-116.5 58.5t-66.5 103t-2.5 147zM526 928q10 50 54.5 80t105.5 30q60 0 93.5 -30t23.5 -80q-9 -51 -54.5 -83t-105.5 -32q-57 0 -91.5 32.5t-25.5 82.5z" />
<glyph unicode="&#xc0;" d="M-76 -4l13 55l151 27l891 1378h162l106 -1378l144 -27l-13 -55l-307 4l-295 -4l12 55l156 23l-20 356h-506l-230 -356l148 -23l-12 -55l-199 4zM485 532h435l-35 621zM899 1857q9 34 39.5 54.5t62.5 13.5q35 -8 43 -39l107 -256l-51 -35l-189 197q-24 30 -12 65z" />
<glyph unicode="&#xc1;" d="M-76 -4l13 55l151 27l891 1378h162l106 -1378l144 -27l-13 -55l-307 4l-295 -4l12 55l156 23l-20 356h-506l-230 -356l148 -23l-12 -55l-199 4zM485 532h435l-35 621zM850 1630l205 256q21 30 57 39q35 7 58 -13t20 -54q3 -30 -39 -66l-266 -197z" />
<glyph unicode="&#xc2;" d="M-76 -4l13 55l151 27l891 1378h162l106 -1378l144 -27l-13 -55l-307 4l-295 -4l12 55l156 23l-20 356h-506l-230 -356l148 -23l-12 -55l-199 4zM485 532h435l-35 621zM735 1671l285 223h65l193 -223h-107l-133 160l-205 -160h-98z" />
<glyph unicode="&#xc3;" d="M-76 -4l13 55l151 27l891 1378h162l106 -1378l144 -27l-13 -55l-307 4l-295 -4l12 55l156 23l-20 356h-506l-230 -356l148 -23l-12 -55l-199 4zM485 532h435l-35 621zM723 1696q9 102 72 163t147 44q61 -11 126 -49.5t130 -51.5q51 -8 90 22.5t45 88.5l29 -10 q-9 -102 -72 -163t-147 -44q-65 12 -128.5 50t-123.5 50q-54 8 -93.5 -22t-45.5 -88z" />
<glyph unicode="&#xc4;" d="M-76 -4l13 55l151 27l891 1378h162l106 -1378l144 -27l-13 -55l-307 4l-295 -4l12 55l156 23l-20 356h-506l-230 -356l148 -23l-12 -55l-199 4zM485 532h435l-35 621zM606 1845q9 51 53.5 83t106.5 32q55 0 88.5 -32.5t24.5 -82.5q-10 -50 -54 -80t-104 -30t-92.5 30 t-22.5 80zM1014 1843q9 51 53.5 83t106.5 32q55 0 88 -32.5t24 -82.5q-10 -50 -54 -80t-104 -30t-92 30t-22 80z" />
<glyph unicode="&#xc5;" d="M-76 -4l13 55l151 27l891 1378h162l106 -1378l144 -27l-13 -55l-307 4l-295 -4l12 55l156 23l-20 356h-506l-230 -356l148 -23l-12 -55l-199 4zM485 532h435l-35 621zM850 1743q15 71 75.5 121.5t130.5 50.5q67 0 110 -51.5t28 -120.5q-12 -70 -73 -121t-132 -51 q-68 0 -109.5 51t-29.5 121zM917 1743q-7 -41 18.5 -73t65.5 -32q39 0 78 32.5t45 72.5q9 41 -16 72.5t-66 31.5q-39 0 -77.5 -31.5t-47.5 -72.5z" />
<glyph unicode="&#xc6;" horiz-adv-x="2062" d="M-92 -4l12 55l125 27l1167 1384h949l-70 -383h-63l10 64q22 117 -61 172t-246 53l-211 -2l-113 -586h29q243 -3 276 152l8 41h62l-90 -475h-64l6 41q13 81 -45.5 116t-173.5 33h-26l-113 -594l272 -2q165 -2 269 53t125 174l14 64h63l-75 -383h-881l-244 -4l12 55l146 23 l76 393h-551l-330 -393l137 -23l-12 -55l-170 4zM588 571h485l141 748z" />
<glyph unicode="&#xc7;" horiz-adv-x="1361" d="M154 518q-3 97 20 215q26 126 80.5 236.5t125.5 190.5t153.5 143t168.5 101t166 57.5t150 19.5q127 0 214 -41t116 -105l55 129h80l-94 -434h-70q-3 170 -80.5 265.5t-237.5 95.5q-167 0 -308 -180.5t-204 -475.5l-2 -4q-39 -195 -18.5 -338t93.5 -224t181 -81 q190 0 308.5 66t236.5 235l72 -22q-110 -190 -279 -285.5t-364 -95.5q-25 0 -37 2l6 12h-61l-4 -6q-68 11 -131.5 37t-124 69.5t-104.5 103.5t-74 138.5t-33 175.5zM434 -541l6 47q1 1 15 0t39 1.5t54 5.5t60 12.5t57 22t45 33.5t25 48q10 78 -100 78q-62 0 -127 -20l-14 18 l127 289q7 -1 19 -2.5t21.5 -2.5t18.5 -1l-64 -146q53 19 127 19q84 0 134 -45t36 -121q-11 -56 -43 -99t-75 -67t-92.5 -40.5t-97 -22t-86 -8t-61.5 -0.5z" />
<glyph unicode="&#xc8;" horiz-adv-x="1320" d="M20 -4l17 72l158 22l266 1276l-154 18l21 78h1081l-76 -383h-71l12 64q25 116 -64.5 171.5t-263.5 53.5l-207 -2l-125 -586h9q267 -3 303 152l8 41h65l-100 -475h-68l9 41q16 80 -48 115.5t-190 33.5h-6l-125 -594l274 -2q377 -3 426 227l15 64h69l-81 -383h-904z M817 1857q9 34 39.5 54.5t62.5 13.5q35 -8 43 -39l107 -256l-51 -35l-189 197q-24 30 -12 65z" />
<glyph unicode="&#xc9;" horiz-adv-x="1320" d="M20 -4l250 4h904l81 383h-69l-15 -64q-49 -230 -426 -227l-274 2l125 594h6q126 2 190 -33.5t48 -115.5l-9 -41h68l100 475h-65l-8 -41q-36 -155 -303 -152h-9l125 586l207 2q174 2 263.5 -53.5t64.5 -171.5l-12 -64h71l76 383h-1081l-21 -78l154 -18l-266 -1276 l-158 -22zM768 1630l205 256q21 30 57 39q35 7 58 -13t20 -54q3 -30 -39 -66l-266 -197z" />
<glyph unicode="&#xca;" horiz-adv-x="1320" d="M20 -4l17 72l158 22l266 1276l-154 18l21 78h1081l-76 -383h-71l12 64q25 116 -64.5 171.5t-263.5 53.5l-207 -2l-125 -586h9q267 -3 303 152l8 41h65l-100 -475h-68l9 41q16 80 -48 115.5t-190 33.5h-6l-125 -594l274 -2q377 -3 426 227l15 64h69l-81 -383h-904z M655 1671l285 223h65l193 -223h-107l-133 160l-205 -160h-98z" />
<glyph unicode="&#xcb;" horiz-adv-x="1320" d="M20 -4l250 4h904l81 383h-69l-15 -64q-49 -230 -426 -227l-274 2l125 594h6q126 2 190 -33.5t48 -115.5l-9 -41h68l100 475h-65l-8 -41q-36 -155 -303 -152h-9l125 586l207 2q174 2 263.5 -53.5t64.5 -171.5l-12 -64h71l76 383h-1081l-21 -78l154 -18l-266 -1276 l-158 -22zM524 1845q9 51 53.5 83t106.5 32q55 0 88.5 -32.5t24.5 -82.5q-10 -50 -54 -80t-104 -30t-92.5 30t-22.5 80zM932 1843q9 51 53.5 83t106.5 32q55 0 88 -32.5t24 -82.5q-10 -50 -54 -80t-103 -30q-60 0 -92.5 30t-22.5 80z" />
<glyph unicode="&#xcc;" horiz-adv-x="745" d="M20 -4l17 72l158 22l266 1276l-154 18l21 78l286 -6l295 6l-18 -78l-152 -18l-268 -1272l143 -26l-16 -72l-285 4zM539 1857q9 34 39.5 54.5t62.5 13.5q35 -8 43 -39l107 -256l-51 -35l-189 197q-24 30 -12 65z" />
<glyph unicode="&#xcd;" horiz-adv-x="745" d="M20 -4l17 72l158 22l266 1276l-154 18l21 78l286 -6l295 6l-18 -78l-152 -18l-268 -1272l143 -26l-16 -72l-285 4zM489 1630l205 256q21 30 58 39q35 7 57.5 -13t19.5 -54q3 -31 -38 -66l-267 -197z" />
<glyph unicode="&#xce;" horiz-adv-x="745" d="M20 -4l17 72l158 22l266 1276l-154 18l21 78l286 -6l295 6l-18 -78l-152 -18l-268 -1272l143 -26l-16 -72l-285 4zM375 1671l285 223h65l193 -223h-107l-133 160l-205 -160h-98z" />
<glyph unicode="&#xcf;" horiz-adv-x="745" d="M20 -4l17 72l158 22l266 1276l-154 18l21 78l286 -6l295 6l-18 -78l-152 -18l-268 -1272l143 -26l-16 -72l-285 4zM246 1845q9 51 53.5 83t106.5 32q55 0 88 -32.5t24 -82.5q-10 -50 -54 -80t-104 -30t-92 30t-22 80zM655 1843q9 51 53.5 83t106.5 32q55 0 88.5 -32.5 t24.5 -82.5q-10 -50 -54 -80t-104 -30t-92.5 30t-22.5 80z" />
<glyph unicode="&#xd0;" horiz-adv-x="1474" d="M20 -4l17 72l158 22l127 615h-250l10 73h256l123 588l-154 18l21 78h563q179 0 322 -58t228.5 -155t118.5 -227t3 -272q-37 -179 -129.5 -322.5t-222 -236.5t-288 -142t-333.5 -49h-277zM471 94l115 -2q122 -2 227.5 37t179.5 103.5t132 153t92.5 176t54.5 181.5 q15 72 15.5 144t-13 143t-48 131.5t-86 107.5t-131 73t-178.5 26l-92 -2l-125 -588h129l-10 -73h-133z" />
<glyph unicode="&#xd1;" horiz-adv-x="1581" d="M16 -4l25 90l168 23l229 1114q4 21 4.5 38t-4 30t-11 23.5t-17.5 18t-21.5 13t-26 9.5t-28.5 6t-31 5l25 96l295 -6l680 -1100l208 987l-178 27l23 92l211 -4l243 4l-22 -92l-168 -22l-277 -1348h-137l-682 1090l-207 -977l164 -27l-18 -90l-209 4zM768 1695 q9 102 72 163t147 44q61 -11 126 -49t130 -51q51 -8 90 22.5t45 88.5l29 -11q-9 -102 -72 -163t-147 -44q-65 12 -128.5 50.5t-123.5 50.5q-54 8 -94 -22.5t-46 -88.5z" />
<glyph unicode="&#xd2;" horiz-adv-x="1656" d="M174 731q34 159 115 297t197 239t269 158.5t322 57.5q126 0 233.5 -37.5t183.5 -104.5t125.5 -161t59.5 -207t-14 -242q-34 -159 -116 -296.5t-198 -238t-268.5 -157.5t-320.5 -57q-214 0 -364.5 98t-209.5 269t-14 382zM457 466.5q-1 -117.5 29 -209t104.5 -141.5 t189.5 -50q105 0 198 50.5t164 140.5t122.5 210t81.5 264q24 115 29.5 213.5t-9.5 183t-52 143.5t-102 92.5t-155 33.5q-143 0 -260 -89.5t-192.5 -236.5t-115.5 -340q-31 -147 -32 -264.5zM981 1857q9 34 39.5 54.5t62.5 13.5q35 -8 43 -39l107 -256l-51 -35l-189 197 q-24 30 -12 65z" />
<glyph unicode="&#xd3;" horiz-adv-x="1656" d="M174 731q34 159 115 297t197 239t269 158.5t322 57.5q126 0 233.5 -37.5t183.5 -104.5t125.5 -161t59.5 -207t-14 -242q-34 -159 -116 -296.5t-198 -238t-268.5 -157.5t-320.5 -57q-214 0 -364.5 98t-209.5 269t-14 382zM457 466.5q-1 -117.5 29 -209t104.5 -141.5 t189.5 -50q105 0 198 50.5t164 140.5t122.5 210t81.5 264q24 115 29.5 213.5t-9.5 183t-52 143.5t-102 92.5t-155 33.5q-143 0 -260 -89.5t-192.5 -236.5t-115.5 -340q-31 -147 -32 -264.5zM932 1630l205 256q21 30 57 39q35 7 58 -13t20 -54q3 -30 -39 -66l-266 -197z" />
<glyph unicode="&#xd4;" horiz-adv-x="1656" d="M174 731q34 159 115 297t197 239t269 158.5t322 57.5q126 0 233.5 -37.5t183.5 -104.5t125.5 -161t59.5 -207t-14 -242q-34 -159 -116 -296.5t-198 -238t-268.5 -157.5t-320.5 -57q-214 0 -364.5 98t-209.5 269t-14 382zM457 466.5q-1 -117.5 29 -209t104.5 -141.5 t189.5 -50q105 0 198 50.5t164 140.5t122.5 210t81.5 264q24 115 29.5 213.5t-9.5 183t-52 143.5t-102 92.5t-155 33.5q-143 0 -260 -89.5t-192.5 -236.5t-115.5 -340q-31 -147 -32 -264.5zM817 1671l285 223h65l193 -223h-107l-133 160l-205 -160h-98z" />
<glyph unicode="&#xd5;" horiz-adv-x="1656" d="M174 731q34 159 115 297t197 239t269 158.5t322 57.5q126 0 233.5 -37.5t183.5 -104.5t125.5 -161t59.5 -207t-14 -242q-34 -159 -116 -296.5t-198 -238t-268.5 -157.5t-320.5 -57q-214 0 -364.5 98t-209.5 269t-14 382zM457 466.5q-1 -117.5 29 -209t104.5 -141.5 t189.5 -50q105 0 198 50.5t164 140.5t122.5 210t81.5 264q24 115 29.5 213.5t-9.5 183t-52 143.5t-102 92.5t-155 33.5q-143 0 -260 -89.5t-192.5 -236.5t-115.5 -340q-31 -147 -32 -264.5zM805 1696q9 102 72 163t147 44q61 -11 126 -49.5t130 -51.5q51 -8 90 22.5t45 88.5 l29 -10q-9 -102 -72 -163t-147 -44q-65 12 -128.5 50t-123.5 50q-54 8 -93.5 -22t-45.5 -88z" />
<glyph unicode="&#xd6;" horiz-adv-x="1656" d="M174 731q34 159 115 297t197 239t269 158.5t322 57.5q126 0 233.5 -37.5t183.5 -104.5t125.5 -161t59.5 -207t-14 -242q-34 -159 -116 -296.5t-198 -238t-268.5 -157.5t-320.5 -57q-214 0 -364.5 98t-209.5 269t-14 382zM457 466.5q-1 -117.5 29 -209t104.5 -141.5 t189.5 -50q105 0 198 50.5t164 140.5t122.5 210t81.5 264q24 115 29.5 213.5t-9.5 183t-52 143.5t-102 92.5t-155 33.5q-143 0 -260 -89.5t-192.5 -236.5t-115.5 -340q-31 -147 -32 -264.5zM686 1845q9 51 53.5 83t106.5 32q55 0 88 -32.5t24 -82.5q-10 -50 -54 -80 t-103 -30q-60 0 -92.5 30t-22.5 80zM1096 1843q9 51 53 83t106 32q55 0 88.5 -32.5t24.5 -82.5q-10 -50 -54 -80t-104 -30t-92 30t-22 80z" />
<glyph unicode="&#xd7;" horiz-adv-x="987" d="M123 338l317 264l-215 264l94 76l213 -264l316 264l59 -78l-313 -262l213 -262l-90 -78l-215 262l-314 -262z" />
<glyph unicode="&#xd8;" horiz-adv-x="1617" d="M174 731q34 159 115 297t197 239t269 158.5t322 57.5q84 0 168 -19l105 176h94l-119 -200q204 -76 298 -268.5t42 -440.5q-34 -159 -116 -296.5t-198 -238t-268.5 -157.5t-320.5 -57q-151 0 -275 51l-137 -232h-92l158 267q-158 95 -223.5 269.5t-18.5 393.5zM489 731 q-72 -343 15 -516l686 1157q-58 25 -133 25q-143 0 -260 -89.5t-192.5 -236.5t-115.5 -340zM555 145q79 -79 225 -79q105 0 198 50.5t164 140.5t122.5 210t81.5 264q28 138 30.5 251.5t-26 205t-90.5 143.5z" />
<glyph unicode="&#xd9;" horiz-adv-x="1587" d="M216.5 282q-19.5 72 0.5 162l193 922l-154 18l20 78l287 -6l295 6l-18 -78l-152 -18l-192 -917q-18 -83 0 -147.5t65.5 -104t113.5 -60t148 -20.5q389 0 463 352l189 897l-142 18l19 78l204 -6l193 6l-16 -78l-154 -18l-188 -901q-51 -229 -229.5 -349t-430.5 -120 q-91 0 -174.5 17.5t-154.5 53.5t-118.5 89.5t-67 125.5zM946 1857q9 34 39.5 54.5t62.5 13.5q35 -8 43 -39l107 -256l-51 -35l-189 197q-24 30 -12 65z" />
<glyph unicode="&#xda;" horiz-adv-x="1587" d="M216.5 282q19.5 -72 67 -125.5t118.5 -89.5t154.5 -53.5t174.5 -17.5q252 0 430.5 120t229.5 349l188 901l154 18l16 78l-193 -6l-204 6l-19 -78l142 -18l-189 -897q-74 -352 -463 -352q-82 0 -148 20.5t-113.5 60t-65.5 104t0 147.5l192 917l152 18l18 78l-295 -6 l-287 6l-20 -78l154 -18l-193 -922q-20 -90 -0.5 -162zM897 1630l205 256q21 30 57 39q35 7 58 -13t20 -54q3 -30 -39 -66l-266 -197z" />
<glyph unicode="&#xdb;" horiz-adv-x="1587" d="M216.5 282q-19.5 72 0.5 162l193 922l-154 18l20 78l287 -6l295 6l-18 -78l-152 -18l-192 -917q-18 -83 0 -147.5t65.5 -104t113.5 -60t148 -20.5q389 0 463 352l189 897l-142 18l19 78l204 -6l193 6l-16 -78l-154 -18l-188 -901q-51 -229 -229.5 -349t-430.5 -120 q-91 0 -174.5 17.5t-154.5 53.5t-118.5 89.5t-67 125.5zM784 1671l285 223h65l193 -223h-107l-133 160l-205 -160h-98z" />
<glyph unicode="&#xdc;" horiz-adv-x="1587" d="M216.5 282q19.5 -72 67 -125.5t118.5 -89.5t154.5 -53.5t174.5 -17.5q252 0 430.5 120t229.5 349l188 901l154 18l16 78l-193 -6l-204 6l-19 -78l142 -18l-189 -897q-74 -352 -463 -352q-82 0 -148 20.5t-113.5 60t-65.5 104t0 147.5l192 917l152 18l18 78l-295 -6 l-287 6l-20 -78l154 -18l-193 -922q-20 -90 -0.5 -162zM653 1845q9 51 53.5 83t106.5 32q55 0 88.5 -32.5t24.5 -82.5q-10 -50 -54 -80t-104 -30t-92.5 30t-22.5 80zM1061 1843q9 51 53.5 83t106.5 32q55 0 88 -32.5t24 -82.5q-10 -50 -54 -80t-103 -30q-60 0 -92.5 30 t-22.5 80z" />
<glyph unicode="&#xdd;" horiz-adv-x="1454" d="M266 1393l17 73l313 -4l256 4l-16 -73l-152 -23l246 -678l469 651l4 25l-139 23l16 75l262 -4l178 4l-16 -75l-135 -27l-613 -770l-104 -500l141 -26l-16 -72l-238 4l-342 -4l17 72l157 22l109 512l-293 764zM834 1630l205 256q21 30 57 39q35 7 58 -13.5t20 -54.5 q3 -29 -39 -65l-266 -197z" />
<glyph unicode="&#xde;" horiz-adv-x="1390" d="M-2 -4l8 39l146 22l264 1344l-144 18l11 43h598l-9 -47l-167 -14l-50 -246h226q267 0 398 -103.5t99 -265.5q-23 -124 -114.5 -213.5t-228 -133.5t-304.5 -44h-223l-64 -334l134 -26l-9 -39l-258 4zM520 461h232q67 -2 121 16t88.5 48t60.5 75t39.5 87t23.5 93 q9 49 9.5 90.5t-11.5 83.5t-38 71t-75 47.5t-118 17.5h-209z" />
<glyph unicode="&#xdf;" horiz-adv-x="1169" d="M-78 -6l12 74l121 20l176 932q20 106 70 199t125 165.5t181 114t229 41.5q112 0 195 -31.5t124 -94.5t23 -148q-23 -111 -92 -192.5t-175 -149.5q20 -37 47.5 -84t46.5 -79t40 -72.5t33 -75.5t20.5 -77.5t7 -89.5t-11.5 -100q-33 -161 -160 -262.5t-275 -101.5 q-99 0 -169 42t-89 85q-5 39 15 72.5t49 33.5q28 0 45 -18t10 -54l-14 -59q53 -39 127 -39q59 0 118.5 55.5t79.5 165.5q17 85 -27 210t-128 247q-17 27 -10.5 43.5t34.5 40.5q109 101 164 210.5t80 233.5q15 89 -19.5 147t-131.5 58q-99 0 -164.5 -91.5t-93.5 -242.5 l-218 -1122z" />
<glyph unicode="&#xe0;" horiz-adv-x="1196" d="M70.5 195.5q-8.5 93.5 23.5 214.5q38 133 102 243.5t135 181t148.5 119.5t143.5 69.5t120 20.5t89 -21t55 -71l49 72h223l-215 -741q-20 -73 -24.5 -112.5t5.5 -56t36 -16.5q42 0 87 46t87 128l57 -18q-58 -121 -172 -199t-232 -65q-61 4 -92.5 40.5t-32.5 92.5t13 125 l-29 8q-25 -44 -56.5 -85t-76 -84.5t-102 -70t-117.5 -26.5q-99 0 -157.5 56t-67 149.5zM367 438q-82 -299 51 -299q55 0 113.5 50t107 128.5t77 134t50.5 107.5l49 170q32 100 5.5 155.5t-118.5 55.5q-83 0 -173 -124t-162 -378zM694 1419q9 34 39.5 54.5t62.5 13.5 q35 -8 43 -39l107 -256l-51 -35l-189 197q-24 30 -12 65z" />
<glyph unicode="&#xe1;" horiz-adv-x="1196" d="M70.5 195.5q-8.5 93.5 23.5 214.5q38 133 102 243.5t135 181t148.5 119.5t143.5 69.5t120 20.5t89 -21t55 -71l49 72h223l-215 -741q-20 -73 -24.5 -112.5t5.5 -56t36 -16.5q42 0 87 46t87 128l57 -18q-58 -121 -172 -199t-232 -65q-61 4 -92.5 40.5t-32.5 92.5t13 125 l-29 8q-25 -44 -56.5 -85t-76 -84.5t-102 -70t-117.5 -26.5q-99 0 -157.5 56t-67 149.5zM367 438q-82 -299 51 -299q55 0 113.5 50t107 128.5t77 134t50.5 107.5l49 170q32 100 5.5 155.5t-118.5 55.5q-83 0 -173 -124t-162 -378zM645 1192l205 256q21 30 57 39 q35 7 58 -13.5t20 -54.5q3 -29 -39 -65l-266 -197z" />
<glyph unicode="&#xe2;" horiz-adv-x="1196" d="M70.5 195.5q-8.5 93.5 23.5 214.5q38 133 102 243.5t135 181t148.5 119.5t143.5 69.5t120 20.5t89 -21t55 -71l49 72h223l-215 -741q-20 -73 -24.5 -112.5t5.5 -56t36 -16.5q42 0 87 46t87 128l57 -18q-58 -121 -172 -199t-232 -65q-61 4 -92.5 40.5t-32.5 92.5t13 125 l-29 8q-25 -44 -56.5 -85t-76 -84.5t-102 -70t-117.5 -26.5q-99 0 -157.5 56t-67 149.5zM367 438q-82 -299 51 -299q55 0 113.5 50t107 128.5t77 134t50.5 107.5l49 170q32 100 5.5 155.5t-118.5 55.5q-83 0 -173 -124t-162 -378zM531 1233l285 223h65l193 -223h-107 l-133 160l-205 -160h-98z" />
<glyph unicode="&#xe3;" horiz-adv-x="1196" d="M70.5 195.5q-8.5 93.5 23.5 214.5q38 133 102 243.5t135 181t148.5 119.5t143.5 69.5t120 20.5t89 -21t55 -71l49 72h223l-215 -741q-20 -73 -24.5 -112.5t5.5 -56t36 -16.5q42 0 87 46t87 128l57 -18q-58 -121 -172 -199t-232 -65q-61 4 -92.5 40.5t-32.5 92.5t13 125 l-29 8q-25 -44 -56.5 -85t-76 -84.5t-102 -70t-117.5 -26.5q-99 0 -157.5 56t-67 149.5zM367 438q-82 -299 51 -299q55 0 113.5 50t107 128.5t77 134t50.5 107.5l49 170q32 100 5.5 155.5t-118.5 55.5q-83 0 -173 -124t-162 -378zM518 1257q9 102 72 163t147 44 q61 -11 126 -49t130 -51q51 -8 90 22.5t45 88.5l29 -11q-9 -102 -72 -163t-147 -44q-65 12 -128.5 50.5t-123.5 50.5q-54 8 -93.5 -22t-45.5 -89z" />
<glyph unicode="&#xe4;" horiz-adv-x="1196" d="M70.5 195.5q-8.5 93.5 23.5 214.5q38 133 102 243.5t135 181t148.5 119.5t143.5 69.5t120 20.5t89 -21t55 -71l49 72h223l-215 -741q-20 -73 -24.5 -112.5t5.5 -56t36 -16.5q42 0 87 46t87 128l57 -18q-58 -121 -172 -199t-232 -65q-61 4 -92.5 40.5t-32.5 92.5t13 125 l-29 8q-25 -44 -56.5 -85t-76 -84.5t-102 -70t-117.5 -26.5q-99 0 -157.5 56t-67 149.5zM367 438q-82 -299 51 -299q55 0 113.5 50t107 128.5t77 134t50.5 107.5l49 170q32 100 5.5 155.5t-118.5 55.5q-83 0 -173 -124t-162 -378zM401 1407q9 51 53.5 83t106.5 32 q55 0 88.5 -32.5t24.5 -82.5q-10 -50 -54.5 -80.5t-103.5 -30.5q-60 0 -92.5 30.5t-22.5 80.5zM809 1405q9 51 53.5 83t106.5 32q55 0 88 -32.5t24 -82.5q-10 -50 -54 -80.5t-103 -30.5q-60 0 -92.5 30.5t-22.5 80.5z" />
<glyph unicode="&#xe5;" horiz-adv-x="1196" d="M70.5 195.5q-8.5 93.5 23.5 214.5q38 133 102 243.5t135 181t148.5 119.5t143.5 69.5t120 20.5t89 -21t55 -71l49 72h223l-215 -741q-20 -73 -24.5 -112.5t5.5 -56t36 -16.5q42 0 87 46t87 128l57 -18q-58 -121 -172 -199t-232 -65q-61 4 -92.5 40.5t-32.5 92.5t13 125 l-29 8q-25 -44 -56.5 -85t-76 -84.5t-102 -70t-117.5 -26.5q-99 0 -157.5 56t-67 149.5zM367 438q-82 -299 51 -299q55 0 113.5 50t107 128.5t77 134t50.5 107.5l49 170q32 100 5.5 155.5t-118.5 55.5q-83 0 -173 -124t-162 -378zM646 1305q15 71 75.5 121.5t130.5 50.5 q67 0 110 -51.5t28 -120.5q-12 -70 -73 -121t-132 -51q-68 0 -109.5 51t-29.5 121zM713 1305q-7 -41 18.5 -73t65.5 -32q39 0 78 32.5t45 72.5q9 41 -16 72.5t-66 31.5q-39 0 -77.5 -31.5t-47.5 -72.5z" />
<glyph unicode="&#xe6;" horiz-adv-x="1701" d="M123 225q38 110 151 179.5t351 117.5l149 27l57 180q37 120 18.5 183t-101.5 63q-110 0 -205 -68q19 -74 0 -137q-13 -41 -55 -66.5t-91 -25.5q-45 0 -61.5 31.5t-3.5 74.5t49 76q90 85 210 134.5t232 49.5q195 0 246 -100q144 100 307 100q131 0 205 -58.5t47 -162.5 q-18 -73 -74 -134.5t-124.5 -100t-152 -68t-145 -43.5t-114.5 -20q-16 -66 -18 -124t11 -109.5t51.5 -82t100.5 -30.5q79 0 168 52.5t154 151.5l63 -20q-97 -145 -228.5 -230t-260.5 -85q-121 0 -196.5 53.5t-108.5 146.5q-90 -91 -205.5 -141.5t-239.5 -50.5 q-119 0 -169 68t-17 169zM410 258q-22 -65 3 -100t85 -35q141 0 247 86q-34 127 9 274q0 4 2 6l-88 -20q-197 -37 -258 -211zM1040 539q35 8 64 16t69 22.5t72 35.5t63.5 49t55 68.5t35.5 88.5q13 58 -6 91.5t-62 33.5q-86 0 -157 -101.5t-134 -303.5z" />
<glyph unicode="&#xe7;" horiz-adv-x="954" d="M47 -489l6 47q1 1 15 0t39 1.5t54 5.5t60 12.5t57 22t45 33.5t25 48q10 77 -100 77q-62 0 -127 -20l-15 18l132 295h16q-94 69 -132.5 188.5t-10.5 239.5q25 105 76 204t121.5 180.5t165.5 131t198 49.5q94 0 164.5 -33.5t93.5 -101.5q13 -30 8.5 -68.5t-18 -73t-44 -58 t-69.5 -23.5q-50 0 -79 38.5t-17 84.5q5 29 20 52.5t49 64.5q-33 24 -94 24q-70 0 -129.5 -61.5t-100.5 -162.5t-71 -239q-27 -157 22 -261.5t166 -104.5q80 0 159 51.5t138 155.5l70 -15q-76 -149 -204.5 -241t-256.5 -92q-104 0 -190 47l-60 -133q53 18 127 18 q84 0 134 -45t36 -121q-10 -56 -42 -98.5t-75 -67t-92.5 -41t-97 -22t-86.5 -7.5t-63 0z" />
<glyph unicode="&#xe8;" horiz-adv-x="970" d="M98.5 342q2.5 70 22.5 141q29 102 84.5 199.5t133.5 179.5t183.5 132t220.5 50q131 0 205 -58.5t47 -162.5q-18 -73 -74 -134.5t-124.5 -100t-152 -68t-145 -43.5t-114.5 -20q-16 -66 -18 -124t11 -109.5t51.5 -82t100.5 -30.5q79 0 168 52.5t154 151.5l63 -20 q-97 -145 -228.5 -230t-260.5 -85q-87 0 -152.5 30t-103 80.5t-56 116t-16 135.5zM408 539q44 9 78.5 19t82.5 32.5t83.5 50.5t67 74.5t46.5 103.5q13 58 -6 91.5t-62 33.5q-86 0 -156.5 -101.5t-133.5 -303.5zM586 1419q9 34 39.5 54.5t62.5 13.5q35 -8 43 -39l107 -256 l-51 -35l-189 197q-24 30 -12 65z" />
<glyph unicode="&#xe9;" horiz-adv-x="970" d="M98.5 342q2.5 70 22.5 141q29 102 84.5 199.5t133.5 179.5t183.5 132t220.5 50q131 0 205 -58.5t47 -162.5q-18 -73 -74 -134.5t-124.5 -100t-152 -68t-145 -43.5t-114.5 -20q-16 -66 -18 -124t11 -109.5t51.5 -82t100.5 -30.5q79 0 168 52.5t154 151.5l63 -20 q-97 -145 -228.5 -230t-260.5 -85q-87 0 -152.5 30t-103 80.5t-56 116t-16 135.5zM408 539q44 9 78.5 19t82.5 32.5t83.5 50.5t67 74.5t46.5 103.5q13 58 -6 91.5t-62 33.5q-86 0 -156.5 -101.5t-133.5 -303.5zM537 1192l204 256q21 30 58 39q35 7 58 -13.5t20 -54.5 q3 -29 -39 -65l-267 -197z" />
<glyph unicode="&#xea;" horiz-adv-x="970" d="M98.5 342q2.5 70 22.5 141q29 102 84.5 199.5t133.5 179.5t183.5 132t220.5 50q131 0 205 -58.5t47 -162.5q-18 -73 -74 -134.5t-124.5 -100t-152 -68t-145 -43.5t-114.5 -20q-16 -66 -18 -124t11 -109.5t51.5 -82t100.5 -30.5q79 0 168 52.5t154 151.5l63 -20 q-97 -145 -228.5 -230t-260.5 -85q-87 0 -152.5 30t-103 80.5t-56 116t-16 135.5zM408 539q44 9 78.5 19t82.5 32.5t83.5 50.5t67 74.5t46.5 103.5q13 58 -6 91.5t-62 33.5q-86 0 -156.5 -101.5t-133.5 -303.5zM420 1233l285 223h65l193 -223h-107l-133 160l-205 -160h-98z " />
<glyph unicode="&#xeb;" horiz-adv-x="970" d="M98.5 342q2.5 70 22.5 141q29 102 84.5 199.5t133.5 179.5t183.5 132t220.5 50q131 0 205 -58.5t47 -162.5q-18 -73 -74 -134.5t-124.5 -100t-152 -68t-145 -43.5t-114.5 -20q-16 -66 -18 -124t11 -109.5t51.5 -82t100.5 -30.5q79 0 168 52.5t154 151.5l63 -20 q-97 -145 -228.5 -230t-260.5 -85q-87 0 -152.5 30t-103 80.5t-56 116t-16 135.5zM291 1407q9 51 53.5 83t106.5 32q55 0 88 -32.5t24 -82.5q-10 -50 -54 -80.5t-103 -30.5q-60 0 -92.5 30.5t-22.5 80.5zM408 539q44 9 78.5 19t82.5 32.5t83.5 50.5t67 74.5t46.5 103.5 q13 58 -6 91.5t-62 33.5q-86 0 -156.5 -101.5t-133.5 -303.5zM700 1405q9 51 53.5 83t106.5 32q55 0 88.5 -32.5t24.5 -82.5q-10 -50 -54.5 -80.5t-103.5 -30.5q-60 0 -92.5 30.5t-22.5 80.5z" />
<glyph unicode="&#xec;" horiz-adv-x="667" d="M137 141q2 63 21 140l166 647l-119 20l22 62l387 24l-194 -753q-34 -117 -32.5 -158t42.5 -41q91 0 195 190l41 -18q-59 -121 -173.5 -199t-232.5 -65q-63 4 -94 46t-29 105zM438 1419q9 34 39.5 54.5t62.5 13.5q35 -8 43 -39l107 -256l-51 -35l-189 197q-24 30 -12 65z " />
<glyph unicode="&#xed;" horiz-adv-x="667" d="M137 141q2 63 21 140l166 647l-119 20l22 62l387 24l-194 -753q-34 -117 -32.5 -158t42.5 -41q91 0 195 190l41 -18q-59 -121 -173.5 -199t-232.5 -65q-63 4 -94 46t-29 105zM389 1192l205 256q21 30 57 39q35 7 58 -13.5t20 -54.5q3 -29 -39 -65l-266 -197z" />
<glyph unicode="&#xee;" horiz-adv-x="667" d="M137 141q2 63 21 140l166 647l-119 20l22 62l387 24l-194 -753q-34 -117 -32.5 -158t42.5 -41q91 0 195 190l41 -18q-59 -121 -173.5 -199t-232.5 -65q-63 4 -94 46t-29 105zM275 1233l285 223h65l193 -223h-107l-133 160l-205 -160h-98z" />
<glyph unicode="&#xef;" horiz-adv-x="667" d="M137 141q2 63 21 140l166 647l-119 20l22 62l387 24l-194 -753q-34 -117 -32.5 -158t42.5 -41q91 0 195 190l41 -18q-59 -121 -173.5 -199t-232.5 -65q-63 4 -94 46t-29 105zM143 1407q9 51 53.5 83t106.5 32q55 0 88.5 -32.5t24.5 -82.5q-10 -50 -54.5 -80.5 t-103.5 -30.5q-60 0 -92.5 30.5t-22.5 80.5zM553 1405q9 51 53.5 83t106.5 32q55 0 88 -32.5t24 -82.5q-10 -50 -54 -80.5t-103 -30.5q-60 0 -92.5 30.5t-22.5 80.5z" />
<glyph unicode="&#xf0;" horiz-adv-x="1189" d="M61 483q43 229 194 371.5t361 142.5q81 0 154 -50.5t94 -151.5q29 279 -63 430l-281 -105l-18 62l260 96q-91 108 -270 141l26 60q245 -22 408 -140l258 97l16 -62l-217 -82q241 -225 156 -657q-17 -87 -51 -173.5t-91 -172.5t-128.5 -151.5t-170.5 -106.5t-209 -41 q-107 0 -197.5 42.5t-146 111t-79 158t-5.5 181.5zM365 496q-88 -441 110 -441q50 0 95 25t80.5 69.5t65 99t53 121.5t40 128t29.5 127q8 143 -49 213.5t-148 70.5q-98 0 -168 -108.5t-108 -304.5z" />
<glyph unicode="&#xf1;" horiz-adv-x="1253" d="M68 0l231 909l-121 21l27 80l391 24l-68 -264l47 -6q71 135 163 207.5t186 72.5q61 0 108.5 -18.5t80 -57.5t38 -100.5t-17.5 -148.5l-129 -438q-30 -97 -26 -131.5t46 -34.5q39 0 83.5 42t84.5 115l57 -18q-59 -121 -172.5 -199t-228.5 -65q-65 4 -97.5 46t-30 105 t22.5 140l125 438q48 170 -82 170q-77 0 -175.5 -125t-164.5 -318l-114 -446h-264zM547 1257q9 102 72 163t147 44q61 -11 126 -49t130 -51q51 -8 90 22.5t45 88.5l29 -11q-9 -102 -72 -163t-147 -44q-65 12 -128.5 50.5t-123.5 50.5q-54 8 -94 -22.5t-46 -88.5z" />
<glyph unicode="&#xf2;" horiz-adv-x="1138" d="M119 471q35 159 121.5 289.5t210 207t258.5 76.5q137 0 236 -66t138.5 -179t10.5 -246q-25 -119 -83 -223.5t-137.5 -181.5t-181.5 -121.5t-211 -44.5q-130 0 -223.5 65.5t-130 177.5t-8.5 246zM358 267q-1 -90 34.5 -145.5t105.5 -55.5q103 0 185.5 136.5t125.5 350.5 q24 113 25.5 203t-35.5 146t-111 56q-67 0 -127.5 -67.5t-104 -173.5t-75.5 -246q-22 -114 -23 -204zM666 1419q9 34 39.5 54.5t62.5 13.5q35 -8 43 -39l107 -256l-51 -35l-189 197q-24 30 -12 65z" />
<glyph unicode="&#xf3;" horiz-adv-x="1138" d="M119 471q35 159 121.5 289.5t210 207t258.5 76.5q137 0 236 -66t138.5 -179t10.5 -246q-25 -119 -83 -223.5t-137.5 -181.5t-181.5 -121.5t-211 -44.5q-130 0 -223.5 65.5t-130 177.5t-8.5 246zM358 267q-1 -90 34.5 -145.5t105.5 -55.5q103 0 185.5 136.5t125.5 350.5 q24 113 25.5 203t-35.5 146t-111 56q-67 0 -127.5 -67.5t-104 -173.5t-75.5 -246q-22 -114 -23 -204zM616 1192l205 256q21 30 58 39q35 7 57.5 -13.5t19.5 -54.5q3 -30 -38 -65l-267 -197z" />
<glyph unicode="&#xf4;" horiz-adv-x="1138" d="M119 471q35 159 121.5 289.5t210 207t258.5 76.5q137 0 236 -66t138.5 -179t10.5 -246q-25 -119 -83 -223.5t-137.5 -181.5t-181.5 -121.5t-211 -44.5q-130 0 -223.5 65.5t-130 177.5t-8.5 246zM358 267q-1 -90 34.5 -145.5t105.5 -55.5q103 0 185.5 136.5t125.5 350.5 q24 113 25.5 203t-35.5 146t-111 56q-67 0 -127.5 -67.5t-104 -173.5t-75.5 -246q-22 -114 -23 -204zM502 1233l285 223h65l193 -223h-107l-133 160l-205 -160h-98z" />
<glyph unicode="&#xf5;" horiz-adv-x="1138" d="M119 471q35 159 121.5 289.5t210 207t258.5 76.5q137 0 236 -66t138.5 -179t10.5 -246q-25 -119 -83 -223.5t-137.5 -181.5t-181.5 -121.5t-211 -44.5q-130 0 -223.5 65.5t-130 177.5t-8.5 246zM358 267q-1 -90 34.5 -145.5t105.5 -55.5q103 0 185.5 136.5t125.5 350.5 q24 113 25.5 203t-35.5 146t-111 56q-67 0 -127.5 -67.5t-104 -173.5t-75.5 -246q-22 -114 -23 -204zM489 1257q9 102 72.5 163t147.5 44q61 -11 126 -49t130 -51q51 -8 90 22.5t45 88.5l28 -11q-9 -102 -72 -163t-147 -44q-65 12 -128.5 50.5t-123.5 50.5q-54 8 -93.5 -22 t-45.5 -89z" />
<glyph unicode="&#xf6;" horiz-adv-x="1138" d="M119 471q35 159 121.5 289.5t210 207t258.5 76.5q137 0 236 -66t138.5 -179t10.5 -246q-25 -119 -83 -223.5t-137.5 -181.5t-181.5 -121.5t-211 -44.5q-130 0 -223.5 65.5t-130 177.5t-8.5 246zM358 267q-1 -90 34.5 -145.5t105.5 -55.5q103 0 185.5 136.5t125.5 350.5 q24 113 25.5 203t-35.5 146t-111 56q-67 0 -127.5 -67.5t-104 -173.5t-75.5 -246q-22 -114 -23 -204zM373 1407q9 51 53 83t106 32q55 0 88.5 -32.5t24.5 -82.5q-10 -50 -54.5 -80.5t-103.5 -30.5q-60 0 -92 30.5t-22 80.5zM782 1405q9 51 53.5 83t106.5 32q55 0 88.5 -32.5 t24.5 -82.5q-10 -50 -54.5 -80.5t-103.5 -30.5q-60 0 -92.5 30.5t-22.5 80.5z" />
<glyph unicode="&#xf7;" horiz-adv-x="987" d="M59 563l19 109h907l-20 -109h-906zM262 317q9 51 53.5 83t106.5 32q55 0 88.5 -32.5t24.5 -82.5q-10 -50 -54 -80t-104 -30t-92.5 30t-22.5 80zM313 934q9 51 53.5 83t106.5 32q55 0 88.5 -32.5t24.5 -82.5q-10 -50 -54.5 -80.5t-103.5 -30.5q-60 0 -92.5 30.5 t-22.5 80.5z" />
<glyph unicode="&#xf8;" horiz-adv-x="1181" d="M117 -166l139 213q-92 65 -129 177.5t-8 246.5q35 159 121.5 289.5t210 207t258.5 76.5q101 0 176 -34l112 170h82l-133 -203q96 -65 136.5 -178t11.5 -246q-25 -119 -83 -223.5t-137.5 -181.5t-181.5 -121.5t-211 -44.5q-91 0 -166 32l-118 -180h-80zM362 209l445 680 q-40 69 -119 69q-67 0 -127.5 -67.5t-104 -173.5t-75.5 -246q-35 -151 -19 -262zM387 127q36 -61 111 -61q103 0 185.5 136.5t125.5 350.5q33 152 22 250z" />
<glyph unicode="&#xf9;" horiz-adv-x="1257" d="M129 133.5q-5 58.5 14 145.5l160 641l-119 24l23 80l389 20l-190 -765q-21 -85 0.5 -118.5t91.5 -33.5q78 0 174 127t157 324l84 331l-102 21l29 80l364 24l-188 -753q-24 -101 -17.5 -133.5t45.5 -32.5q82 0 162 157l60 -20q-51 -120 -163 -197.5t-231 -64.5 q-82 6 -112.5 69.5t-16.5 163.5l-45 4q-72 -128 -159 -191t-199 -63q-58 0 -101 15.5t-74 51t-36 94zM725 1419q9 34 39.5 54.5t62.5 13.5q35 -8 43 -39l107 -256l-51 -35l-189 197q-24 30 -12 65z" />
<glyph unicode="&#xfa;" horiz-adv-x="1257" d="M129 133.5q-5 58.5 14 145.5l160 641l-119 24l23 80l389 20l-190 -765q-21 -85 0.5 -118.5t91.5 -33.5q78 0 174 127t157 324l84 331l-102 21l29 80l364 24l-188 -753q-24 -101 -17.5 -133.5t45.5 -32.5q82 0 162 157l60 -20q-51 -120 -163 -197.5t-231 -64.5 q-82 6 -112.5 69.5t-16.5 163.5l-45 4q-72 -128 -159 -191t-199 -63q-58 0 -101 15.5t-74 51t-36 94zM676 1192l205 256q21 30 57 39q35 7 58 -13.5t20 -54.5q3 -29 -39 -65l-266 -197z" />
<glyph unicode="&#xfb;" horiz-adv-x="1257" d="M129 133.5q-5 58.5 14 145.5l160 641l-119 24l23 80l389 20l-190 -765q-21 -85 0.5 -118.5t91.5 -33.5q78 0 174 127t157 324l84 331l-102 21l29 80l364 24l-188 -753q-24 -101 -17.5 -133.5t45.5 -32.5q82 0 162 157l60 -20q-51 -120 -163 -197.5t-231 -64.5 q-82 6 -112.5 69.5t-16.5 163.5l-45 4q-72 -128 -159 -191t-199 -63q-58 0 -101 15.5t-74 51t-36 94zM559 1233l285 223h65l193 -223h-107l-133 160l-205 -160h-98z" />
<glyph unicode="&#xfc;" horiz-adv-x="1257" d="M129 133.5q-5 58.5 14 145.5l160 641l-119 24l23 80l389 20l-190 -765q-21 -85 0.5 -118.5t91.5 -33.5q78 0 174 127t157 324l84 331l-102 21l29 80l364 24l-188 -753q-24 -101 -17.5 -133.5t45.5 -32.5q82 0 162 157l60 -20q-51 -120 -163 -197.5t-231 -64.5 q-82 6 -112.5 69.5t-16.5 163.5l-45 4q-72 -128 -159 -191t-199 -63q-58 0 -101 15.5t-74 51t-36 94zM430 1407q9 51 53.5 83t106.5 32q55 0 88 -32.5t24 -82.5q-10 -50 -54 -80.5t-103 -30.5q-60 0 -92.5 30.5t-22.5 80.5zM840 1405q9 51 53 83t106 32q55 0 88.5 -32.5 t24.5 -82.5q-10 -50 -54.5 -80.5t-103.5 -30.5q-60 0 -92 30.5t-22 80.5z" />
<glyph unicode="&#xfd;" horiz-adv-x="952" d="M-154 -393q-8 43 28.5 77.5t90.5 34.5q24 0 41.5 -8t30.5 -25.5t21 -33.5t19 -42q3 -7 5 -11q54 0 102 61.5t72 155.5l59 190q-2 69 -5.5 132.5t-10.5 137t-11.5 117.5t-16.5 133t-16 118.5t-20 140t-20 135.5l-111 16l23 80l344 39q43 -252 60 -405.5t20 -370.5 q210 264 305 497q-3 9 -23.5 52t-30 77.5t-3.5 59.5q11 47 44 80.5t70 33.5q48 0 71 -38.5t18 -92.5t-31 -106q-109 -236 -232.5 -412t-335.5 -422l-65 -194q-41 -145 -135.5 -231.5t-171.5 -86.5q-162 0 -185 111zM527 1192l205 256q21 30 57 39q35 7 58 -13.5t20 -54.5 q3 -29 -39 -65l-266 -197z" />
<glyph unicode="&#xfe;" horiz-adv-x="1251" d="M-162 -510l4 41l140 20l356 1835l-107 39l15 76l403 45l-55 -282l-78 -400l37 -4q46 77 132 129.5t165 52.5t144.5 -29.5t107 -79t68 -115.5t29 -139.5t-10.5 -150.5q-14 -81 -49 -159t-92.5 -149t-129.5 -125t-167.5 -86t-200.5 -32q-115 0 -193 60l-92 -481l135 -25 l-10 -41l-252 6zM393 223q0 -58 43.5 -95.5t141.5 -37.5q242 0 323 438q13 70 13 131t-14.5 112.5t-50 81.5t-89.5 30q-80 0 -160 -48.5t-113 -121.5z" />
<glyph unicode="&#xff;" horiz-adv-x="952" d="M-154 -393q-8 43 28.5 77.5t90.5 34.5q24 0 41.5 -8t30.5 -25.5t21 -33.5t19 -42q3 -7 5 -11q54 0 102 61.5t72 155.5l59 190q-2 69 -5.5 132.5t-10.5 137t-11.5 117.5t-16.5 133t-16 118.5t-20 140t-20 135.5l-111 16l23 80l344 39q43 -252 60 -405.5t20 -370.5 q210 264 305 497q-3 9 -23.5 52t-30 77.5t-3.5 59.5q11 47 44 80.5t70 33.5q48 0 71 -38.5t18 -92.5t-31 -106q-109 -236 -232.5 -412t-335.5 -422l-65 -194q-41 -145 -135.5 -231.5t-171.5 -86.5q-162 0 -185 111zM281 1407q9 51 53 83t106 32q55 0 88.5 -32.5t24.5 -82.5 q-10 -50 -54.5 -80.5t-103.5 -30.5q-60 0 -92 30.5t-22 80.5zM690 1405q9 51 53.5 83t106.5 32q55 0 88.5 -32.5t24.5 -82.5q-10 -50 -54.5 -80.5t-103.5 -30.5q-60 0 -92.5 30.5t-22.5 80.5z" />
<glyph unicode="&#x152;" horiz-adv-x="2062" d="M131.5 454q-24.5 122 7.5 279q21 109 65 206.5t102 171.5t129.5 136t146 104.5t151.5 72.5t147 43.5t132 13.5q133 0 266 -19h881l-70 -383h-64l11 64q27 135 -54 198.5t-245 61.5l-211 -2l-123 -637h24q249 -3 285 168l8 41h60l-90 -475h-62l6 41q16 91 -42.5 130.5 t-174.5 37.5h-26l-125 -648h274q163 -2 267.5 61.5t131.5 198.5l15 64h63l-75 -383h-981q-123 -14 -242 -14q-92 0 -184 27.5t-178 84.5t-143.5 145.5t-82 210.5zM447.5 366q19.5 -156 94.5 -244.5t191 -88.5q151 0 246 63l246 1282q-78 56 -219 56q-185 0 -331.5 -192.5 t-205.5 -506.5q-41 -213 -21.5 -369z" />
<glyph unicode="&#x153;" horiz-adv-x="1640" d="M119 471q35 159 121.5 289.5t210 207t258.5 76.5q110 0 196 -44.5t137 -122.5q174 167 390 167q131 0 204.5 -58.5t46.5 -162.5q-18 -73 -74 -134.5t-124.5 -100t-152 -68t-145 -43.5t-114.5 -20q-16 -65 -17.5 -123.5t11.5 -110t51.5 -82t100.5 -30.5q79 0 167.5 52.5 t153.5 151.5l64 -20q-97 -145 -229 -230t-261 -85q-189 0 -274 137q-161 -135 -359 -135q-130 0 -223.5 65.5t-130 177.5t-8.5 246zM358 267q-1 -90 34.5 -145.5t105.5 -55.5q103 0 185.5 136.5t125.5 350.5q24 113 25.5 203t-35.5 146t-111 56q-67 0 -127.5 -67.5 t-104 -173.5t-75.5 -246q-22 -114 -23 -204zM1096 539q44 9 78.5 19t82.5 32.5t83.5 50.5t67 74.5t46.5 103.5q13 58 -6 91.5t-62 33.5q-86 0 -156.5 -101.5t-133.5 -303.5z" />
<glyph unicode="&#x178;" horiz-adv-x="1454" d="M266 1393l17 73l313 -4l256 4l-16 -73l-152 -23l246 -678l469 651l4 25l-139 23l16 75l262 -4l178 4l-16 -75l-135 -27l-613 -770l-104 -500l141 -26l-16 -72l-238 4l-342 -4l17 72l157 22l109 512l-293 764zM590 1845q9 51 53.5 83t106.5 32q55 0 88 -32.5t24 -82.5 q-10 -50 -54 -80t-103 -30q-60 0 -92.5 30t-22.5 80zM997 1843q9 51 53.5 83t106.5 32q55 0 88.5 -32.5t24.5 -82.5q-10 -50 -54 -80t-104 -30t-92.5 30t-22.5 80z" />
<glyph unicode="&#x2c6;" horiz-adv-x="661" d="M209 1233l285 223h65l193 -223h-107l-133 160l-205 -160h-98z" />
<glyph unicode="&#x2dc;" horiz-adv-x="868" d="M285 1257q9 102 72 163t147 44q61 -11 126 -49t130 -51q51 -8 90 22.5t45 88.5l29 -11q-9 -102 -72 -163t-147 -44q-65 12 -128.5 50.5t-123.5 50.5q-54 8 -94 -22.5t-46 -88.5z" />
<glyph unicode="&#x2000;" horiz-adv-x="980" />
<glyph unicode="&#x2001;" horiz-adv-x="1960" />
<glyph unicode="&#x2002;" horiz-adv-x="980" />
<glyph unicode="&#x2003;" horiz-adv-x="1960" />
<glyph unicode="&#x2004;" horiz-adv-x="653" />
<glyph unicode="&#x2005;" horiz-adv-x="490" />
<glyph unicode="&#x2006;" horiz-adv-x="326" />
<glyph unicode="&#x2007;" horiz-adv-x="326" />
<glyph unicode="&#x2008;" horiz-adv-x="245" />
<glyph unicode="&#x2009;" horiz-adv-x="392" />
<glyph unicode="&#x200a;" horiz-adv-x="108" />
<glyph unicode="&#x2010;" horiz-adv-x="1048" d="M223 565l37 150h701l-37 -150h-701z" />
<glyph unicode="&#x2011;" horiz-adv-x="1048" d="M223 565l37 150h701l-37 -150h-701z" />
<glyph unicode="&#x2012;" horiz-adv-x="1048" d="M223 565l37 150h701l-37 -150h-701z" />
<glyph unicode="&#x2013;" horiz-adv-x="1107" d="M119 565l24 129h906l-27 -129h-903z" />
<glyph unicode="&#x2014;" horiz-adv-x="1312" d="M119 565l24 129h1112l-26 -129h-1110z" />
<glyph unicode="&#x2018;" horiz-adv-x="450" d="M287 1188q12 63 48 126t79.5 108.5t83 77t69.5 46.5l29 -45q-70 -47 -114 -97t-62 -128q44 -8 71.5 -46.5t20.5 -82.5q-9 -50 -47.5 -80.5t-91.5 -30.5q-47 0 -73 42.5t-13 109.5z" />
<glyph unicode="&#x2019;" horiz-adv-x="450" d="M74 1018q70 47 114 97t62 128q-44 8 -71.5 46.5t-20.5 82.5q9 50 47.5 80.5t91.5 30.5q47 0 73 -42.5t13 -109.5q-12 -63 -48 -126t-80 -108.5t-83.5 -77t-69.5 -46.5z" />
<glyph unicode="&#x201a;" horiz-adv-x="430" d="M-55 -262q70 47 114 97t62 128q-44 8 -71.5 46.5t-20.5 82.5q9 50 47.5 80.5t91.5 30.5q47 0 73 -42.5t13 -109.5q-12 -63 -48 -126t-80 -108.5t-83.5 -77t-69.5 -46.5z" />
<glyph unicode="&#x201c;" horiz-adv-x="768" d="M283 1167q12 63 48 126t79.5 109t83.5 77.5t69 46.5l29 -45q-69 -47 -113.5 -97.5t-62.5 -128.5q44 -8 71.5 -46.5t20.5 -82.5q-9 -50 -47.5 -80t-91.5 -30q-47 0 -73 42t-13 109zM592 1167q12 63 48 126t79.5 109t83.5 77.5t69 46.5l29 -45q-69 -47 -113.5 -97.5 t-62.5 -128.5q44 -8 71.5 -46.5t20.5 -82.5q-9 -50 -47.5 -80t-91.5 -30q-47 0 -73 42t-13 109z" />
<glyph unicode="&#x201d;" horiz-adv-x="755" d="M74 1018q70 47 114 97t62 128q-44 8 -71.5 46.5t-20.5 82.5q9 50 47.5 80.5t91.5 30.5q47 0 73 -42.5t13 -109.5q-12 -63 -48 -126t-80 -108.5t-83.5 -77t-69.5 -46.5zM367 1018q70 47 114 97t62 128q-44 8 -71.5 46.5t-20.5 82.5q9 50 47.5 80.5t91.5 30.5 q47 0 73 -42.5t13 -109.5q-12 -63 -48 -126t-80 -108.5t-83.5 -77t-69.5 -46.5z" />
<glyph unicode="&#x201e;" horiz-adv-x="733" d="M-55 -262q70 47 114 97t62 128q-44 8 -71.5 46.5t-20.5 82.5q9 50 47.5 80.5t91.5 30.5q47 0 73 -42.5t13 -109.5q-12 -63 -48 -126t-80 -108.5t-83.5 -77t-69.5 -46.5zM236 -262q70 47 114 97t62 128q-44 8 -72 46.5t-21 82.5q9 50 48 80.5t92 30.5q47 0 73 -42.5 t13 -109.5q-12 -63 -48 -126t-80 -108.5t-83.5 -77t-69.5 -46.5z" />
<glyph unicode="&#x2022;" horiz-adv-x="655" d="M131 641q20 97 94.5 155t173.5 58q96 0 151.5 -59t35.5 -154q-19 -99 -95.5 -161t-175.5 -62q-94 0 -147.5 62.5t-36.5 160.5z" />
<glyph unicode="&#x2026;" horiz-adv-x="1251" d="M-33 96q9 51 53.5 83t106.5 32q55 0 88.5 -32.5t24.5 -82.5q-10 -50 -54 -80t-104 -30t-92.5 30t-22.5 80zM371 96q9 51 53 83t106 32q55 0 88.5 -32.5t24.5 -82.5q-10 -50 -54 -80t-104 -30t-92 30t-22 80zM776 96q9 51 53.5 83t106.5 32q55 0 88.5 -32.5t24.5 -82.5 q-10 -50 -54 -80t-104 -30t-92.5 30t-22.5 80z" />
<glyph unicode="&#x202f;" horiz-adv-x="392" />
<glyph unicode="&#x2039;" horiz-adv-x="569" d="M82 381l6 33l404 387l34 -25l-272 -381l121 -383l-41 -18z" />
<glyph unicode="&#x203a;" horiz-adv-x="569" d="M10 18l271 381l-123 383l45 19l250 -387l-7 -33l-401 -387z" />
<glyph unicode="&#x205f;" horiz-adv-x="490" />
<glyph unicode="&#x20ac;" horiz-adv-x="1449" d="M51 590l8 67h174l-6 -67h-176zM80 799l14 69h191q-21 -60 -23 -69h-182zM227 590h312q-20 -227 57 -364.5t221 -137.5q190 0 308.5 66t236.5 235l72 -22q-110 -190 -279 -285.5t-364 -95.5q-81 0 -161 21.5t-156 70t-133 117t-89 171t-25 224.5zM233 657q5 30 15 76 q6 37 14 66h316q-7 -22 -15 -64l-2 -4l-14 -74h-314zM285 868q44 123 118.5 227.5t160 174t181 118.5t183 71t164.5 22q127 0 213.5 -41t115.5 -105l56 129h79l-94 -434h-69q-3 170 -80.5 265.5t-237.5 95.5q-147 0 -275 -141.5t-202 -381.5h-313zM539 590q5 49 8 67h608 l-8 -67h-608zM578 799q12 46 20 69h592l-14 -69h-598z" />
<glyph unicode="&#x2122;" horiz-adv-x="1161" d="M250 1343l22 119h398l-23 -119h-22l4 19q6 37 -13 52.5t-59 15.5h-29l-67 -355l45 -4l-6 -22l-103 2l-104 -2l4 22l43 4l68 355h-33q-85 0 -96 -68l-5 -19h-24zM631 1049l2 20l49 6l61 322q7 38 -36 45l4 20h139l100 -260l166 260h152l-2 -20l-43 -6l-70 -357l39 -10 l-2 -20l-105 2l-104 -2l2 20l47 6l49 256l-180 -280h-20l-107 292l-51 -264l49 -10l-2 -20l-72 2z" />
<glyph unicode="&#xe000;" horiz-adv-x="1054" d="M0 0v1055h1055v-1055h-1055z" />
</font>
</defs>
</svg>
